<mxfile host="Electron" agent="Mozilla/5.0 (Macintosh; Intel Mac OS X 10_15_7) AppleWebKit/537.36 (KHTML, like Gecko) draw.io/26.0.4 Chrome/128.0.6613.186 Electron/32.2.5 Safari/537.36" version="26.0.4" pages="2">
  <diagram name="Page-1" id="eAISe29vlbJKOTDkv3Be">
    <mxGraphModel dx="1465" dy="780" grid="1" gridSize="10" guides="1" tooltips="1" connect="1" arrows="1" fold="1" page="1" pageScale="1" pageWidth="850" pageHeight="1100" math="0" shadow="0">
      <root>
        <mxCell id="0" />
        <mxCell id="1" parent="0" />
        <mxCell id="p5a3x0Woh8KXIS6fhXFj-1" value="" style="rounded=1;whiteSpace=wrap;html=1;arcSize=10;dashed=1;strokeColor=#67E8F9;strokeWidth=2;fillColor=#4B5563;fontColor=#67E8F9;" parent="1" vertex="1">
          <mxGeometry x="80" y="80" width="600" height="400" as="geometry" />
        </mxCell>
        <mxCell id="p5a3x0Woh8KXIS6fhXFj-2" value="&lt;b&gt;&lt;font style=&quot;&quot;&gt;Process&lt;/font&gt;&lt;/b&gt;" style="text;html=1;align=center;verticalAlign=middle;whiteSpace=wrap;rounded=0;fontSize=16;fontFamily=Tahoma;fontColor=#67E8F9;" parent="1" vertex="1">
          <mxGeometry x="100" y="90" width="60" height="30" as="geometry" />
        </mxCell>
        <mxCell id="p5a3x0Woh8KXIS6fhXFj-6" value="&lt;b&gt;&lt;font style=&quot;color: rgb(103, 232, 249);&quot;&gt;Memory&lt;/font&gt;&lt;/b&gt;" style="text;html=1;align=center;verticalAlign=middle;whiteSpace=wrap;rounded=0;fontSize=16;fontFamily=Tahoma;" parent="1" vertex="1">
          <mxGeometry x="350" y="440" width="60" height="30" as="geometry" />
        </mxCell>
        <mxCell id="p5a3x0Woh8KXIS6fhXFj-8" value="&lt;font style=&quot;font-size: 18px;&quot;&gt;Heap&lt;/font&gt;" style="rounded=1;whiteSpace=wrap;html=1;fontFamily=Tahoma;fillColor=none;strokeColor=#F59E0B;fontColor=#F59E0B;fontSize=24;fontStyle=1;strokeWidth=2;spacing=0;flipV=1;flipH=1;spacingTop=-7;" parent="1" vertex="1">
          <mxGeometry x="120" y="380" width="520" height="60" as="geometry" />
        </mxCell>
        <mxCell id="p5a3x0Woh8KXIS6fhXFj-10" value="&lt;font style=&quot;font-size: 18px;&quot;&gt;Thread&lt;/font&gt;" style="rounded=1;whiteSpace=wrap;html=1;fontFamily=Tahoma;fillColor=none;strokeColor=#EF4444;fontColor=#EF4444;fontSize=24;fontStyle=1;strokeWidth=2;spacing=0;flipV=1;flipH=1;verticalAlign=top;" parent="1" vertex="1">
          <mxGeometry x="120" y="120" width="160" height="240" as="geometry" />
        </mxCell>
        <mxCell id="p5a3x0Woh8KXIS6fhXFj-14" value="&lt;font style=&quot;font-size: 18px; color: rgb(34, 197, 94);&quot;&gt;Register&lt;/font&gt;" style="rounded=1;whiteSpace=wrap;html=1;fontFamily=Tahoma;fillColor=#374151;strokeColor=#22C55E;fontColor=#F59E0B;fontSize=24;fontStyle=1;strokeWidth=2;spacing=0;flipV=1;flipH=1;spacingTop=-7;" parent="1" vertex="1">
          <mxGeometry x="140" y="170" width="120" height="50" as="geometry" />
        </mxCell>
        <mxCell id="p5a3x0Woh8KXIS6fhXFj-15" value="&lt;font style=&quot;font-size: 18px; color: rgb(34, 197, 94);&quot;&gt;Stack&lt;/font&gt;" style="rounded=1;whiteSpace=wrap;html=1;fontFamily=Tahoma;fillColor=#374151;strokeColor=#22C55E;fontColor=#F59E0B;fontSize=24;fontStyle=1;strokeWidth=2;spacing=0;flipV=1;flipH=1;spacingTop=-7;" parent="1" vertex="1">
          <mxGeometry x="140" y="240" width="120" height="100" as="geometry" />
        </mxCell>
        <mxCell id="p5a3x0Woh8KXIS6fhXFj-18" value="&lt;font style=&quot;font-size: 18px;&quot;&gt;Thread&lt;/font&gt;" style="rounded=1;whiteSpace=wrap;html=1;fontFamily=Tahoma;fillColor=none;strokeColor=#EF4444;fontColor=#EF4444;fontSize=24;fontStyle=1;strokeWidth=2;spacing=0;flipV=1;flipH=1;verticalAlign=top;" parent="1" vertex="1">
          <mxGeometry x="300" y="120" width="160" height="240" as="geometry" />
        </mxCell>
        <mxCell id="p5a3x0Woh8KXIS6fhXFj-19" value="&lt;font style=&quot;font-size: 18px; color: rgb(34, 197, 94);&quot;&gt;Register&lt;/font&gt;" style="rounded=1;whiteSpace=wrap;html=1;fontFamily=Tahoma;fillColor=#374151;strokeColor=#22C55E;fontColor=#F59E0B;fontSize=24;fontStyle=1;strokeWidth=2;spacing=0;flipV=1;flipH=1;spacingTop=-7;" parent="1" vertex="1">
          <mxGeometry x="320" y="170" width="120" height="50" as="geometry" />
        </mxCell>
        <mxCell id="p5a3x0Woh8KXIS6fhXFj-20" value="&lt;font style=&quot;font-size: 18px; color: rgb(34, 197, 94);&quot;&gt;Stack&lt;/font&gt;" style="rounded=1;whiteSpace=wrap;html=1;fontFamily=Tahoma;fillColor=#374151;strokeColor=#22C55E;fontColor=#F59E0B;fontSize=24;fontStyle=1;strokeWidth=2;spacing=0;flipV=1;flipH=1;spacingTop=-7;" parent="1" vertex="1">
          <mxGeometry x="320" y="240" width="120" height="100" as="geometry" />
        </mxCell>
        <mxCell id="p5a3x0Woh8KXIS6fhXFj-21" value="&lt;font style=&quot;font-size: 18px;&quot;&gt;Thread&lt;/font&gt;" style="rounded=1;whiteSpace=wrap;html=1;fontFamily=Tahoma;fillColor=none;strokeColor=#EF4444;fontColor=#EF4444;fontSize=24;fontStyle=1;strokeWidth=2;spacing=0;flipV=1;flipH=1;verticalAlign=top;" parent="1" vertex="1">
          <mxGeometry x="480" y="120" width="160" height="240" as="geometry" />
        </mxCell>
        <mxCell id="p5a3x0Woh8KXIS6fhXFj-22" value="&lt;font style=&quot;font-size: 18px; color: rgb(34, 197, 94);&quot;&gt;Register&lt;/font&gt;" style="rounded=1;whiteSpace=wrap;html=1;fontFamily=Tahoma;fillColor=#374151;strokeColor=#22C55E;fontColor=#F59E0B;fontSize=24;fontStyle=1;strokeWidth=2;spacing=0;flipV=1;flipH=1;spacingTop=-7;" parent="1" vertex="1">
          <mxGeometry x="500" y="170" width="120" height="50" as="geometry" />
        </mxCell>
        <mxCell id="p5a3x0Woh8KXIS6fhXFj-23" value="&lt;font style=&quot;font-size: 18px; color: rgb(34, 197, 94);&quot;&gt;Stack&lt;/font&gt;" style="rounded=1;whiteSpace=wrap;html=1;fontFamily=Tahoma;fillColor=#374151;strokeColor=#22C55E;fontColor=#F59E0B;fontSize=24;fontStyle=1;strokeWidth=2;spacing=0;flipV=1;flipH=1;spacingTop=-7;" parent="1" vertex="1">
          <mxGeometry x="500" y="240" width="120" height="100" as="geometry" />
        </mxCell>
        <mxCell id="jY2KqTbJmhxcU1YH_GPb-2" value="" style="rounded=0;whiteSpace=wrap;html=1;strokeColor=#006EAF;fillColor=#1ba1e2;fontColor=#ffffff;" vertex="1" parent="1">
          <mxGeometry y="600" width="770" height="130" as="geometry" />
        </mxCell>
        <mxCell id="jY2KqTbJmhxcU1YH_GPb-4" value="Main Thread" style="text;html=1;align=center;verticalAlign=middle;whiteSpace=wrap;rounded=0;fontStyle=1" vertex="1" parent="1">
          <mxGeometry y="650" width="80" height="30" as="geometry" />
        </mxCell>
        <mxCell id="jY2KqTbJmhxcU1YH_GPb-5" value="" style="rounded=0;whiteSpace=wrap;html=1;strokeColor=#B09500;fillColor=#e3c800;fontColor=#000000;" vertex="1" parent="1">
          <mxGeometry y="730" width="770" height="190" as="geometry" />
        </mxCell>
        <mxCell id="jY2KqTbJmhxcU1YH_GPb-6" value="" style="endArrow=none;html=1;rounded=0;strokeWidth=2;strokeColor=#4B5563;" edge="1" parent="1">
          <mxGeometry width="50" height="50" relative="1" as="geometry">
            <mxPoint x="79" y="960" as="sourcePoint" />
            <mxPoint x="79" y="560" as="targetPoint" />
          </mxGeometry>
        </mxCell>
        <mxCell id="jY2KqTbJmhxcU1YH_GPb-7" value="Daemon Thread" style="text;html=1;align=center;verticalAlign=middle;whiteSpace=wrap;rounded=0;fontStyle=1" vertex="1" parent="1">
          <mxGeometry y="780" width="80" height="30" as="geometry" />
        </mxCell>
        <mxCell id="jY2KqTbJmhxcU1YH_GPb-8" value="" style="rhombus;whiteSpace=wrap;html=1;rounded=1;fillColor=#008a00;strokeColor=#005700;fontColor=#ffffff;strokeWidth=2;" vertex="1" parent="1">
          <mxGeometry x="60" y="600" width="40" height="40" as="geometry" />
        </mxCell>
        <mxCell id="jY2KqTbJmhxcU1YH_GPb-11" value="" style="endArrow=none;html=1;rounded=0;strokeWidth=2;strokeColor=#4B5563;" edge="1" parent="1">
          <mxGeometry width="50" height="50" relative="1" as="geometry">
            <mxPoint x="240" y="960" as="sourcePoint" />
            <mxPoint x="240" y="560" as="targetPoint" />
          </mxGeometry>
        </mxCell>
        <mxCell id="jY2KqTbJmhxcU1YH_GPb-12" value="" style="endArrow=none;html=1;rounded=0;strokeWidth=2;strokeColor=#4B5563;" edge="1" parent="1">
          <mxGeometry width="50" height="50" relative="1" as="geometry">
            <mxPoint x="400" y="960" as="sourcePoint" />
            <mxPoint x="400" y="560" as="targetPoint" />
          </mxGeometry>
        </mxCell>
        <mxCell id="jY2KqTbJmhxcU1YH_GPb-13" value="" style="endArrow=none;html=1;rounded=0;strokeWidth=2;strokeColor=#4B5563;" edge="1" parent="1">
          <mxGeometry width="50" height="50" relative="1" as="geometry">
            <mxPoint x="559" y="960" as="sourcePoint" />
            <mxPoint x="559" y="560" as="targetPoint" />
          </mxGeometry>
        </mxCell>
        <mxCell id="jY2KqTbJmhxcU1YH_GPb-14" value="&lt;b&gt;Sleep for 3s&lt;/b&gt;" style="rounded=1;whiteSpace=wrap;html=1;strokeColor=#A50040;fillColor=#d80073;strokeWidth=3;fontColor=#ffffff;" vertex="1" parent="1">
          <mxGeometry x="80" y="645" width="480" height="35" as="geometry" />
        </mxCell>
        <mxCell id="jY2KqTbJmhxcU1YH_GPb-16" value="" style="endArrow=none;html=1;rounded=0;strokeWidth=2;strokeColor=#4B5563;" edge="1" parent="1">
          <mxGeometry width="50" height="50" relative="1" as="geometry">
            <mxPoint x="720" y="960" as="sourcePoint" />
            <mxPoint x="720" y="560" as="targetPoint" />
          </mxGeometry>
        </mxCell>
        <mxCell id="jY2KqTbJmhxcU1YH_GPb-17" value="&lt;b&gt;Exit&lt;/b&gt;" style="rounded=1;whiteSpace=wrap;html=1;strokeColor=default;fillColor=#a20025;strokeWidth=2;fontColor=#ffffff;" vertex="1" parent="1">
          <mxGeometry x="560" y="685" width="160" height="35" as="geometry" />
        </mxCell>
        <mxCell id="jY2KqTbJmhxcU1YH_GPb-18" value="" style="rhombus;whiteSpace=wrap;html=1;rounded=1;fillColor=#d80073;strokeColor=#A50040;strokeWidth=3;fontColor=#ffffff;" vertex="1" parent="1">
          <mxGeometry x="700" y="870" width="40" height="40" as="geometry" />
        </mxCell>
        <mxCell id="jY2KqTbJmhxcU1YH_GPb-20" value="&lt;b&gt;Terminated&lt;/b&gt;" style="text;html=1;align=center;verticalAlign=middle;whiteSpace=wrap;rounded=0;" vertex="1" parent="1">
          <mxGeometry x="620" y="880" width="80" height="30" as="geometry" />
        </mxCell>
        <mxCell id="jY2KqTbJmhxcU1YH_GPb-23" value="&lt;b&gt;Iteration 1&lt;/b&gt;" style="rounded=1;whiteSpace=wrap;html=1;strokeColor=#006EAF;fillColor=#1ba1e2;strokeWidth=3;fontColor=#ffffff;" vertex="1" parent="1">
          <mxGeometry x="80" y="741" width="160" height="35" as="geometry" />
        </mxCell>
        <mxCell id="jY2KqTbJmhxcU1YH_GPb-24" value="&lt;b&gt;Iteration 2&lt;/b&gt;" style="rounded=1;whiteSpace=wrap;html=1;strokeColor=#006EAF;fillColor=#1ba1e2;strokeWidth=3;fontColor=#ffffff;" vertex="1" parent="1">
          <mxGeometry x="240" y="785" width="160" height="35" as="geometry" />
        </mxCell>
        <mxCell id="jY2KqTbJmhxcU1YH_GPb-25" value="&lt;b&gt;Iteration 3&lt;/b&gt;" style="rounded=1;whiteSpace=wrap;html=1;strokeColor=#006EAF;fillColor=#1ba1e2;strokeWidth=3;fontColor=#ffffff;" vertex="1" parent="1">
          <mxGeometry x="400" y="830" width="160" height="35" as="geometry" />
        </mxCell>
        <mxCell id="jY2KqTbJmhxcU1YH_GPb-35" value="" style="shape=image;aspect=fixed;editableCssRules=.*;image=data:image/svg+xml,PHN2ZyB4bWxucz0iaHR0cDovL3d3dy53My5vcmcvMjAwMC9zdmciIHhtbG5zOnhsaW5rPSJodHRwOi8vd3d3LnczLm9yZy8xOTk5L3hsaW5rIiB2ZXJzaW9uPSIxLjEiIHZpZXdCb3g9IjAgMCAxMjggMTI4Ij4mI3hhOzxzdHlsZSB0eXBlPSJ0ZXh0L2NzcyI+LnBhdGgxIHsgZmlsbDogbGlnaHQtZGFyayhyZ2IoMTUzLCAxNTMsIDE1MyksIHJnYigyNTUsIDExNiwgMTE2KSk7IH0gLnBhdGgyIHsgZmlsbDogbGlnaHQtZGFyayhyZ2IoMTUzLCAxNTMsIDE1MyksIHJnYigyNTUsIDExNiwgMTE2KSk7IH0gPC9zdHlsZT4mI3hhOzxwYXRoIGQ9Ik0wIDAgQzEuOTggMCAzLjk2IDAgNiAwIEM2IDMuNjMgNiA3LjI2IDYgMTEgQzkuNjMgMTEgMTMuMjYgMTEgMTcgMTEgQzE2Ljk3OTM3NSA5LjM3MDYyNSAxNi45NTg3NSA3Ljc0MTI1IDE2LjkzNzUgNi4wNjI1IEMxNi45MTYxMzkzMiA0LjM3NTAwNjU5IDE2LjkyNzk0NDg5IDIuNjg2MDg5NjYgMTcgMSBDMTggMCAxOCAwIDIwLjUgLTAuMTI1IEMyMyAwIDIzIDAgMjQgMSBDMjQuMTQyNTcxODkgNC4zMzYxODIzMSAyNC4wNDIyODE1NyA3LjY1OTc1NjA2IDI0IDExIEMyNy42MyAxMSAzMS4yNiAxMSAzNSAxMSBDMzUgNy4zNyAzNSAzLjc0IDM1IDAgQzM2Ljk4IDAgMzguOTYgMCA0MSAwIEM0MSAzLjYzIDQxIDcuMjYgNDEgMTEgQzQ0LjYzIDExIDQ4LjI2IDExIDUyIDExIEM1MS45NzkzNzUgOS4zNzA2MjUgNTEuOTU4NzUgNy43NDEyNSA1MS45Mzc1IDYuMDYyNSBDNTEuOTE2MTM5MzIgNC4zNzUwMDY1OSA1MS45Mjc5NDQ4OSAyLjY4NjA4OTY2IDUyIDEgQzUzIDAgNTMgMCA1NS41IC0wLjEyNSBDNTggLTAgNTggLTAgNTkgMSBDNTkuMTQyNTcxODkgNC4zMzYxODIzMSA1OS4wNDIyODE1NyA3LjY1OTc1NjA2IDU5IDExIEM2Mi42MyAxMSA2Ni4yNiAxMSA3MCAxMSBDNzAgNy4zNyA3MCAzLjc0IDcwIDAgQzcxLjk4IDAgNzMuOTYgMCA3NiAwIEM3NiAzLjYzIDc2IDcuMjYgNzYgMTEgQzc3LjI5OTM3NSAxMC44NzYyNSA3Ny4yOTkzNzUgMTAuODc2MjUgNzguNjI1IDEwLjc1IEM4Mi44NzI4NjEzOCAxMS4wNjQ2NTY0IDg0LjczMjEwNDIgMTIuMzEzMDYzNDUgODggMTUgQzkwLjkyNjc1OTg3IDE4LjcwNzIyOTE3IDkxLjMyNTk5NDggMjEuMzI3NDA3ODEgOTEgMjYgQzk0LjYzIDI2IDk4LjI2IDI2IDEwMiAyNiBDMTAyIDI3Ljk4IDEwMiAyOS45NiAxMDIgMzIgQzk4LjM3IDMyIDk0Ljc0IDMyIDkxIDMyIEM5MSAzNS42MyA5MSAzOS4yNiA5MSA0MyBDOTIuNjI5Mzc1IDQyLjk3OTM3NSA5NC4yNTg3NSA0Mi45NTg3NSA5NS45Mzc1IDQyLjkzNzUgQzk3LjYyNDk5MzQxIDQyLjkxNjEzOTMyIDk5LjMxMzkxMDM0IDQyLjkyNzk0NDg5IDEwMSA0MyBDMTAyIDQ0IDEwMiA0NCAxMDIuMTI1IDQ2LjUgQzEwMiA0OSAxMDIgNDkgMTAxIDUwIEM5Ny42NjM4MTc2OSA1MC4xNDI1NzE4OSA5NC4zNDAyNDM5NCA1MC4wNDIyODE1NyA5MSA1MCBDOTEgNTMuNjMgOTEgNTcuMjYgOTEgNjEgQzk0LjYzIDYxIDk4LjI2IDYxIDEwMiA2MSBDMTAyIDYyLjk4IDEwMiA2NC45NiAxMDIgNjcgQzk4LjM3IDY3IDk0Ljc0IDY3IDkxIDY3IEM5MSA3MC42MyA5MSA3NC4yNiA5MSA3OCBDOTIuNjI5Mzc1IDc3Ljk3OTM3NSA5NC4yNTg3NSA3Ny45NTg3NSA5NS45Mzc1IDc3LjkzNzUgQzk3LjYyNDk5MzQxIDc3LjkxNjEzOTMyIDk5LjMxMzkxMDM0IDc3LjkyNzk0NDg5IDEwMSA3OCBDMTAyIDc5IDEwMiA3OSAxMDIuMTI1IDgxLjUgQzEwMiA4NCAxMDIgODQgMTAxIDg1IEM5Ny42NjM4MTc2OSA4NS4xNDI1NzE4OSA5NC4zNDAyNDM5NCA4NS4wNDIyODE1NyA5MSA4NSBDOTEgODguNjMgOTEgOTIuMjYgOTEgOTYgQzk0LjYzIDk2IDk4LjI2IDk2IDEwMiA5NiBDMTAyIDk3Ljk4IDEwMiA5OS45NiAxMDIgMTAyIEM5OC4zNyAxMDIgOTQuNzQgMTAyIDkxIDEwMiBDOTEuMDgyNSAxMDIuODY2MjUgOTEuMTY1IDEwMy43MzI1IDkxLjI1IDEwNC42MjUgQzkwLjkzNTM0MzYgMTA4Ljg3Mjg2MTM4IDg5LjY4NjkzNjU1IDExMC43MzIxMDQyIDg3IDExNCBDODMuMjkyNzcwODMgMTE2LjkyNjc1OTg3IDgwLjY3MjU5MjE5IDExNy4zMjU5OTQ4IDc2IDExNyBDNzYgMTIwLjYzIDc2IDEyNC4yNiA3NiAxMjggQzc0LjAyIDEyOCA3Mi4wNCAxMjggNzAgMTI4IEM3MCAxMjQuMzcgNzAgMTIwLjc0IDcwIDExNyBDNjYuMzcgMTE3IDYyLjc0IDExNyA1OSAxMTcgQzU5LjAyMDYyNSAxMTguNjI5Mzc1IDU5LjA0MTI1IDEyMC4yNTg3NSA1OS4wNjI1IDEyMS45Mzc1IEM1OS4wODM4NjA2OCAxMjMuNjI0OTkzNDEgNTkuMDcyMDU1MTEgMTI1LjMxMzkxMDM0IDU5IDEyNyBDNTggMTI4IDU4IDEyOCA1NS41IDEyOC4xMjUgQzUzIDEyOCA1MyAxMjggNTIgMTI3IEM1MS44NTc0MjgxMSAxMjMuNjYzODE3NjkgNTEuOTU3NzE4NDMgMTIwLjM0MDI0Mzk0IDUyIDExNyBDNDguMzcgMTE3IDQ0Ljc0IDExNyA0MSAxMTcgQzQxIDEyMC42MyA0MSAxMjQuMjYgNDEgMTI4IEMzOS4wMiAxMjggMzcuMDQgMTI4IDM1IDEyOCBDMzUgMTI0LjM3IDM1IDEyMC43NCAzNSAxMTcgQzMxLjM3IDExNyAyNy43NCAxMTcgMjQgMTE3IEMyNC4wMjA2MjUgMTE4LjYyOTM3NSAyNC4wNDEyNSAxMjAuMjU4NzUgMjQuMDYyNSAxMjEuOTM3NSBDMjQuMDgzODYwNjggMTIzLjYyNDk5MzQxIDI0LjA3MjA1NTExIDEyNS4zMTM5MTAzNCAyNCAxMjcgQzIzIDEyOCAyMyAxMjggMjAuNSAxMjguMTI1IEMxOCAxMjggMTggMTI4IDE3IDEyNyBDMTYuODU3NDI4MTEgMTIzLjY2MzgxNzY5IDE2Ljk1NzcxODQzIDEyMC4zNDAyNDM5NCAxNyAxMTcgQzEzLjM3IDExNyA5Ljc0IDExNyA2IDExNyBDNiAxMjAuNjMgNiAxMjQuMjYgNiAxMjggQzQuMDIgMTI4IDIuMDQgMTI4IDAgMTI4IEMwIDEyNC4zNyAwIDEyMC43NCAwIDExNyBDLTAuODY2MjUgMTE3LjA4MjUgLTEuNzMyNSAxMTcuMTY1IC0yLjYyNSAxMTcuMjUgQy02Ljg3Mjg2MTM4IDExNi45MzUzNDM2IC04LjczMjEwNDIgMTE1LjY4NjkzNjU1IC0xMiAxMTMgQy0xNC45MjY3NTk4NyAxMDkuMjkyNzcwODMgLTE1LjMyNTk5NDggMTA2LjY3MjU5MjE5IC0xNSAxMDIgQy0xOC42MyAxMDIgLTIyLjI2IDEwMiAtMjYgMTAyIEMtMjYgMTAwLjAyIC0yNiA5OC4wNCAtMjYgOTYgQy0yMi4zNyA5NiAtMTguNzQgOTYgLTE1IDk2IEMtMTUgOTIuMzcgLTE1IDg4Ljc0IC0xNSA4NSBDLTE3LjQ0NDA2MjUgODUuMDMwOTM3NSAtMTcuNDQ0MDYyNSA4NS4wMzA5Mzc1IC0xOS45Mzc1IDg1LjA2MjUgQy0yMS42MjQ5OTM0MSA4NS4wODM4NjA2OCAtMjMuMzEzOTEwMzQgODUuMDcyMDU1MTEgLTI1IDg1IEMtMjYgODQgLTI2IDg0IC0yNi4xMjUgODEuNSBDLTI2IDc5IC0yNiA3OSAtMjUgNzggQy0yMS42NjM4MTc2OSA3Ny44NTc0MjgxMSAtMTguMzQwMjQzOTQgNzcuOTU3NzE4NDMgLTE1IDc4IEMtMTUgNzQuMzcgLTE1IDcwLjc0IC0xNSA2NyBDLTE4LjYzIDY3IC0yMi4yNiA2NyAtMjYgNjcgQy0yNiA2NS4wMiAtMjYgNjMuMDQgLTI2IDYxIEMtMjIuMzcgNjEgLTE4Ljc0IDYxIC0xNSA2MSBDLTE1IDU3LjM3IC0xNSA1My43NCAtMTUgNTAgQy0xNy40NDQwNjI1IDUwLjAzMDkzNzUgLTE3LjQ0NDA2MjUgNTAuMDMwOTM3NSAtMTkuOTM3NSA1MC4wNjI1IEMtMjEuNjI0OTkzNDEgNTAuMDgzODYwNjggLTIzLjMxMzkxMDM0IDUwLjA3MjA1NTExIC0yNSA1MCBDLTI2IDQ5IC0yNiA0OSAtMjYuMTI1IDQ2LjUgQy0yNiA0NCAtMjYgNDQgLTI1IDQzIEMtMjEuNjYzODE3NjkgNDIuODU3NDI4MTEgLTE4LjM0MDI0Mzk0IDQyLjk1NzcxODQzIC0xNSA0MyBDLTE1IDM5LjM3IC0xNSAzNS43NCAtMTUgMzIgQy0xOC42MyAzMiAtMjIuMjYgMzIgLTI2IDMyIEMtMjYgMzAuMDIgLTI2IDI4LjA0IC0yNiAyNiBDLTIyLjM3IDI2IC0xOC43NCAyNiAtMTUgMjYgQy0xNC45NTg3NSAyNC42MTgxMjUgLTE0LjkxNzUgMjMuMjM2MjUgLTE0Ljg3NSAyMS44MTI1IEMtMTQuNDg4NzYwOSAxOC4xNTE4NzU2NiAtMTMuOTI0NjE0ODQgMTYuMzYwNzIyNDYgLTExLjA2MjUgMTQgQy02Ljg4Njk5MTM2IDExLjI3MzEzNzIyIC00Ljk2Nzk5NzgyIDEwLjg5MjAwMDA1IDAgMTEgQzAgNy4zNyAwIDMuNzQgMCAwIFogTS02Ljk4NzQ1NzI4IDE5LjAxMjU0MjcyIEMtOC42NDM4Mjc5OSAyMi4yNjM3MzAwMSAtOC40MTU2MzgyNiAyNS42MjE5NDQxNCAtOC4zODgxODM1OSAyOS4xODc1IEMtOC4zOTM0NDA1NSAzMC4wMjE5MjYyNyAtOC4zOTg2OTc1MSAzMC44NTYzNTI1NCAtOC40MDQxMTM3NyAzMS43MTYwNjQ0NSBDLTguNDE3MzMwNDkgMzQuNDc3NTY2MDUgLTguNDA4NTY5ODYgMzcuMjM4NDkyNDIgLTguMzk4NDM3NSA0MCBDLTguNDAwNDU3NzYgNDEuOTE2NjY3NzkgLTguNDAzMzY4NzkgNDMuODMzMzM0ODQgLTguNDA3MTM1MDEgNDUuNzUgQy04LjQxMTU2MDYzIDQ5Ljc2ODMwMzU2IC04LjQwNTExOTY1IDUzLjc4NjQwNzE2IC04LjM5MTExMzI4IDU3LjgwNDY4NzUgQy04LjM3NDAyMTI4IDYyLjk1OTk2MDA4IC04LjM4Mzg2MTE5IDY4LjExNDc2NDE0IC04LjQwMTgzMDY3IDczLjI3MDAxOTUzIEMtOC40MTI2NjIwOCA3Ny4yMjgyMjYxMyAtOC40MDkyMjUxMiA4MS4xODYzMjEzMyAtOC40MDE0NDczIDg1LjE0NDUzMTI1IEMtOC4zOTk0NDM1MSA4Ny4wNDU1NzM0OCAtOC40MDE5MTA4IDg4Ljk0NjYyNTc2IC04LjQwODg4NTk2IDkwLjg0NzY1NjI1IEMtOC40MTY0ODk4NyA5My41MDI4Nzc0IC04LjQwNDkxMTM2IDk2LjE1NzMzNTc4IC04LjM4ODE4MzU5IDk4LjgxMjUgQy04LjM5NDI1NjI5IDk5LjYwMTE2NDU1IC04LjQwMDMyODk4IDEwMC4zODk4MjkxIC04LjQwNjU4NTY5IDEwMS4yMDIzOTI1OCBDLTguMzczMjQ0NDEgMTA0LjA1MzU0ODY3IC04LjI5NjI1MTQ4IDEwNi40MTg1MDYzNiAtNi45ODc0NTcyOCAxMDguOTg3NDU3MjggQy0zLjczNjI2OTk5IDExMC42NDM4Mjc5OSAtMC4zNzgwNTU4NiAxMTAuNDE1NjM4MjYgMy4xODc1IDExMC4zODgxODM1OSBDNC4wMjE5MjYyNyAxMTAuMzkzNDQwNTUgNC44NTYzNTI1NCAxMTAuMzk4Njk3NTEgNS43MTYwNjQ0NSAxMTAuNDA0MTEzNzcgQzguNDc3NTY2MDUgMTEwLjQxNzMzMDQ5IDExLjIzODQ5MjQyIDExMC40MDg1Njk4NiAxNCAxMTAuMzk4NDM3NSBDMTUuOTE2NjY3NzkgMTEwLjQwMDQ1Nzc2IDE3LjgzMzMzNDg0IDExMC40MDMzNjg3OSAxOS43NSAxMTAuNDA3MTM1MDEgQzIzLjc2ODMwMzU2IDExMC40MTE1NjA2MyAyNy43ODY0MDcxNiAxMTAuNDA1MTE5NjUgMzEuODA0Njg3NSAxMTAuMzkxMTEzMjggQzM2Ljk1OTk2MDA4IDExMC4zNzQwMjEyOCA0Mi4xMTQ3NjQxNCAxMTAuMzgzODYxMTkgNDcuMjcwMDE5NTMgMTEwLjQwMTgzMDY3IEM1MS4yMjgyMjYxMyAxMTAuNDEyNjYyMDggNTUuMTg2MzIxMzMgMTEwLjQwOTIyNTEyIDU5LjE0NDUzMTI1IDExMC40MDE0NDczIEM2MS4wNDU1NzM0OCAxMTAuMzk5NDQzNTEgNjIuOTQ2NjI1NzYgMTEwLjQwMTkxMDggNjQuODQ3NjU2MjUgMTEwLjQwODg4NTk2IEM2Ny41MDI4Nzc0IDExMC40MTY0ODk4NyA3MC4xNTczMzU3OCAxMTAuNDA0OTExMzYgNzIuODEyNSAxMTAuMzg4MTgzNTkgQzczLjYwMTE2NDU1IDExMC4zOTQyNTYyOSA3NC4zODk4MjkxIDExMC40MDAzMjg5OCA3NS4yMDIzOTI1OCAxMTAuNDA2NTg1NjkgQzc4LjA1MzU0ODY3IDExMC4zNzMyNDQ0MSA4MC40MTg1MDYzNiAxMTAuMjk2MjUxNDggODIuOTg3NDU3MjggMTA4Ljk4NzQ1NzI4IEM4NC42NDM4Mjc5OSAxMDUuNzM2MjY5OTkgODQuNDE1NjM4MjYgMTAyLjM3ODA1NTg2IDg0LjM4ODE4MzU5IDk4LjgxMjUgQzg0LjM5MzQ0MDU1IDk3Ljk3ODA3MzczIDg0LjM5ODY5NzUxIDk3LjE0MzY0NzQ2IDg0LjQwNDExMzc3IDk2LjI4MzkzNTU1IEM4NC40MTczMzA0OSA5My41MjI0MzM5NSA4NC40MDg1Njk4NiA5MC43NjE1MDc1OCA4NC4zOTg0Mzc1IDg4IEM4NC40MDA0NTc3NiA4Ni4wODMzMzIyMSA4NC40MDMzNjg3OSA4NC4xNjY2NjUxNiA4NC40MDcxMzUwMSA4Mi4yNSBDODQuNDExNTYwNjMgNzguMjMxNjk2NDQgODQuNDA1MTE5NjUgNzQuMjEzNTkyODQgODQuMzkxMTEzMjggNzAuMTk1MzEyNSBDODQuMzc0MDIxMjggNjUuMDQwMDM5OTIgODQuMzgzODYxMTkgNTkuODg1MjM1ODYgODQuNDAxODMwNjcgNTQuNzI5OTgwNDcgQzg0LjQxMjY2MjA4IDUwLjc3MTc3Mzg3IDg0LjQwOTIyNTEyIDQ2LjgxMzY3ODY3IDg0LjQwMTQ0NzMgNDIuODU1NDY4NzUgQzg0LjM5OTQ0MzUxIDQwLjk1NDQyNjUyIDg0LjQwMTkxMDggMzkuMDUzMzc0MjQgODQuNDA4ODg1OTYgMzcuMTUyMzQzNzUgQzg0LjQxNjQ4OTg3IDM0LjQ5NzEyMjYgODQuNDA0OTExMzYgMzEuODQyNjY0MjIgODQuMzg4MTgzNTkgMjkuMTg3NSBDODQuMzk0MjU2MjkgMjguMzk4ODM1NDUgODQuNDAwMzI4OTggMjcuNjEwMTcwOSA4NC40MDY1ODU2OSAyNi43OTc2MDc0MiBDODQuMzczMjQ0NDEgMjMuOTQ2NDUxMzMgODQuMjk2MjUxNDggMjEuNTgxNDkzNjQgODIuOTg3NDU3MjggMTkuMDEyNTQyNzIgQzc5LjczNjI2OTk5IDE3LjM1NjE3MjAxIDc2LjM3ODA1NTg2IDE3LjU4NDM2MTc0IDcyLjgxMjUgMTcuNjExODE2NDEgQzcxLjk3ODA3MzczIDE3LjYwNjU1OTQ1IDcxLjE0MzY0NzQ2IDE3LjYwMTMwMjQ5IDcwLjI4MzkzNTU1IDE3LjU5NTg4NjIzIEM2Ny41MjI0MzM5NSAxNy41ODI2Njk1MSA2NC43NjE1MDc1OCAxNy41OTE0MzAxNCA2MiAxNy42MDE1NjI1IEM2MC4wODMzMzIyMSAxNy41OTk1NDIyNCA1OC4xNjY2NjUxNiAxNy41OTY2MzEyMSA1Ni4yNSAxNy41OTI4NjQ5OSBDNTIuMjMxNjk2NDQgMTcuNTg4NDM5MzcgNDguMjEzNTkyODQgMTcuNTk0ODgwMzUgNDQuMTk1MzEyNSAxNy42MDg4ODY3MiBDMzkuMDQwMDM5OTIgMTcuNjI1OTc4NzIgMzMuODg1MjM1ODYgMTcuNjE2MTM4ODEgMjguNzI5OTgwNDcgMTcuNTk4MTY5MzMgQzI0Ljc3MTc3Mzg3IDE3LjU4NzMzNzkyIDIwLjgxMzY3ODY3IDE3LjU5MDc3NDg4IDE2Ljg1NTQ2ODc1IDE3LjU5ODU1MjcgQzE0Ljk1NDQyNjUyIDE3LjYwMDU1NjQ5IDEzLjA1MzM3NDI0IDE3LjU5ODA4OTIgMTEuMTUyMzQzNzUgMTcuNTkxMTE0MDQgQzguNDk3MTIyNiAxNy41ODM1MTAxMyA1Ljg0MjY2NDIyIDE3LjU5NTA4ODY0IDMuMTg3NSAxNy42MTE4MTY0MSBDMi4zOTg4MzU0NSAxNy42MDU3NDM3MSAxLjYxMDE3MDkgMTcuNTk5NjcxMDIgMC43OTc2MDc0MiAxNy41OTM0MTQzMSBDLTIuMDUzNTQ4NjcgMTcuNjI2NzU1NTkgLTQuNDE4NTA2MzYgMTcuNzAzNzQ4NTIgLTYuOTg3NDU3MjggMTkuMDEyNTQyNzIgWiAiIHRyYW5zZm9ybT0idHJhbnNsYXRlKDI2LDApIiBpZD0icGF0aDEiIGNsYXNzPSJwYXRoMSIvPjxwYXRoIGQ9Ik0wIDAgQzEuMTE0MzM5MTQgMC4wMDMwMzYzNSAxLjExNDMzOTE0IDAuMDAzMDM2MzUgMi4yNTExOTAxOSAwLjAwNjEzNDAzIEMzLjQxOTQyODI1IDAuMDAzNTA1NTUgMy40MTk0MjgyNSAwLjAwMzUwNTU1IDQuNjExMjY3MDkgMC4wMDA4MjM5NyBDNy4xOTgyOTUwNSAtMC4wMDM1OTQ5MyA5Ljc4NTI1NTIyIC0wLjAwMDY1NjQzIDEyLjM3MjI4Mzk0IDAuMDAyNzE2MDYgQzE0LjE2MjA3ODk5IDAuMDAyMDQzMDQgMTUuOTUxODczOTYgMC4wMDEwNzMwMiAxNy43NDE2Njg3IC0wLjAwMDE4MzExIEMyMS40OTc3ODEwNSAtMC4wMDE2NjAxMyAyNS4yNTM4Njk2NiAwLjAwMDQ5NDYyIDI5LjAwOTk3OTI1IDAuMDA1MTU3NDcgQzMzLjgzNTc4ODg3IDAuMDEwODU0NzYgMzguNjYxNTQyODggMC4wMDc1NzU3OCA0My40ODczNTA0NiAwLjAwMTU4NTAxIEM0Ny4xODQ2NjYxNiAtMC4wMDIwMjA0OCA1MC44ODE5Njg1OCAtMC4wMDA4ODIwOCA1NC41NzkyODQ2NyAwLjAwMTcxMjggQzU2LjM1OTE3MTYyIDAuMDAyMzgyMSA1OC4xMzkwNTk3NSAwLjAwMTU1MzUzIDU5LjkxODk0NTMxIC0wLjAwMDc2Njc1IEM2Mi40MDIxMjIxNiAtMC4wMDMyOTMwOSA2NC44ODUyMDc2OCAwLjAwMDU0NzAyIDY3LjM2ODM3NzY5IDAuMDA2MTM0MDMgQzY4LjExMTI3MDQ1IDAuMDA0MTA5OCA2OC44NTQxNjMyMSAwLjAwMjA4NTU3IDY5LjYxOTU2Nzg3IDAgQzc0LjY5NTUyMTMyIDAuMDIxMjY1OTUgNzQuNjk1NTIxMzIgMC4wMjEyNjU5NSA3NS44MDk3ODM5NCAxLjEzNTUyODU2IEM3NS45MTAxMjI2IDMuNjI1MDY1NTMgNzUuOTQ1OTYzMzYgNi4wODY4NzgxIDc1LjkzOTE3ODQ3IDguNTc2OTM0ODEgQzc1Ljk0MTgwNjk1IDkuNzQ1MTcyODggNzUuOTQxODA2OTUgOS43NDUxNzI4OCA3NS45NDQ0ODg1MyAxMC45MzcwMTE3MiBDNzUuOTQ4OTA3NDMgMTMuNTI0MDM5NjggNzUuOTQ1OTY4OTMgMTYuMTEwOTk5ODUgNzUuOTQyNTk2NDQgMTguNjk4MDI4NTYgQzc1Ljk0MzI2OTQ2IDIwLjQ4NzgyMzYyIDc1Ljk0NDIzOTQ4IDIyLjI3NzYxODU5IDc1Ljk0NTQ5NTYxIDI0LjA2NzQxMzMzIEM3NS45NDY5NzI2MyAyNy44MjM1MjU2NyA3NS45NDQ4MTc4OCAzMS41Nzk2MTQyOCA3NS45NDAxNTUwMyAzNS4zMzU3MjM4OCBDNzUuOTM0NDU3NzQgNDAuMTYxNTMzNSA3NS45Mzc3MzY3MiA0NC45ODcyODc1MSA3NS45NDM3Mjc0OSA0OS44MTMwOTUwOSBDNzUuOTQ3MzMyOTggNTMuNTEwNDEwNzkgNzUuOTQ2MTk0NTggNTcuMjA3NzEzMjEgNzUuOTQzNTk5NyA2MC45MDUwMjkzIEM3NS45NDI5MzA0IDYyLjY4NDkxNjI0IDc1Ljk0Mzc1ODk3IDY0LjQ2NDgwNDM4IDc1Ljk0NjA3OTI1IDY2LjI0NDY4OTk0IEM3NS45NDg2MDU1OSA2OC43Mjc4NjY3OSA3NS45NDQ3NjU0OCA3MS4yMTA5NTIzMSA3NS45MzkxNzg0NyA3My42OTQxMjIzMSBDNzUuOTQxMjAyNyA3NC40MzcwMTUwOCA3NS45NDMyMjY5MyA3NS4xNzk5MDc4NCA3NS45NDUzMTI1IDc1Ljk0NTMxMjUgQzc1LjkyNDA0NjU1IDgxLjAyMTI2NTk1IDc1LjkyNDA0NjU1IDgxLjAyMTI2NTk1IDc0LjgwOTc4Mzk0IDgyLjEzNTUyODU2IEM3Mi4zMjAyNDY5NyA4Mi4yMzU4NjcyMyA2OS44NTg0MzQ0IDgyLjI3MTcwNzk5IDY3LjM2ODM3NzY5IDgyLjI2NDkyMzEgQzY2LjU4OTU1MjMxIDgyLjI2NjY3NTQyIDY1LjgxMDcyNjkzIDgyLjI2ODQyNzczIDY1LjAwODMwMDc4IDgyLjI3MDIzMzE1IEM2Mi40MjEyNzI4MiA4Mi4yNzQ2NTIwNiA1OS44MzQzMTI2NSA4Mi4yNzE3MTM1NSA1Ny4yNDcyODM5NCA4Mi4yNjgzNDEwNiBDNTUuNDU3NDg4ODggODIuMjY5MDE0MDkgNTMuNjY3NjkzOTEgODIuMjY5OTg0MTEgNTEuODc3ODk5MTcgODIuMjcxMjQwMjMgQzQ4LjEyMTc4NjgzIDgyLjI3MjcxNzI2IDQ0LjM2NTY5ODIyIDgyLjI3MDU2MjUxIDQwLjYwOTU4ODYyIDgyLjI2NTg5OTY2IEMzNS43ODM3NzkgODIuMjYwMjAyMzcgMzAuOTU4MDI0OTkgODIuMjYzNDgxMzUgMjYuMTMyMjE3NDEgODIuMjY5NDcyMTIgQzIyLjQzNDkwMTcxIDgyLjI3MzA3NzYxIDE4LjczNzU5OTI5IDgyLjI3MTkzOTIxIDE1LjA0MDI4MzIgODIuMjY5MzQ0MzMgQzEzLjI2MDM5NjI2IDgyLjI2ODY3NTAzIDExLjQ4MDUwODEyIDgyLjI2OTUwMzYgOS43MDA2MjI1NiA4Mi4yNzE4MjM4OCBDNy4yMTc0NDU3MSA4Mi4yNzQzNTAyMSA0LjczNDM2MDE5IDgyLjI3MDUxMDExIDIuMjUxMTkwMTkgODIuMjY0OTIzMSBDMS4xMzY4NTEwNCA4Mi4yNjc5NTk0NCAxLjEzNjg1MTA0IDgyLjI2Nzk1OTQ0IDAgODIuMjcxMDU3MTMgQy01LjA3NTk1MzQ1IDgyLjI0OTc5MTE4IC01LjA3NTk1MzQ1IDgyLjI0OTc5MTE4IC02LjE5MDIxNjA2IDgxLjEzNTUyODU2IEMtNi4yOTA1NTQ3MyA3OC42NDU5OTE2IC02LjMyNjM5NTQ5IDc2LjE4NDE3OTAzIC02LjMxOTYxMDYgNzMuNjk0MTIyMzEgQy02LjMyMTM2MjkyIDcyLjkxNTI5Njk0IC02LjMyMzExNTIzIDcyLjEzNjQ3MTU2IC02LjMyNDkyMDY1IDcxLjMzNDA0NTQxIEMtNi4zMjkzMzk1NiA2OC43NDcwMTc0NSAtNi4zMjY0MDEwNSA2Ni4xNjAwNTcyOCAtNi4zMjMwMjg1NiA2My41NzMwMjg1NiBDLTYuMzIzNzAxNTkgNjEuNzgzMjMzNTEgLTYuMzI0NjcxNjEgNTkuOTkzNDM4NTQgLTYuMzI1OTI3NzMgNTguMjAzNjQzOCBDLTYuMzI3NDA0NzYgNTQuNDQ3NTMxNDUgLTYuMzI1MjUwMDEgNTAuNjkxNDQyODQgLTYuMzIwNTg3MTYgNDYuOTM1MzMzMjUgQy02LjMxNDg4OTg3IDQyLjEwOTUyMzYzIC02LjMxODE2ODg1IDM3LjI4Mzc2OTYyIC02LjMyNDE1OTYyIDMyLjQ1Nzk2MjA0IEMtNi4zMjc3NjUxMSAyOC43NjA2NDYzNCAtNi4zMjY2MjY3MSAyNS4wNjMzNDM5MiAtNi4zMjQwMzE4MyAyMS4zNjYwMjc4MyBDLTYuMzIzMzYyNTMgMTkuNTg2MTQwODggLTYuMzI0MTkxMSAxNy44MDYyNTI3NSAtNi4zMjY1MTEzOCAxNi4wMjYzNjcxOSBDLTYuMzI5MDM3NzEgMTMuNTQzMTkwMzQgLTYuMzI1MTk3NjEgMTEuMDYwMTA0ODIgLTYuMzE5NjEwNiA4LjU3NjkzNDgxIEMtNi4zMjE2MzQ4MyA3LjgzNDA0MjA1IC02LjMyMzY1OTA2IDcuMDkxMTQ5MjkgLTYuMzI1NzQ0NjMgNi4zMjU3NDQ2MyBDLTYuMzAwNDgwMTcgMC4yOTUzODkxMyAtNi4wMzAzNTU1IDAuMDI1MjY0NDYgMCAwIFogTTAuODA5NzgzOTQgNy4xMzU1Mjg1NiBDMC44MDk3ODM5NCAyOS41NzU1Mjg1NiAwLjgwOTc4Mzk0IDUyLjAxNTUyODU2IDAuODA5NzgzOTQgNzUuMTM1NTI4NTYgQzIzLjI0OTc4Mzk0IDc1LjEzNTUyODU2IDQ1LjY4OTc4Mzk0IDc1LjEzNTUyODU2IDY4LjgwOTc4Mzk0IDc1LjEzNTUyODU2IEM2OC44MDk3ODM5NCA1Mi42OTU1Mjg1NiA2OC44MDk3ODM5NCAzMC4yNTU1Mjg1NiA2OC44MDk3ODM5NCA3LjEzNTUyODU2IEM0Ni4zNjk3ODM5NCA3LjEzNTUyODU2IDIzLjkyOTc4Mzk0IDcuMTM1NTI4NTYgMC44MDk3ODM5NCA3LjEzNTUyODU2IFogIiB0cmFuc2Zvcm09InRyYW5zbGF0ZSgyOS4xOTAyMTYwNjQ0NTMxMjUsMjIuODY0NDcxNDM1NTQ2ODc1KSIgaWQ9InBhdGgyIiBjbGFzcz0icGF0aDIiLz4mI3hhOzwvc3ZnPg==;direction=south;" vertex="1" parent="1">
          <mxGeometry x="80" y="1280" width="80" height="80" as="geometry" />
        </mxCell>
      </root>
    </mxGraphModel>
  </diagram>
  <diagram id="w9F6ydWzzVbicOWZGei3" name="Page-2">
    <mxGraphModel dx="1989" dy="659" grid="1" gridSize="10" guides="1" tooltips="1" connect="1" arrows="1" fold="1" page="0" pageScale="1" pageWidth="850" pageHeight="1100" background="#111827" math="0" shadow="0">
      <root>
        <mxCell id="0" />
        <mxCell id="1" parent="0" />
        <mxCell id="w3d3HwJF83mIlRjUdbyV-1" value="" style="shape=image;aspect=fixed;editableCssRules=.*;image=data:image/svg+xml,PHN2ZyB4bWxucz0iaHR0cDovL3d3dy53My5vcmcvMjAwMC9zdmciIHhtbG5zOnhsaW5rPSJodHRwOi8vd3d3LnczLm9yZy8xOTk5L3hsaW5rIiB2ZXJzaW9uPSIxLjEiIHZpZXdCb3g9IjAgMCAxMjggMTI4Ij4mI3hhOzxzdHlsZSB0eXBlPSJ0ZXh0L2NzcyI+LnBhdGgxIHsgZmlsbDogbGlnaHQtZGFyayhyZ2IoNzQsIDIyMiwgMTI4KSwgcmdiKDI1NSwgMTE2LCAxMTYpKTsgfSAucGF0aDIgeyBmaWxsOiBsaWdodC1kYXJrKHJnYig3NCwgMjIyLCAxMjgpLCByZ2IoMjU1LCAxMTYsIDExNikpOyB9IDwvc3R5bGU+JiN4YTs8cGF0aCBkPSJNMCAwIEMxLjk4IDAgMy45NiAwIDYgMCBDNiAzLjYzIDYgNy4yNiA2IDExIEM5LjYzIDExIDEzLjI2IDExIDE3IDExIEMxNi45NzkzNzUgOS4zNzA2MjUgMTYuOTU4NzUgNy43NDEyNSAxNi45Mzc1IDYuMDYyNSBDMTYuOTE2MTM5MzIgNC4zNzUwMDY1OSAxNi45Mjc5NDQ4OSAyLjY4NjA4OTY2IDE3IDEgQzE4IDAgMTggMCAyMC41IC0wLjEyNSBDMjMgMCAyMyAwIDI0IDEgQzI0LjE0MjU3MTg5IDQuMzM2MTgyMzEgMjQuMDQyMjgxNTcgNy42NTk3NTYwNiAyNCAxMSBDMjcuNjMgMTEgMzEuMjYgMTEgMzUgMTEgQzM1IDcuMzcgMzUgMy43NCAzNSAwIEMzNi45OCAwIDM4Ljk2IDAgNDEgMCBDNDEgMy42MyA0MSA3LjI2IDQxIDExIEM0NC42MyAxMSA0OC4yNiAxMSA1MiAxMSBDNTEuOTc5Mzc1IDkuMzcwNjI1IDUxLjk1ODc1IDcuNzQxMjUgNTEuOTM3NSA2LjA2MjUgQzUxLjkxNjEzOTMyIDQuMzc1MDA2NTkgNTEuOTI3OTQ0ODkgMi42ODYwODk2NiA1MiAxIEM1MyAwIDUzIDAgNTUuNSAtMC4xMjUgQzU4IC0wIDU4IC0wIDU5IDEgQzU5LjE0MjU3MTg5IDQuMzM2MTgyMzEgNTkuMDQyMjgxNTcgNy42NTk3NTYwNiA1OSAxMSBDNjIuNjMgMTEgNjYuMjYgMTEgNzAgMTEgQzcwIDcuMzcgNzAgMy43NCA3MCAwIEM3MS45OCAwIDczLjk2IDAgNzYgMCBDNzYgMy42MyA3NiA3LjI2IDc2IDExIEM3Ny4yOTkzNzUgMTAuODc2MjUgNzcuMjk5Mzc1IDEwLjg3NjI1IDc4LjYyNSAxMC43NSBDODIuODcyODYxMzggMTEuMDY0NjU2NCA4NC43MzIxMDQyIDEyLjMxMzA2MzQ1IDg4IDE1IEM5MC45MjY3NTk4NyAxOC43MDcyMjkxNyA5MS4zMjU5OTQ4IDIxLjMyNzQwNzgxIDkxIDI2IEM5NC42MyAyNiA5OC4yNiAyNiAxMDIgMjYgQzEwMiAyNy45OCAxMDIgMjkuOTYgMTAyIDMyIEM5OC4zNyAzMiA5NC43NCAzMiA5MSAzMiBDOTEgMzUuNjMgOTEgMzkuMjYgOTEgNDMgQzkyLjYyOTM3NSA0Mi45NzkzNzUgOTQuMjU4NzUgNDIuOTU4NzUgOTUuOTM3NSA0Mi45Mzc1IEM5Ny42MjQ5OTM0MSA0Mi45MTYxMzkzMiA5OS4zMTM5MTAzNCA0Mi45Mjc5NDQ4OSAxMDEgNDMgQzEwMiA0NCAxMDIgNDQgMTAyLjEyNSA0Ni41IEMxMDIgNDkgMTAyIDQ5IDEwMSA1MCBDOTcuNjYzODE3NjkgNTAuMTQyNTcxODkgOTQuMzQwMjQzOTQgNTAuMDQyMjgxNTcgOTEgNTAgQzkxIDUzLjYzIDkxIDU3LjI2IDkxIDYxIEM5NC42MyA2MSA5OC4yNiA2MSAxMDIgNjEgQzEwMiA2Mi45OCAxMDIgNjQuOTYgMTAyIDY3IEM5OC4zNyA2NyA5NC43NCA2NyA5MSA2NyBDOTEgNzAuNjMgOTEgNzQuMjYgOTEgNzggQzkyLjYyOTM3NSA3Ny45NzkzNzUgOTQuMjU4NzUgNzcuOTU4NzUgOTUuOTM3NSA3Ny45Mzc1IEM5Ny42MjQ5OTM0MSA3Ny45MTYxMzkzMiA5OS4zMTM5MTAzNCA3Ny45Mjc5NDQ4OSAxMDEgNzggQzEwMiA3OSAxMDIgNzkgMTAyLjEyNSA4MS41IEMxMDIgODQgMTAyIDg0IDEwMSA4NSBDOTcuNjYzODE3NjkgODUuMTQyNTcxODkgOTQuMzQwMjQzOTQgODUuMDQyMjgxNTcgOTEgODUgQzkxIDg4LjYzIDkxIDkyLjI2IDkxIDk2IEM5NC42MyA5NiA5OC4yNiA5NiAxMDIgOTYgQzEwMiA5Ny45OCAxMDIgOTkuOTYgMTAyIDEwMiBDOTguMzcgMTAyIDk0Ljc0IDEwMiA5MSAxMDIgQzkxLjA4MjUgMTAyLjg2NjI1IDkxLjE2NSAxMDMuNzMyNSA5MS4yNSAxMDQuNjI1IEM5MC45MzUzNDM2IDEwOC44NzI4NjEzOCA4OS42ODY5MzY1NSAxMTAuNzMyMTA0MiA4NyAxMTQgQzgzLjI5Mjc3MDgzIDExNi45MjY3NTk4NyA4MC42NzI1OTIxOSAxMTcuMzI1OTk0OCA3NiAxMTcgQzc2IDEyMC42MyA3NiAxMjQuMjYgNzYgMTI4IEM3NC4wMiAxMjggNzIuMDQgMTI4IDcwIDEyOCBDNzAgMTI0LjM3IDcwIDEyMC43NCA3MCAxMTcgQzY2LjM3IDExNyA2Mi43NCAxMTcgNTkgMTE3IEM1OS4wMjA2MjUgMTE4LjYyOTM3NSA1OS4wNDEyNSAxMjAuMjU4NzUgNTkuMDYyNSAxMjEuOTM3NSBDNTkuMDgzODYwNjggMTIzLjYyNDk5MzQxIDU5LjA3MjA1NTExIDEyNS4zMTM5MTAzNCA1OSAxMjcgQzU4IDEyOCA1OCAxMjggNTUuNSAxMjguMTI1IEM1MyAxMjggNTMgMTI4IDUyIDEyNyBDNTEuODU3NDI4MTEgMTIzLjY2MzgxNzY5IDUxLjk1NzcxODQzIDEyMC4zNDAyNDM5NCA1MiAxMTcgQzQ4LjM3IDExNyA0NC43NCAxMTcgNDEgMTE3IEM0MSAxMjAuNjMgNDEgMTI0LjI2IDQxIDEyOCBDMzkuMDIgMTI4IDM3LjA0IDEyOCAzNSAxMjggQzM1IDEyNC4zNyAzNSAxMjAuNzQgMzUgMTE3IEMzMS4zNyAxMTcgMjcuNzQgMTE3IDI0IDExNyBDMjQuMDIwNjI1IDExOC42MjkzNzUgMjQuMDQxMjUgMTIwLjI1ODc1IDI0LjA2MjUgMTIxLjkzNzUgQzI0LjA4Mzg2MDY4IDEyMy42MjQ5OTM0MSAyNC4wNzIwNTUxMSAxMjUuMzEzOTEwMzQgMjQgMTI3IEMyMyAxMjggMjMgMTI4IDIwLjUgMTI4LjEyNSBDMTggMTI4IDE4IDEyOCAxNyAxMjcgQzE2Ljg1NzQyODExIDEyMy42NjM4MTc2OSAxNi45NTc3MTg0MyAxMjAuMzQwMjQzOTQgMTcgMTE3IEMxMy4zNyAxMTcgOS43NCAxMTcgNiAxMTcgQzYgMTIwLjYzIDYgMTI0LjI2IDYgMTI4IEM0LjAyIDEyOCAyLjA0IDEyOCAwIDEyOCBDMCAxMjQuMzcgMCAxMjAuNzQgMCAxMTcgQy0wLjg2NjI1IDExNy4wODI1IC0xLjczMjUgMTE3LjE2NSAtMi42MjUgMTE3LjI1IEMtNi44NzI4NjEzOCAxMTYuOTM1MzQzNiAtOC43MzIxMDQyIDExNS42ODY5MzY1NSAtMTIgMTEzIEMtMTQuOTI2NzU5ODcgMTA5LjI5Mjc3MDgzIC0xNS4zMjU5OTQ4IDEwNi42NzI1OTIxOSAtMTUgMTAyIEMtMTguNjMgMTAyIC0yMi4yNiAxMDIgLTI2IDEwMiBDLTI2IDEwMC4wMiAtMjYgOTguMDQgLTI2IDk2IEMtMjIuMzcgOTYgLTE4Ljc0IDk2IC0xNSA5NiBDLTE1IDkyLjM3IC0xNSA4OC43NCAtMTUgODUgQy0xNy40NDQwNjI1IDg1LjAzMDkzNzUgLTE3LjQ0NDA2MjUgODUuMDMwOTM3NSAtMTkuOTM3NSA4NS4wNjI1IEMtMjEuNjI0OTkzNDEgODUuMDgzODYwNjggLTIzLjMxMzkxMDM0IDg1LjA3MjA1NTExIC0yNSA4NSBDLTI2IDg0IC0yNiA4NCAtMjYuMTI1IDgxLjUgQy0yNiA3OSAtMjYgNzkgLTI1IDc4IEMtMjEuNjYzODE3NjkgNzcuODU3NDI4MTEgLTE4LjM0MDI0Mzk0IDc3Ljk1NzcxODQzIC0xNSA3OCBDLTE1IDc0LjM3IC0xNSA3MC43NCAtMTUgNjcgQy0xOC42MyA2NyAtMjIuMjYgNjcgLTI2IDY3IEMtMjYgNjUuMDIgLTI2IDYzLjA0IC0yNiA2MSBDLTIyLjM3IDYxIC0xOC43NCA2MSAtMTUgNjEgQy0xNSA1Ny4zNyAtMTUgNTMuNzQgLTE1IDUwIEMtMTcuNDQ0MDYyNSA1MC4wMzA5Mzc1IC0xNy40NDQwNjI1IDUwLjAzMDkzNzUgLTE5LjkzNzUgNTAuMDYyNSBDLTIxLjYyNDk5MzQxIDUwLjA4Mzg2MDY4IC0yMy4zMTM5MTAzNCA1MC4wNzIwNTUxMSAtMjUgNTAgQy0yNiA0OSAtMjYgNDkgLTI2LjEyNSA0Ni41IEMtMjYgNDQgLTI2IDQ0IC0yNSA0MyBDLTIxLjY2MzgxNzY5IDQyLjg1NzQyODExIC0xOC4zNDAyNDM5NCA0Mi45NTc3MTg0MyAtMTUgNDMgQy0xNSAzOS4zNyAtMTUgMzUuNzQgLTE1IDMyIEMtMTguNjMgMzIgLTIyLjI2IDMyIC0yNiAzMiBDLTI2IDMwLjAyIC0yNiAyOC4wNCAtMjYgMjYgQy0yMi4zNyAyNiAtMTguNzQgMjYgLTE1IDI2IEMtMTQuOTU4NzUgMjQuNjE4MTI1IC0xNC45MTc1IDIzLjIzNjI1IC0xNC44NzUgMjEuODEyNSBDLTE0LjQ4ODc2MDkgMTguMTUxODc1NjYgLTEzLjkyNDYxNDg0IDE2LjM2MDcyMjQ2IC0xMS4wNjI1IDE0IEMtNi44ODY5OTEzNiAxMS4yNzMxMzcyMiAtNC45Njc5OTc4MiAxMC44OTIwMDAwNSAwIDExIEMwIDcuMzcgMCAzLjc0IDAgMCBaIE0tNi45ODc0NTcyOCAxOS4wMTI1NDI3MiBDLTguNjQzODI3OTkgMjIuMjYzNzMwMDEgLTguNDE1NjM4MjYgMjUuNjIxOTQ0MTQgLTguMzg4MTgzNTkgMjkuMTg3NSBDLTguMzkzNDQwNTUgMzAuMDIxOTI2MjcgLTguMzk4Njk3NTEgMzAuODU2MzUyNTQgLTguNDA0MTEzNzcgMzEuNzE2MDY0NDUgQy04LjQxNzMzMDQ5IDM0LjQ3NzU2NjA1IC04LjQwODU2OTg2IDM3LjIzODQ5MjQyIC04LjM5ODQzNzUgNDAgQy04LjQwMDQ1Nzc2IDQxLjkxNjY2Nzc5IC04LjQwMzM2ODc5IDQzLjgzMzMzNDg0IC04LjQwNzEzNTAxIDQ1Ljc1IEMtOC40MTE1NjA2MyA0OS43NjgzMDM1NiAtOC40MDUxMTk2NSA1My43ODY0MDcxNiAtOC4zOTExMTMyOCA1Ny44MDQ2ODc1IEMtOC4zNzQwMjEyOCA2Mi45NTk5NjAwOCAtOC4zODM4NjExOSA2OC4xMTQ3NjQxNCAtOC40MDE4MzA2NyA3My4yNzAwMTk1MyBDLTguNDEyNjYyMDggNzcuMjI4MjI2MTMgLTguNDA5MjI1MTIgODEuMTg2MzIxMzMgLTguNDAxNDQ3MyA4NS4xNDQ1MzEyNSBDLTguMzk5NDQzNTEgODcuMDQ1NTczNDggLTguNDAxOTEwOCA4OC45NDY2MjU3NiAtOC40MDg4ODU5NiA5MC44NDc2NTYyNSBDLTguNDE2NDg5ODcgOTMuNTAyODc3NCAtOC40MDQ5MTEzNiA5Ni4xNTczMzU3OCAtOC4zODgxODM1OSA5OC44MTI1IEMtOC4zOTQyNTYyOSA5OS42MDExNjQ1NSAtOC40MDAzMjg5OCAxMDAuMzg5ODI5MSAtOC40MDY1ODU2OSAxMDEuMjAyMzkyNTggQy04LjM3MzI0NDQxIDEwNC4wNTM1NDg2NyAtOC4yOTYyNTE0OCAxMDYuNDE4NTA2MzYgLTYuOTg3NDU3MjggMTA4Ljk4NzQ1NzI4IEMtMy43MzYyNjk5OSAxMTAuNjQzODI3OTkgLTAuMzc4MDU1ODYgMTEwLjQxNTYzODI2IDMuMTg3NSAxMTAuMzg4MTgzNTkgQzQuMDIxOTI2MjcgMTEwLjM5MzQ0MDU1IDQuODU2MzUyNTQgMTEwLjM5ODY5NzUxIDUuNzE2MDY0NDUgMTEwLjQwNDExMzc3IEM4LjQ3NzU2NjA1IDExMC40MTczMzA0OSAxMS4yMzg0OTI0MiAxMTAuNDA4NTY5ODYgMTQgMTEwLjM5ODQzNzUgQzE1LjkxNjY2Nzc5IDExMC40MDA0NTc3NiAxNy44MzMzMzQ4NCAxMTAuNDAzMzY4NzkgMTkuNzUgMTEwLjQwNzEzNTAxIEMyMy43NjgzMDM1NiAxMTAuNDExNTYwNjMgMjcuNzg2NDA3MTYgMTEwLjQwNTExOTY1IDMxLjgwNDY4NzUgMTEwLjM5MTExMzI4IEMzNi45NTk5NjAwOCAxMTAuMzc0MDIxMjggNDIuMTE0NzY0MTQgMTEwLjM4Mzg2MTE5IDQ3LjI3MDAxOTUzIDExMC40MDE4MzA2NyBDNTEuMjI4MjI2MTMgMTEwLjQxMjY2MjA4IDU1LjE4NjMyMTMzIDExMC40MDkyMjUxMiA1OS4xNDQ1MzEyNSAxMTAuNDAxNDQ3MyBDNjEuMDQ1NTczNDggMTEwLjM5OTQ0MzUxIDYyLjk0NjYyNTc2IDExMC40MDE5MTA4IDY0Ljg0NzY1NjI1IDExMC40MDg4ODU5NiBDNjcuNTAyODc3NCAxMTAuNDE2NDg5ODcgNzAuMTU3MzM1NzggMTEwLjQwNDkxMTM2IDcyLjgxMjUgMTEwLjM4ODE4MzU5IEM3My42MDExNjQ1NSAxMTAuMzk0MjU2MjkgNzQuMzg5ODI5MSAxMTAuNDAwMzI4OTggNzUuMjAyMzkyNTggMTEwLjQwNjU4NTY5IEM3OC4wNTM1NDg2NyAxMTAuMzczMjQ0NDEgODAuNDE4NTA2MzYgMTEwLjI5NjI1MTQ4IDgyLjk4NzQ1NzI4IDEwOC45ODc0NTcyOCBDODQuNjQzODI3OTkgMTA1LjczNjI2OTk5IDg0LjQxNTYzODI2IDEwMi4zNzgwNTU4NiA4NC4zODgxODM1OSA5OC44MTI1IEM4NC4zOTM0NDA1NSA5Ny45NzgwNzM3MyA4NC4zOTg2OTc1MSA5Ny4xNDM2NDc0NiA4NC40MDQxMTM3NyA5Ni4yODM5MzU1NSBDODQuNDE3MzMwNDkgOTMuNTIyNDMzOTUgODQuNDA4NTY5ODYgOTAuNzYxNTA3NTggODQuMzk4NDM3NSA4OCBDODQuNDAwNDU3NzYgODYuMDgzMzMyMjEgODQuNDAzMzY4NzkgODQuMTY2NjY1MTYgODQuNDA3MTM1MDEgODIuMjUgQzg0LjQxMTU2MDYzIDc4LjIzMTY5NjQ0IDg0LjQwNTExOTY1IDc0LjIxMzU5Mjg0IDg0LjM5MTExMzI4IDcwLjE5NTMxMjUgQzg0LjM3NDAyMTI4IDY1LjA0MDAzOTkyIDg0LjM4Mzg2MTE5IDU5Ljg4NTIzNTg2IDg0LjQwMTgzMDY3IDU0LjcyOTk4MDQ3IEM4NC40MTI2NjIwOCA1MC43NzE3NzM4NyA4NC40MDkyMjUxMiA0Ni44MTM2Nzg2NyA4NC40MDE0NDczIDQyLjg1NTQ2ODc1IEM4NC4zOTk0NDM1MSA0MC45NTQ0MjY1MiA4NC40MDE5MTA4IDM5LjA1MzM3NDI0IDg0LjQwODg4NTk2IDM3LjE1MjM0Mzc1IEM4NC40MTY0ODk4NyAzNC40OTcxMjI2IDg0LjQwNDkxMTM2IDMxLjg0MjY2NDIyIDg0LjM4ODE4MzU5IDI5LjE4NzUgQzg0LjM5NDI1NjI5IDI4LjM5ODgzNTQ1IDg0LjQwMDMyODk4IDI3LjYxMDE3MDkgODQuNDA2NTg1NjkgMjYuNzk3NjA3NDIgQzg0LjM3MzI0NDQxIDIzLjk0NjQ1MTMzIDg0LjI5NjI1MTQ4IDIxLjU4MTQ5MzY0IDgyLjk4NzQ1NzI4IDE5LjAxMjU0MjcyIEM3OS43MzYyNjk5OSAxNy4zNTYxNzIwMSA3Ni4zNzgwNTU4NiAxNy41ODQzNjE3NCA3Mi44MTI1IDE3LjYxMTgxNjQxIEM3MS45NzgwNzM3MyAxNy42MDY1NTk0NSA3MS4xNDM2NDc0NiAxNy42MDEzMDI0OSA3MC4yODM5MzU1NSAxNy41OTU4ODYyMyBDNjcuNTIyNDMzOTUgMTcuNTgyNjY5NTEgNjQuNzYxNTA3NTggMTcuNTkxNDMwMTQgNjIgMTcuNjAxNTYyNSBDNjAuMDgzMzMyMjEgMTcuNTk5NTQyMjQgNTguMTY2NjY1MTYgMTcuNTk2NjMxMjEgNTYuMjUgMTcuNTkyODY0OTkgQzUyLjIzMTY5NjQ0IDE3LjU4ODQzOTM3IDQ4LjIxMzU5Mjg0IDE3LjU5NDg4MDM1IDQ0LjE5NTMxMjUgMTcuNjA4ODg2NzIgQzM5LjA0MDAzOTkyIDE3LjYyNTk3ODcyIDMzLjg4NTIzNTg2IDE3LjYxNjEzODgxIDI4LjcyOTk4MDQ3IDE3LjU5ODE2OTMzIEMyNC43NzE3NzM4NyAxNy41ODczMzc5MiAyMC44MTM2Nzg2NyAxNy41OTA3NzQ4OCAxNi44NTU0Njg3NSAxNy41OTg1NTI3IEMxNC45NTQ0MjY1MiAxNy42MDA1NTY0OSAxMy4wNTMzNzQyNCAxNy41OTgwODkyIDExLjE1MjM0Mzc1IDE3LjU5MTExNDA0IEM4LjQ5NzEyMjYgMTcuNTgzNTEwMTMgNS44NDI2NjQyMiAxNy41OTUwODg2NCAzLjE4NzUgMTcuNjExODE2NDEgQzIuMzk4ODM1NDUgMTcuNjA1NzQzNzEgMS42MTAxNzA5IDE3LjU5OTY3MTAyIDAuNzk3NjA3NDIgMTcuNTkzNDE0MzEgQy0yLjA1MzU0ODY3IDE3LjYyNjc1NTU5IC00LjQxODUwNjM2IDE3LjcwMzc0ODUyIC02Ljk4NzQ1NzI4IDE5LjAxMjU0MjcyIFogIiB0cmFuc2Zvcm09InRyYW5zbGF0ZSgyNiwwKSIgaWQ9InBhdGgxIiBjbGFzcz0icGF0aDEiLz48cGF0aCBkPSJNMCAwIEMxLjExNDMzOTE0IDAuMDAzMDM2MzUgMS4xMTQzMzkxNCAwLjAwMzAzNjM1IDIuMjUxMTkwMTkgMC4wMDYxMzQwMyBDMy40MTk0MjgyNSAwLjAwMzUwNTU1IDMuNDE5NDI4MjUgMC4wMDM1MDU1NSA0LjYxMTI2NzA5IDAuMDAwODIzOTcgQzcuMTk4Mjk1MDUgLTAuMDAzNTk0OTMgOS43ODUyNTUyMiAtMC4wMDA2NTY0MyAxMi4zNzIyODM5NCAwLjAwMjcxNjA2IEMxNC4xNjIwNzg5OSAwLjAwMjA0MzA0IDE1Ljk1MTg3Mzk2IDAuMDAxMDczMDIgMTcuNzQxNjY4NyAtMC4wMDAxODMxMSBDMjEuNDk3NzgxMDUgLTAuMDAxNjYwMTMgMjUuMjUzODY5NjYgMC4wMDA0OTQ2MiAyOS4wMDk5NzkyNSAwLjAwNTE1NzQ3IEMzMy44MzU3ODg4NyAwLjAxMDg1NDc2IDM4LjY2MTU0Mjg4IDAuMDA3NTc1NzggNDMuNDg3MzUwNDYgMC4wMDE1ODUwMSBDNDcuMTg0NjY2MTYgLTAuMDAyMDIwNDggNTAuODgxOTY4NTggLTAuMDAwODgyMDggNTQuNTc5Mjg0NjcgMC4wMDE3MTI4IEM1Ni4zNTkxNzE2MiAwLjAwMjM4MjEgNTguMTM5MDU5NzUgMC4wMDE1NTM1MyA1OS45MTg5NDUzMSAtMC4wMDA3NjY3NSBDNjIuNDAyMTIyMTYgLTAuMDAzMjkzMDkgNjQuODg1MjA3NjggMC4wMDA1NDcwMiA2Ny4zNjgzNzc2OSAwLjAwNjEzNDAzIEM2OC4xMTEyNzA0NSAwLjAwNDEwOTggNjguODU0MTYzMjEgMC4wMDIwODU1NyA2OS42MTk1Njc4NyAwIEM3NC42OTU1MjEzMiAwLjAyMTI2NTk1IDc0LjY5NTUyMTMyIDAuMDIxMjY1OTUgNzUuODA5NzgzOTQgMS4xMzU1Mjg1NiBDNzUuOTEwMTIyNiAzLjYyNTA2NTUzIDc1Ljk0NTk2MzM2IDYuMDg2ODc4MSA3NS45MzkxNzg0NyA4LjU3NjkzNDgxIEM3NS45NDE4MDY5NSA5Ljc0NTE3Mjg4IDc1Ljk0MTgwNjk1IDkuNzQ1MTcyODggNzUuOTQ0NDg4NTMgMTAuOTM3MDExNzIgQzc1Ljk0ODkwNzQzIDEzLjUyNDAzOTY4IDc1Ljk0NTk2ODkzIDE2LjExMDk5OTg1IDc1Ljk0MjU5NjQ0IDE4LjY5ODAyODU2IEM3NS45NDMyNjk0NiAyMC40ODc4MjM2MiA3NS45NDQyMzk0OCAyMi4yNzc2MTg1OSA3NS45NDU0OTU2MSAyNC4wNjc0MTMzMyBDNzUuOTQ2OTcyNjMgMjcuODIzNTI1NjcgNzUuOTQ0ODE3ODggMzEuNTc5NjE0MjggNzUuOTQwMTU1MDMgMzUuMzM1NzIzODggQzc1LjkzNDQ1Nzc0IDQwLjE2MTUzMzUgNzUuOTM3NzM2NzIgNDQuOTg3Mjg3NTEgNzUuOTQzNzI3NDkgNDkuODEzMDk1MDkgQzc1Ljk0NzMzMjk4IDUzLjUxMDQxMDc5IDc1Ljk0NjE5NDU4IDU3LjIwNzcxMzIxIDc1Ljk0MzU5OTcgNjAuOTA1MDI5MyBDNzUuOTQyOTMwNCA2Mi42ODQ5MTYyNCA3NS45NDM3NTg5NyA2NC40NjQ4MDQzOCA3NS45NDYwNzkyNSA2Ni4yNDQ2ODk5NCBDNzUuOTQ4NjA1NTkgNjguNzI3ODY2NzkgNzUuOTQ0NzY1NDggNzEuMjEwOTUyMzEgNzUuOTM5MTc4NDcgNzMuNjk0MTIyMzEgQzc1Ljk0MTIwMjcgNzQuNDM3MDE1MDggNzUuOTQzMjI2OTMgNzUuMTc5OTA3ODQgNzUuOTQ1MzEyNSA3NS45NDUzMTI1IEM3NS45MjQwNDY1NSA4MS4wMjEyNjU5NSA3NS45MjQwNDY1NSA4MS4wMjEyNjU5NSA3NC44MDk3ODM5NCA4Mi4xMzU1Mjg1NiBDNzIuMzIwMjQ2OTcgODIuMjM1ODY3MjMgNjkuODU4NDM0NCA4Mi4yNzE3MDc5OSA2Ny4zNjgzNzc2OSA4Mi4yNjQ5MjMxIEM2Ni41ODk1NTIzMSA4Mi4yNjY2NzU0MiA2NS44MTA3MjY5MyA4Mi4yNjg0Mjc3MyA2NS4wMDgzMDA3OCA4Mi4yNzAyMzMxNSBDNjIuNDIxMjcyODIgODIuMjc0NjUyMDYgNTkuODM0MzEyNjUgODIuMjcxNzEzNTUgNTcuMjQ3MjgzOTQgODIuMjY4MzQxMDYgQzU1LjQ1NzQ4ODg4IDgyLjI2OTAxNDA5IDUzLjY2NzY5MzkxIDgyLjI2OTk4NDExIDUxLjg3Nzg5OTE3IDgyLjI3MTI0MDIzIEM0OC4xMjE3ODY4MyA4Mi4yNzI3MTcyNiA0NC4zNjU2OTgyMiA4Mi4yNzA1NjI1MSA0MC42MDk1ODg2MiA4Mi4yNjU4OTk2NiBDMzUuNzgzNzc5IDgyLjI2MDIwMjM3IDMwLjk1ODAyNDk5IDgyLjI2MzQ4MTM1IDI2LjEzMjIxNzQxIDgyLjI2OTQ3MjEyIEMyMi40MzQ5MDE3MSA4Mi4yNzMwNzc2MSAxOC43Mzc1OTkyOSA4Mi4yNzE5MzkyMSAxNS4wNDAyODMyIDgyLjI2OTM0NDMzIEMxMy4yNjAzOTYyNiA4Mi4yNjg2NzUwMyAxMS40ODA1MDgxMiA4Mi4yNjk1MDM2IDkuNzAwNjIyNTYgODIuMjcxODIzODggQzcuMjE3NDQ1NzEgODIuMjc0MzUwMjEgNC43MzQzNjAxOSA4Mi4yNzA1MTAxMSAyLjI1MTE5MDE5IDgyLjI2NDkyMzEgQzEuMTM2ODUxMDQgODIuMjY3OTU5NDQgMS4xMzY4NTEwNCA4Mi4yNjc5NTk0NCAwIDgyLjI3MTA1NzEzIEMtNS4wNzU5NTM0NSA4Mi4yNDk3OTExOCAtNS4wNzU5NTM0NSA4Mi4yNDk3OTExOCAtNi4xOTAyMTYwNiA4MS4xMzU1Mjg1NiBDLTYuMjkwNTU0NzMgNzguNjQ1OTkxNiAtNi4zMjYzOTU0OSA3Ni4xODQxNzkwMyAtNi4zMTk2MTA2IDczLjY5NDEyMjMxIEMtNi4zMjEzNjI5MiA3Mi45MTUyOTY5NCAtNi4zMjMxMTUyMyA3Mi4xMzY0NzE1NiAtNi4zMjQ5MjA2NSA3MS4zMzQwNDU0MSBDLTYuMzI5MzM5NTYgNjguNzQ3MDE3NDUgLTYuMzI2NDAxMDUgNjYuMTYwMDU3MjggLTYuMzIzMDI4NTYgNjMuNTczMDI4NTYgQy02LjMyMzcwMTU5IDYxLjc4MzIzMzUxIC02LjMyNDY3MTYxIDU5Ljk5MzQzODU0IC02LjMyNTkyNzczIDU4LjIwMzY0MzggQy02LjMyNzQwNDc2IDU0LjQ0NzUzMTQ1IC02LjMyNTI1MDAxIDUwLjY5MTQ0Mjg0IC02LjMyMDU4NzE2IDQ2LjkzNTMzMzI1IEMtNi4zMTQ4ODk4NyA0Mi4xMDk1MjM2MyAtNi4zMTgxNjg4NSAzNy4yODM3Njk2MiAtNi4zMjQxNTk2MiAzMi40NTc5NjIwNCBDLTYuMzI3NzY1MTEgMjguNzYwNjQ2MzQgLTYuMzI2NjI2NzEgMjUuMDYzMzQzOTIgLTYuMzI0MDMxODMgMjEuMzY2MDI3ODMgQy02LjMyMzM2MjUzIDE5LjU4NjE0MDg4IC02LjMyNDE5MTEgMTcuODA2MjUyNzUgLTYuMzI2NTExMzggMTYuMDI2MzY3MTkgQy02LjMyOTAzNzcxIDEzLjU0MzE5MDM0IC02LjMyNTE5NzYxIDExLjA2MDEwNDgyIC02LjMxOTYxMDYgOC41NzY5MzQ4MSBDLTYuMzIxNjM0ODMgNy44MzQwNDIwNSAtNi4zMjM2NTkwNiA3LjA5MTE0OTI5IC02LjMyNTc0NDYzIDYuMzI1NzQ0NjMgQy02LjMwMDQ4MDE3IDAuMjk1Mzg5MTMgLTYuMDMwMzU1NSAwLjAyNTI2NDQ2IDAgMCBaIE0wLjgwOTc4Mzk0IDcuMTM1NTI4NTYgQzAuODA5NzgzOTQgMjkuNTc1NTI4NTYgMC44MDk3ODM5NCA1Mi4wMTU1Mjg1NiAwLjgwOTc4Mzk0IDc1LjEzNTUyODU2IEMyMy4yNDk3ODM5NCA3NS4xMzU1Mjg1NiA0NS42ODk3ODM5NCA3NS4xMzU1Mjg1NiA2OC44MDk3ODM5NCA3NS4xMzU1Mjg1NiBDNjguODA5NzgzOTQgNTIuNjk1NTI4NTYgNjguODA5NzgzOTQgMzAuMjU1NTI4NTYgNjguODA5NzgzOTQgNy4xMzU1Mjg1NiBDNDYuMzY5NzgzOTQgNy4xMzU1Mjg1NiAyMy45Mjk3ODM5NCA3LjEzNTUyODU2IDAuODA5NzgzOTQgNy4xMzU1Mjg1NiBaICIgdHJhbnNmb3JtPSJ0cmFuc2xhdGUoMjkuMTkwMjE2MDY0NDUzMTI1LDIyLjg2NDQ3MTQzNTU0Njg3NSkiIGlkPSJwYXRoMiIgY2xhc3M9InBhdGgyIi8+JiN4YTs8L3N2Zz4=;direction=south;" vertex="1" parent="1">
          <mxGeometry x="80" y="520" width="80" height="80" as="geometry" />
        </mxCell>
        <mxCell id="w3d3HwJF83mIlRjUdbyV-2" value="" style="shape=image;aspect=fixed;editableCssRules=.*;image=data:image/svg+xml,PHN2ZyB4bWxucz0iaHR0cDovL3d3dy53My5vcmcvMjAwMC9zdmciIHhtbG5zOnhsaW5rPSJodHRwOi8vd3d3LnczLm9yZy8xOTk5L3hsaW5rIiB2ZXJzaW9uPSIxLjEiIHZpZXdCb3g9IjAgMCAxMjggMTI4Ij4mI3hhOzxzdHlsZSB0eXBlPSJ0ZXh0L2NzcyI+LnBhdGgxIHsgZmlsbDogbGlnaHQtZGFyayhyZ2IoNzQsIDIyMiwgMTI4KSwgcmdiKDI1NSwgMTE2LCAxMTYpKTsgfSAucGF0aDIgeyBmaWxsOiBsaWdodC1kYXJrKHJnYig3NCwgMjIyLCAxMjgpLCByZ2IoMjU1LCAxMTYsIDExNikpOyB9IDwvc3R5bGU+JiN4YTs8cGF0aCBkPSJNMCAwIEMxLjk4IDAgMy45NiAwIDYgMCBDNiAzLjYzIDYgNy4yNiA2IDExIEM5LjYzIDExIDEzLjI2IDExIDE3IDExIEMxNi45NzkzNzUgOS4zNzA2MjUgMTYuOTU4NzUgNy43NDEyNSAxNi45Mzc1IDYuMDYyNSBDMTYuOTE2MTM5MzIgNC4zNzUwMDY1OSAxNi45Mjc5NDQ4OSAyLjY4NjA4OTY2IDE3IDEgQzE4IDAgMTggMCAyMC41IC0wLjEyNSBDMjMgMCAyMyAwIDI0IDEgQzI0LjE0MjU3MTg5IDQuMzM2MTgyMzEgMjQuMDQyMjgxNTcgNy42NTk3NTYwNiAyNCAxMSBDMjcuNjMgMTEgMzEuMjYgMTEgMzUgMTEgQzM1IDcuMzcgMzUgMy43NCAzNSAwIEMzNi45OCAwIDM4Ljk2IDAgNDEgMCBDNDEgMy42MyA0MSA3LjI2IDQxIDExIEM0NC42MyAxMSA0OC4yNiAxMSA1MiAxMSBDNTEuOTc5Mzc1IDkuMzcwNjI1IDUxLjk1ODc1IDcuNzQxMjUgNTEuOTM3NSA2LjA2MjUgQzUxLjkxNjEzOTMyIDQuMzc1MDA2NTkgNTEuOTI3OTQ0ODkgMi42ODYwODk2NiA1MiAxIEM1MyAwIDUzIDAgNTUuNSAtMC4xMjUgQzU4IC0wIDU4IC0wIDU5IDEgQzU5LjE0MjU3MTg5IDQuMzM2MTgyMzEgNTkuMDQyMjgxNTcgNy42NTk3NTYwNiA1OSAxMSBDNjIuNjMgMTEgNjYuMjYgMTEgNzAgMTEgQzcwIDcuMzcgNzAgMy43NCA3MCAwIEM3MS45OCAwIDczLjk2IDAgNzYgMCBDNzYgMy42MyA3NiA3LjI2IDc2IDExIEM3Ny4yOTkzNzUgMTAuODc2MjUgNzcuMjk5Mzc1IDEwLjg3NjI1IDc4LjYyNSAxMC43NSBDODIuODcyODYxMzggMTEuMDY0NjU2NCA4NC43MzIxMDQyIDEyLjMxMzA2MzQ1IDg4IDE1IEM5MC45MjY3NTk4NyAxOC43MDcyMjkxNyA5MS4zMjU5OTQ4IDIxLjMyNzQwNzgxIDkxIDI2IEM5NC42MyAyNiA5OC4yNiAyNiAxMDIgMjYgQzEwMiAyNy45OCAxMDIgMjkuOTYgMTAyIDMyIEM5OC4zNyAzMiA5NC43NCAzMiA5MSAzMiBDOTEgMzUuNjMgOTEgMzkuMjYgOTEgNDMgQzkyLjYyOTM3NSA0Mi45NzkzNzUgOTQuMjU4NzUgNDIuOTU4NzUgOTUuOTM3NSA0Mi45Mzc1IEM5Ny42MjQ5OTM0MSA0Mi45MTYxMzkzMiA5OS4zMTM5MTAzNCA0Mi45Mjc5NDQ4OSAxMDEgNDMgQzEwMiA0NCAxMDIgNDQgMTAyLjEyNSA0Ni41IEMxMDIgNDkgMTAyIDQ5IDEwMSA1MCBDOTcuNjYzODE3NjkgNTAuMTQyNTcxODkgOTQuMzQwMjQzOTQgNTAuMDQyMjgxNTcgOTEgNTAgQzkxIDUzLjYzIDkxIDU3LjI2IDkxIDYxIEM5NC42MyA2MSA5OC4yNiA2MSAxMDIgNjEgQzEwMiA2Mi45OCAxMDIgNjQuOTYgMTAyIDY3IEM5OC4zNyA2NyA5NC43NCA2NyA5MSA2NyBDOTEgNzAuNjMgOTEgNzQuMjYgOTEgNzggQzkyLjYyOTM3NSA3Ny45NzkzNzUgOTQuMjU4NzUgNzcuOTU4NzUgOTUuOTM3NSA3Ny45Mzc1IEM5Ny42MjQ5OTM0MSA3Ny45MTYxMzkzMiA5OS4zMTM5MTAzNCA3Ny45Mjc5NDQ4OSAxMDEgNzggQzEwMiA3OSAxMDIgNzkgMTAyLjEyNSA4MS41IEMxMDIgODQgMTAyIDg0IDEwMSA4NSBDOTcuNjYzODE3NjkgODUuMTQyNTcxODkgOTQuMzQwMjQzOTQgODUuMDQyMjgxNTcgOTEgODUgQzkxIDg4LjYzIDkxIDkyLjI2IDkxIDk2IEM5NC42MyA5NiA5OC4yNiA5NiAxMDIgOTYgQzEwMiA5Ny45OCAxMDIgOTkuOTYgMTAyIDEwMiBDOTguMzcgMTAyIDk0Ljc0IDEwMiA5MSAxMDIgQzkxLjA4MjUgMTAyLjg2NjI1IDkxLjE2NSAxMDMuNzMyNSA5MS4yNSAxMDQuNjI1IEM5MC45MzUzNDM2IDEwOC44NzI4NjEzOCA4OS42ODY5MzY1NSAxMTAuNzMyMTA0MiA4NyAxMTQgQzgzLjI5Mjc3MDgzIDExNi45MjY3NTk4NyA4MC42NzI1OTIxOSAxMTcuMzI1OTk0OCA3NiAxMTcgQzc2IDEyMC42MyA3NiAxMjQuMjYgNzYgMTI4IEM3NC4wMiAxMjggNzIuMDQgMTI4IDcwIDEyOCBDNzAgMTI0LjM3IDcwIDEyMC43NCA3MCAxMTcgQzY2LjM3IDExNyA2Mi43NCAxMTcgNTkgMTE3IEM1OS4wMjA2MjUgMTE4LjYyOTM3NSA1OS4wNDEyNSAxMjAuMjU4NzUgNTkuMDYyNSAxMjEuOTM3NSBDNTkuMDgzODYwNjggMTIzLjYyNDk5MzQxIDU5LjA3MjA1NTExIDEyNS4zMTM5MTAzNCA1OSAxMjcgQzU4IDEyOCA1OCAxMjggNTUuNSAxMjguMTI1IEM1MyAxMjggNTMgMTI4IDUyIDEyNyBDNTEuODU3NDI4MTEgMTIzLjY2MzgxNzY5IDUxLjk1NzcxODQzIDEyMC4zNDAyNDM5NCA1MiAxMTcgQzQ4LjM3IDExNyA0NC43NCAxMTcgNDEgMTE3IEM0MSAxMjAuNjMgNDEgMTI0LjI2IDQxIDEyOCBDMzkuMDIgMTI4IDM3LjA0IDEyOCAzNSAxMjggQzM1IDEyNC4zNyAzNSAxMjAuNzQgMzUgMTE3IEMzMS4zNyAxMTcgMjcuNzQgMTE3IDI0IDExNyBDMjQuMDIwNjI1IDExOC42MjkzNzUgMjQuMDQxMjUgMTIwLjI1ODc1IDI0LjA2MjUgMTIxLjkzNzUgQzI0LjA4Mzg2MDY4IDEyMy42MjQ5OTM0MSAyNC4wNzIwNTUxMSAxMjUuMzEzOTEwMzQgMjQgMTI3IEMyMyAxMjggMjMgMTI4IDIwLjUgMTI4LjEyNSBDMTggMTI4IDE4IDEyOCAxNyAxMjcgQzE2Ljg1NzQyODExIDEyMy42NjM4MTc2OSAxNi45NTc3MTg0MyAxMjAuMzQwMjQzOTQgMTcgMTE3IEMxMy4zNyAxMTcgOS43NCAxMTcgNiAxMTcgQzYgMTIwLjYzIDYgMTI0LjI2IDYgMTI4IEM0LjAyIDEyOCAyLjA0IDEyOCAwIDEyOCBDMCAxMjQuMzcgMCAxMjAuNzQgMCAxMTcgQy0wLjg2NjI1IDExNy4wODI1IC0xLjczMjUgMTE3LjE2NSAtMi42MjUgMTE3LjI1IEMtNi44NzI4NjEzOCAxMTYuOTM1MzQzNiAtOC43MzIxMDQyIDExNS42ODY5MzY1NSAtMTIgMTEzIEMtMTQuOTI2NzU5ODcgMTA5LjI5Mjc3MDgzIC0xNS4zMjU5OTQ4IDEwNi42NzI1OTIxOSAtMTUgMTAyIEMtMTguNjMgMTAyIC0yMi4yNiAxMDIgLTI2IDEwMiBDLTI2IDEwMC4wMiAtMjYgOTguMDQgLTI2IDk2IEMtMjIuMzcgOTYgLTE4Ljc0IDk2IC0xNSA5NiBDLTE1IDkyLjM3IC0xNSA4OC43NCAtMTUgODUgQy0xNy40NDQwNjI1IDg1LjAzMDkzNzUgLTE3LjQ0NDA2MjUgODUuMDMwOTM3NSAtMTkuOTM3NSA4NS4wNjI1IEMtMjEuNjI0OTkzNDEgODUuMDgzODYwNjggLTIzLjMxMzkxMDM0IDg1LjA3MjA1NTExIC0yNSA4NSBDLTI2IDg0IC0yNiA4NCAtMjYuMTI1IDgxLjUgQy0yNiA3OSAtMjYgNzkgLTI1IDc4IEMtMjEuNjYzODE3NjkgNzcuODU3NDI4MTEgLTE4LjM0MDI0Mzk0IDc3Ljk1NzcxODQzIC0xNSA3OCBDLTE1IDc0LjM3IC0xNSA3MC43NCAtMTUgNjcgQy0xOC42MyA2NyAtMjIuMjYgNjcgLTI2IDY3IEMtMjYgNjUuMDIgLTI2IDYzLjA0IC0yNiA2MSBDLTIyLjM3IDYxIC0xOC43NCA2MSAtMTUgNjEgQy0xNSA1Ny4zNyAtMTUgNTMuNzQgLTE1IDUwIEMtMTcuNDQ0MDYyNSA1MC4wMzA5Mzc1IC0xNy40NDQwNjI1IDUwLjAzMDkzNzUgLTE5LjkzNzUgNTAuMDYyNSBDLTIxLjYyNDk5MzQxIDUwLjA4Mzg2MDY4IC0yMy4zMTM5MTAzNCA1MC4wNzIwNTUxMSAtMjUgNTAgQy0yNiA0OSAtMjYgNDkgLTI2LjEyNSA0Ni41IEMtMjYgNDQgLTI2IDQ0IC0yNSA0MyBDLTIxLjY2MzgxNzY5IDQyLjg1NzQyODExIC0xOC4zNDAyNDM5NCA0Mi45NTc3MTg0MyAtMTUgNDMgQy0xNSAzOS4zNyAtMTUgMzUuNzQgLTE1IDMyIEMtMTguNjMgMzIgLTIyLjI2IDMyIC0yNiAzMiBDLTI2IDMwLjAyIC0yNiAyOC4wNCAtMjYgMjYgQy0yMi4zNyAyNiAtMTguNzQgMjYgLTE1IDI2IEMtMTQuOTU4NzUgMjQuNjE4MTI1IC0xNC45MTc1IDIzLjIzNjI1IC0xNC44NzUgMjEuODEyNSBDLTE0LjQ4ODc2MDkgMTguMTUxODc1NjYgLTEzLjkyNDYxNDg0IDE2LjM2MDcyMjQ2IC0xMS4wNjI1IDE0IEMtNi44ODY5OTEzNiAxMS4yNzMxMzcyMiAtNC45Njc5OTc4MiAxMC44OTIwMDAwNSAwIDExIEMwIDcuMzcgMCAzLjc0IDAgMCBaIE0tNi45ODc0NTcyOCAxOS4wMTI1NDI3MiBDLTguNjQzODI3OTkgMjIuMjYzNzMwMDEgLTguNDE1NjM4MjYgMjUuNjIxOTQ0MTQgLTguMzg4MTgzNTkgMjkuMTg3NSBDLTguMzkzNDQwNTUgMzAuMDIxOTI2MjcgLTguMzk4Njk3NTEgMzAuODU2MzUyNTQgLTguNDA0MTEzNzcgMzEuNzE2MDY0NDUgQy04LjQxNzMzMDQ5IDM0LjQ3NzU2NjA1IC04LjQwODU2OTg2IDM3LjIzODQ5MjQyIC04LjM5ODQzNzUgNDAgQy04LjQwMDQ1Nzc2IDQxLjkxNjY2Nzc5IC04LjQwMzM2ODc5IDQzLjgzMzMzNDg0IC04LjQwNzEzNTAxIDQ1Ljc1IEMtOC40MTE1NjA2MyA0OS43NjgzMDM1NiAtOC40MDUxMTk2NSA1My43ODY0MDcxNiAtOC4zOTExMTMyOCA1Ny44MDQ2ODc1IEMtOC4zNzQwMjEyOCA2Mi45NTk5NjAwOCAtOC4zODM4NjExOSA2OC4xMTQ3NjQxNCAtOC40MDE4MzA2NyA3My4yNzAwMTk1MyBDLTguNDEyNjYyMDggNzcuMjI4MjI2MTMgLTguNDA5MjI1MTIgODEuMTg2MzIxMzMgLTguNDAxNDQ3MyA4NS4xNDQ1MzEyNSBDLTguMzk5NDQzNTEgODcuMDQ1NTczNDggLTguNDAxOTEwOCA4OC45NDY2MjU3NiAtOC40MDg4ODU5NiA5MC44NDc2NTYyNSBDLTguNDE2NDg5ODcgOTMuNTAyODc3NCAtOC40MDQ5MTEzNiA5Ni4xNTczMzU3OCAtOC4zODgxODM1OSA5OC44MTI1IEMtOC4zOTQyNTYyOSA5OS42MDExNjQ1NSAtOC40MDAzMjg5OCAxMDAuMzg5ODI5MSAtOC40MDY1ODU2OSAxMDEuMjAyMzkyNTggQy04LjM3MzI0NDQxIDEwNC4wNTM1NDg2NyAtOC4yOTYyNTE0OCAxMDYuNDE4NTA2MzYgLTYuOTg3NDU3MjggMTA4Ljk4NzQ1NzI4IEMtMy43MzYyNjk5OSAxMTAuNjQzODI3OTkgLTAuMzc4MDU1ODYgMTEwLjQxNTYzODI2IDMuMTg3NSAxMTAuMzg4MTgzNTkgQzQuMDIxOTI2MjcgMTEwLjM5MzQ0MDU1IDQuODU2MzUyNTQgMTEwLjM5ODY5NzUxIDUuNzE2MDY0NDUgMTEwLjQwNDExMzc3IEM4LjQ3NzU2NjA1IDExMC40MTczMzA0OSAxMS4yMzg0OTI0MiAxMTAuNDA4NTY5ODYgMTQgMTEwLjM5ODQzNzUgQzE1LjkxNjY2Nzc5IDExMC40MDA0NTc3NiAxNy44MzMzMzQ4NCAxMTAuNDAzMzY4NzkgMTkuNzUgMTEwLjQwNzEzNTAxIEMyMy43NjgzMDM1NiAxMTAuNDExNTYwNjMgMjcuNzg2NDA3MTYgMTEwLjQwNTExOTY1IDMxLjgwNDY4NzUgMTEwLjM5MTExMzI4IEMzNi45NTk5NjAwOCAxMTAuMzc0MDIxMjggNDIuMTE0NzY0MTQgMTEwLjM4Mzg2MTE5IDQ3LjI3MDAxOTUzIDExMC40MDE4MzA2NyBDNTEuMjI4MjI2MTMgMTEwLjQxMjY2MjA4IDU1LjE4NjMyMTMzIDExMC40MDkyMjUxMiA1OS4xNDQ1MzEyNSAxMTAuNDAxNDQ3MyBDNjEuMDQ1NTczNDggMTEwLjM5OTQ0MzUxIDYyLjk0NjYyNTc2IDExMC40MDE5MTA4IDY0Ljg0NzY1NjI1IDExMC40MDg4ODU5NiBDNjcuNTAyODc3NCAxMTAuNDE2NDg5ODcgNzAuMTU3MzM1NzggMTEwLjQwNDkxMTM2IDcyLjgxMjUgMTEwLjM4ODE4MzU5IEM3My42MDExNjQ1NSAxMTAuMzk0MjU2MjkgNzQuMzg5ODI5MSAxMTAuNDAwMzI4OTggNzUuMjAyMzkyNTggMTEwLjQwNjU4NTY5IEM3OC4wNTM1NDg2NyAxMTAuMzczMjQ0NDEgODAuNDE4NTA2MzYgMTEwLjI5NjI1MTQ4IDgyLjk4NzQ1NzI4IDEwOC45ODc0NTcyOCBDODQuNjQzODI3OTkgMTA1LjczNjI2OTk5IDg0LjQxNTYzODI2IDEwMi4zNzgwNTU4NiA4NC4zODgxODM1OSA5OC44MTI1IEM4NC4zOTM0NDA1NSA5Ny45NzgwNzM3MyA4NC4zOTg2OTc1MSA5Ny4xNDM2NDc0NiA4NC40MDQxMTM3NyA5Ni4yODM5MzU1NSBDODQuNDE3MzMwNDkgOTMuNTIyNDMzOTUgODQuNDA4NTY5ODYgOTAuNzYxNTA3NTggODQuMzk4NDM3NSA4OCBDODQuNDAwNDU3NzYgODYuMDgzMzMyMjEgODQuNDAzMzY4NzkgODQuMTY2NjY1MTYgODQuNDA3MTM1MDEgODIuMjUgQzg0LjQxMTU2MDYzIDc4LjIzMTY5NjQ0IDg0LjQwNTExOTY1IDc0LjIxMzU5Mjg0IDg0LjM5MTExMzI4IDcwLjE5NTMxMjUgQzg0LjM3NDAyMTI4IDY1LjA0MDAzOTkyIDg0LjM4Mzg2MTE5IDU5Ljg4NTIzNTg2IDg0LjQwMTgzMDY3IDU0LjcyOTk4MDQ3IEM4NC40MTI2NjIwOCA1MC43NzE3NzM4NyA4NC40MDkyMjUxMiA0Ni44MTM2Nzg2NyA4NC40MDE0NDczIDQyLjg1NTQ2ODc1IEM4NC4zOTk0NDM1MSA0MC45NTQ0MjY1MiA4NC40MDE5MTA4IDM5LjA1MzM3NDI0IDg0LjQwODg4NTk2IDM3LjE1MjM0Mzc1IEM4NC40MTY0ODk4NyAzNC40OTcxMjI2IDg0LjQwNDkxMTM2IDMxLjg0MjY2NDIyIDg0LjM4ODE4MzU5IDI5LjE4NzUgQzg0LjM5NDI1NjI5IDI4LjM5ODgzNTQ1IDg0LjQwMDMyODk4IDI3LjYxMDE3MDkgODQuNDA2NTg1NjkgMjYuNzk3NjA3NDIgQzg0LjM3MzI0NDQxIDIzLjk0NjQ1MTMzIDg0LjI5NjI1MTQ4IDIxLjU4MTQ5MzY0IDgyLjk4NzQ1NzI4IDE5LjAxMjU0MjcyIEM3OS43MzYyNjk5OSAxNy4zNTYxNzIwMSA3Ni4zNzgwNTU4NiAxNy41ODQzNjE3NCA3Mi44MTI1IDE3LjYxMTgxNjQxIEM3MS45NzgwNzM3MyAxNy42MDY1NTk0NSA3MS4xNDM2NDc0NiAxNy42MDEzMDI0OSA3MC4yODM5MzU1NSAxNy41OTU4ODYyMyBDNjcuNTIyNDMzOTUgMTcuNTgyNjY5NTEgNjQuNzYxNTA3NTggMTcuNTkxNDMwMTQgNjIgMTcuNjAxNTYyNSBDNjAuMDgzMzMyMjEgMTcuNTk5NTQyMjQgNTguMTY2NjY1MTYgMTcuNTk2NjMxMjEgNTYuMjUgMTcuNTkyODY0OTkgQzUyLjIzMTY5NjQ0IDE3LjU4ODQzOTM3IDQ4LjIxMzU5Mjg0IDE3LjU5NDg4MDM1IDQ0LjE5NTMxMjUgMTcuNjA4ODg2NzIgQzM5LjA0MDAzOTkyIDE3LjYyNTk3ODcyIDMzLjg4NTIzNTg2IDE3LjYxNjEzODgxIDI4LjcyOTk4MDQ3IDE3LjU5ODE2OTMzIEMyNC43NzE3NzM4NyAxNy41ODczMzc5MiAyMC44MTM2Nzg2NyAxNy41OTA3NzQ4OCAxNi44NTU0Njg3NSAxNy41OTg1NTI3IEMxNC45NTQ0MjY1MiAxNy42MDA1NTY0OSAxMy4wNTMzNzQyNCAxNy41OTgwODkyIDExLjE1MjM0Mzc1IDE3LjU5MTExNDA0IEM4LjQ5NzEyMjYgMTcuNTgzNTEwMTMgNS44NDI2NjQyMiAxNy41OTUwODg2NCAzLjE4NzUgMTcuNjExODE2NDEgQzIuMzk4ODM1NDUgMTcuNjA1NzQzNzEgMS42MTAxNzA5IDE3LjU5OTY3MTAyIDAuNzk3NjA3NDIgMTcuNTkzNDE0MzEgQy0yLjA1MzU0ODY3IDE3LjYyNjc1NTU5IC00LjQxODUwNjM2IDE3LjcwMzc0ODUyIC02Ljk4NzQ1NzI4IDE5LjAxMjU0MjcyIFogIiB0cmFuc2Zvcm09InRyYW5zbGF0ZSgyNiwwKSIgaWQ9InBhdGgxIiBjbGFzcz0icGF0aDEiLz48cGF0aCBkPSJNMCAwIEMxLjExNDMzOTE0IDAuMDAzMDM2MzUgMS4xMTQzMzkxNCAwLjAwMzAzNjM1IDIuMjUxMTkwMTkgMC4wMDYxMzQwMyBDMy40MTk0MjgyNSAwLjAwMzUwNTU1IDMuNDE5NDI4MjUgMC4wMDM1MDU1NSA0LjYxMTI2NzA5IDAuMDAwODIzOTcgQzcuMTk4Mjk1MDUgLTAuMDAzNTk0OTMgOS43ODUyNTUyMiAtMC4wMDA2NTY0MyAxMi4zNzIyODM5NCAwLjAwMjcxNjA2IEMxNC4xNjIwNzg5OSAwLjAwMjA0MzA0IDE1Ljk1MTg3Mzk2IDAuMDAxMDczMDIgMTcuNzQxNjY4NyAtMC4wMDAxODMxMSBDMjEuNDk3NzgxMDUgLTAuMDAxNjYwMTMgMjUuMjUzODY5NjYgMC4wMDA0OTQ2MiAyOS4wMDk5NzkyNSAwLjAwNTE1NzQ3IEMzMy44MzU3ODg4NyAwLjAxMDg1NDc2IDM4LjY2MTU0Mjg4IDAuMDA3NTc1NzggNDMuNDg3MzUwNDYgMC4wMDE1ODUwMSBDNDcuMTg0NjY2MTYgLTAuMDAyMDIwNDggNTAuODgxOTY4NTggLTAuMDAwODgyMDggNTQuNTc5Mjg0NjcgMC4wMDE3MTI4IEM1Ni4zNTkxNzE2MiAwLjAwMjM4MjEgNTguMTM5MDU5NzUgMC4wMDE1NTM1MyA1OS45MTg5NDUzMSAtMC4wMDA3NjY3NSBDNjIuNDAyMTIyMTYgLTAuMDAzMjkzMDkgNjQuODg1MjA3NjggMC4wMDA1NDcwMiA2Ny4zNjgzNzc2OSAwLjAwNjEzNDAzIEM2OC4xMTEyNzA0NSAwLjAwNDEwOTggNjguODU0MTYzMjEgMC4wMDIwODU1NyA2OS42MTk1Njc4NyAwIEM3NC42OTU1MjEzMiAwLjAyMTI2NTk1IDc0LjY5NTUyMTMyIDAuMDIxMjY1OTUgNzUuODA5NzgzOTQgMS4xMzU1Mjg1NiBDNzUuOTEwMTIyNiAzLjYyNTA2NTUzIDc1Ljk0NTk2MzM2IDYuMDg2ODc4MSA3NS45MzkxNzg0NyA4LjU3NjkzNDgxIEM3NS45NDE4MDY5NSA5Ljc0NTE3Mjg4IDc1Ljk0MTgwNjk1IDkuNzQ1MTcyODggNzUuOTQ0NDg4NTMgMTAuOTM3MDExNzIgQzc1Ljk0ODkwNzQzIDEzLjUyNDAzOTY4IDc1Ljk0NTk2ODkzIDE2LjExMDk5OTg1IDc1Ljk0MjU5NjQ0IDE4LjY5ODAyODU2IEM3NS45NDMyNjk0NiAyMC40ODc4MjM2MiA3NS45NDQyMzk0OCAyMi4yNzc2MTg1OSA3NS45NDU0OTU2MSAyNC4wNjc0MTMzMyBDNzUuOTQ2OTcyNjMgMjcuODIzNTI1NjcgNzUuOTQ0ODE3ODggMzEuNTc5NjE0MjggNzUuOTQwMTU1MDMgMzUuMzM1NzIzODggQzc1LjkzNDQ1Nzc0IDQwLjE2MTUzMzUgNzUuOTM3NzM2NzIgNDQuOTg3Mjg3NTEgNzUuOTQzNzI3NDkgNDkuODEzMDk1MDkgQzc1Ljk0NzMzMjk4IDUzLjUxMDQxMDc5IDc1Ljk0NjE5NDU4IDU3LjIwNzcxMzIxIDc1Ljk0MzU5OTcgNjAuOTA1MDI5MyBDNzUuOTQyOTMwNCA2Mi42ODQ5MTYyNCA3NS45NDM3NTg5NyA2NC40NjQ4MDQzOCA3NS45NDYwNzkyNSA2Ni4yNDQ2ODk5NCBDNzUuOTQ4NjA1NTkgNjguNzI3ODY2NzkgNzUuOTQ0NzY1NDggNzEuMjEwOTUyMzEgNzUuOTM5MTc4NDcgNzMuNjk0MTIyMzEgQzc1Ljk0MTIwMjcgNzQuNDM3MDE1MDggNzUuOTQzMjI2OTMgNzUuMTc5OTA3ODQgNzUuOTQ1MzEyNSA3NS45NDUzMTI1IEM3NS45MjQwNDY1NSA4MS4wMjEyNjU5NSA3NS45MjQwNDY1NSA4MS4wMjEyNjU5NSA3NC44MDk3ODM5NCA4Mi4xMzU1Mjg1NiBDNzIuMzIwMjQ2OTcgODIuMjM1ODY3MjMgNjkuODU4NDM0NCA4Mi4yNzE3MDc5OSA2Ny4zNjgzNzc2OSA4Mi4yNjQ5MjMxIEM2Ni41ODk1NTIzMSA4Mi4yNjY2NzU0MiA2NS44MTA3MjY5MyA4Mi4yNjg0Mjc3MyA2NS4wMDgzMDA3OCA4Mi4yNzAyMzMxNSBDNjIuNDIxMjcyODIgODIuMjc0NjUyMDYgNTkuODM0MzEyNjUgODIuMjcxNzEzNTUgNTcuMjQ3MjgzOTQgODIuMjY4MzQxMDYgQzU1LjQ1NzQ4ODg4IDgyLjI2OTAxNDA5IDUzLjY2NzY5MzkxIDgyLjI2OTk4NDExIDUxLjg3Nzg5OTE3IDgyLjI3MTI0MDIzIEM0OC4xMjE3ODY4MyA4Mi4yNzI3MTcyNiA0NC4zNjU2OTgyMiA4Mi4yNzA1NjI1MSA0MC42MDk1ODg2MiA4Mi4yNjU4OTk2NiBDMzUuNzgzNzc5IDgyLjI2MDIwMjM3IDMwLjk1ODAyNDk5IDgyLjI2MzQ4MTM1IDI2LjEzMjIxNzQxIDgyLjI2OTQ3MjEyIEMyMi40MzQ5MDE3MSA4Mi4yNzMwNzc2MSAxOC43Mzc1OTkyOSA4Mi4yNzE5MzkyMSAxNS4wNDAyODMyIDgyLjI2OTM0NDMzIEMxMy4yNjAzOTYyNiA4Mi4yNjg2NzUwMyAxMS40ODA1MDgxMiA4Mi4yNjk1MDM2IDkuNzAwNjIyNTYgODIuMjcxODIzODggQzcuMjE3NDQ1NzEgODIuMjc0MzUwMjEgNC43MzQzNjAxOSA4Mi4yNzA1MTAxMSAyLjI1MTE5MDE5IDgyLjI2NDkyMzEgQzEuMTM2ODUxMDQgODIuMjY3OTU5NDQgMS4xMzY4NTEwNCA4Mi4yNjc5NTk0NCAwIDgyLjI3MTA1NzEzIEMtNS4wNzU5NTM0NSA4Mi4yNDk3OTExOCAtNS4wNzU5NTM0NSA4Mi4yNDk3OTExOCAtNi4xOTAyMTYwNiA4MS4xMzU1Mjg1NiBDLTYuMjkwNTU0NzMgNzguNjQ1OTkxNiAtNi4zMjYzOTU0OSA3Ni4xODQxNzkwMyAtNi4zMTk2MTA2IDczLjY5NDEyMjMxIEMtNi4zMjEzNjI5MiA3Mi45MTUyOTY5NCAtNi4zMjMxMTUyMyA3Mi4xMzY0NzE1NiAtNi4zMjQ5MjA2NSA3MS4zMzQwNDU0MSBDLTYuMzI5MzM5NTYgNjguNzQ3MDE3NDUgLTYuMzI2NDAxMDUgNjYuMTYwMDU3MjggLTYuMzIzMDI4NTYgNjMuNTczMDI4NTYgQy02LjMyMzcwMTU5IDYxLjc4MzIzMzUxIC02LjMyNDY3MTYxIDU5Ljk5MzQzODU0IC02LjMyNTkyNzczIDU4LjIwMzY0MzggQy02LjMyNzQwNDc2IDU0LjQ0NzUzMTQ1IC02LjMyNTI1MDAxIDUwLjY5MTQ0Mjg0IC02LjMyMDU4NzE2IDQ2LjkzNTMzMzI1IEMtNi4zMTQ4ODk4NyA0Mi4xMDk1MjM2MyAtNi4zMTgxNjg4NSAzNy4yODM3Njk2MiAtNi4zMjQxNTk2MiAzMi40NTc5NjIwNCBDLTYuMzI3NzY1MTEgMjguNzYwNjQ2MzQgLTYuMzI2NjI2NzEgMjUuMDYzMzQzOTIgLTYuMzI0MDMxODMgMjEuMzY2MDI3ODMgQy02LjMyMzM2MjUzIDE5LjU4NjE0MDg4IC02LjMyNDE5MTEgMTcuODA2MjUyNzUgLTYuMzI2NTExMzggMTYuMDI2MzY3MTkgQy02LjMyOTAzNzcxIDEzLjU0MzE5MDM0IC02LjMyNTE5NzYxIDExLjA2MDEwNDgyIC02LjMxOTYxMDYgOC41NzY5MzQ4MSBDLTYuMzIxNjM0ODMgNy44MzQwNDIwNSAtNi4zMjM2NTkwNiA3LjA5MTE0OTI5IC02LjMyNTc0NDYzIDYuMzI1NzQ0NjMgQy02LjMwMDQ4MDE3IDAuMjk1Mzg5MTMgLTYuMDMwMzU1NSAwLjAyNTI2NDQ2IDAgMCBaIE0wLjgwOTc4Mzk0IDcuMTM1NTI4NTYgQzAuODA5NzgzOTQgMjkuNTc1NTI4NTYgMC44MDk3ODM5NCA1Mi4wMTU1Mjg1NiAwLjgwOTc4Mzk0IDc1LjEzNTUyODU2IEMyMy4yNDk3ODM5NCA3NS4xMzU1Mjg1NiA0NS42ODk3ODM5NCA3NS4xMzU1Mjg1NiA2OC44MDk3ODM5NCA3NS4xMzU1Mjg1NiBDNjguODA5NzgzOTQgNTIuNjk1NTI4NTYgNjguODA5NzgzOTQgMzAuMjU1NTI4NTYgNjguODA5NzgzOTQgNy4xMzU1Mjg1NiBDNDYuMzY5NzgzOTQgNy4xMzU1Mjg1NiAyMy45Mjk3ODM5NCA3LjEzNTUyODU2IDAuODA5NzgzOTQgNy4xMzU1Mjg1NiBaICIgdHJhbnNmb3JtPSJ0cmFuc2xhdGUoMjkuMTkwMjE2MDY0NDUzMTI1LDIyLjg2NDQ3MTQzNTU0Njg3NSkiIGlkPSJwYXRoMiIgY2xhc3M9InBhdGgyIi8+JiN4YTs8L3N2Zz4=;direction=south;" vertex="1" parent="1">
          <mxGeometry x="480" y="520" width="80" height="80" as="geometry" />
        </mxCell>
        <mxCell id="w3d3HwJF83mIlRjUdbyV-3" value="&lt;span&gt;&lt;font style=&quot;color: rgb(255, 255, 255);&quot;&gt;Thread 1&lt;/font&gt;&lt;/span&gt;" style="text;html=1;align=center;verticalAlign=middle;whiteSpace=wrap;rounded=0;fontSize=16;fontFamily=Tahoma;fontStyle=1" vertex="1" parent="1">
          <mxGeometry x="80" y="600" width="80" height="30" as="geometry" />
        </mxCell>
        <mxCell id="w3d3HwJF83mIlRjUdbyV-4" value="&lt;span&gt;&lt;font style=&quot;color: rgb(255, 255, 255);&quot;&gt;Thread 2&lt;/font&gt;&lt;/span&gt;" style="text;html=1;align=center;verticalAlign=middle;whiteSpace=wrap;rounded=0;fontSize=16;fontFamily=Tahoma;fontStyle=1" vertex="1" parent="1">
          <mxGeometry x="480" y="600" width="80" height="30" as="geometry" />
        </mxCell>
        <mxCell id="w3d3HwJF83mIlRjUdbyV-5" value="" style="shape=image;editableCssRules=.*;aspect=fixed;image=data:image/svg+xml,PHN2ZyB4bWxucz0iaHR0cDovL3d3dy53My5vcmcvMjAwMC9zdmciIHZlcnNpb249IjEuMSIgd2lkdGg9IjUxMiIgaGVpZ2h0PSI1MTIiPiYjeGE7PHN0eWxlIHR5cGU9InRleHQvY3NzIj4ucGF0aDEgeyBmaWxsOiBsaWdodC1kYXJrKHJnYigyNTMsIDIyNCwgNzEpLCByZ2IoMCwgMTEyLCAzMSkpOyB9IC5wYXRoMiB7IGZpbGw6IGxpZ2h0LWRhcmsocmdiKDI1MywgMjI0LCA3MSksIHJnYigwLCAxMTIsIDMxKSk7IH0gLnBhdGgzIHsgZmlsbDogbGlnaHQtZGFyayhyZ2IoMTcsIDI0LCAzOSksIHJnYigxOCwgMTgsIDE4KSk7IH0gPC9zdHlsZT4mI3hhOzxwYXRoIGQ9Ik0wIDAgQzAuNzE4MDg4MzggLTAuMDAwNjc0NzQgMS40MzYxNzY3NiAtMC4wMDEzNDk0OSAyLjE3NjAyNTM5IC0wLjAwMjA0NDY4IEMxMi45NTEwMjkxMyAwLjAxNDA1NTgzIDIzLjE1NjcwNjg4IDAuNDY4MTM3NjkgMzMuNjI1IDMuMjUgQzM0LjI3NzQyNjc2IDMuNDIxNjA2NDUgMzQuOTI5ODUzNTIgMy41OTMyMTI4OSAzNS42MDIwNTA3OCAzLjc3MDAxOTUzIEM1Ni40MDM0NTAzOCA5LjM3NzUyNzY0IDc1LjMwNzgxMjUgMTkuMTI4ODIyNCA5MS42MjUgMzMuMjUgQzkyLjg2ODMwMDc4IDM0LjI5NDE0MDYyIDkyLjg2ODMwMDc4IDM0LjI5NDE0MDYyIDk0LjEzNjcxODc1IDM1LjM1OTM3NSBDMTAwLjQwNjAzODg4IDQwLjc3NDIyNDI0IDEwNS42MTExNTE0NiA0Ni42Njc3MTY3OSAxMTAuNjI1IDUzLjI1IEMxMTEuMDMyNTA0ODggNTMuNzc3MjI2NTYgMTExLjQ0MDAwOTc3IDU0LjMwNDQ1MzEzIDExMS44NTk4NjMyOCA1NC44NDc2NTYyNSBDMTI5LjQ0Njg5MzM0IDc3Ljc0NjY1OTYgMTM5Ljg2OTgyNDg5IDEwNi4yMzU2ODk5NCAxMzkuNzM4NTI1MzkgMTM1LjIzNjMyODEyIEMxMzkuNzM4NjcxNDIgMTM2LjA5NTgxMDU1IDEzOS43Mzg4MTc0NCAxMzYuOTU1MjkyOTcgMTM5LjczODk2NzkgMTM3Ljg0MDgyMDMxIEMxMzkuNzM4Mjc2NjIgMTQwLjY1NDMyMzQyIDEzOS43MzA1MjEzIDE0My40Njc3NTg1OSAxMzkuNzIyNjU2MjUgMTQ2LjI4MTI1IEMxMzkuNzIwNzg5MjggMTQ4LjI0Mjc5NzQ4IDEzOS43MTkzNjY2OSAxNTAuMjA0MzQ1NDQgMTM5LjcxODM2ODUzIDE1Mi4xNjU4OTM1NSBDMTM5LjcxNDU2NTM0IDE1Ny4zMDgyMDAxMyAxMzkuNzA0NzUzOTcgMTYyLjQ1MDQ3ODEgMTM5LjY5MzY2NDU1IDE2Ny41OTI3NzM0NCBDMTM5LjY4MzQwMzAyIDE3Mi44NDgzMDMzNiAxMzkuNjc4ODYwNzggMTc4LjEwMzgzNzkzIDEzOS42NzM4MjgxMiAxODMuMzU5Mzc1IEMxMzkuNjYzMTI5NiAxOTMuNjU2MjYyNTEgMTM5LjY0NjA3OTc3IDIwMy45NTMxMjg4NyAxMzkuNjI1IDIxNC4yNSBDMTQwLjU0ODQ3OTg0IDIxNC40NDU4MjkyNCAxNDAuNTQ4NDc5ODQgMjE0LjQ0NTgyOTI0IDE0MS40OTA2MTU4NCAyMTQuNjQ1NjE0NjIgQzE0Mi43MDM4Nzc5NCAyMTQuOTA3OTI2MjUgMTQyLjcwMzg3Nzk0IDIxNC45MDc5MjYyNSAxNDMuOTQxNjUwMzkgMjE1LjE3NTUzNzExIEMxNDQuNzQyOTI4NjIgMjE1LjM0NzMzOTk0IDE0NS41NDQyMDY4NSAyMTUuNTE5MTQyNzYgMTQ2LjM2OTc2NjI0IDIxNS42OTYxNTE3MyBDMTU4LjQzODMyNzg1IDIxOC42NTk5OTE2OCAxNjguNTM2Mzg3NDUgMjI4LjYzMTEyOTg0IDE3NS4xNjAxNTYyNSAyMzguNzE0ODQzNzUgQzE4Mi45MTEwMDQxMSAyNTIuMTI4OTc3NzcgMTgyLjkyMTM5MzYgMjY1Ljg4MDQxMTI0IDE4Mi44OTk2NTgyIDI4MC45MjEzODY3MiBDMTgyLjkwNDAxMDQ2IDI4Mi45MTMyMjAxMiAxODIuOTA5MTk1MzIgMjg0LjkwNTA1MTg0IDE4Mi45MTUxNDU4NyAyODYuODk2ODgxMSBDMTgyLjkyODQ5MTY2IDI5Mi4yODUzNzE1NiAxODIuOTI5MTE5NDggMjk3LjY3Mzc5MTY4IDE4Mi45MjY1ODI1NyAzMDMuMDYyMjk1NDQgQzE4Mi45MjU1MDk4OCAzMDcuNTcwMDU3MjQgMTgyLjkzMDQwMzg0IDMxMi4wNzc4MDUgMTgyLjkzNTE4OCAzMTYuNTg1NTYzNzggQzE4Mi45NDYyNjc4NSAzMjcuMjI0ODU5MjkgMTgyLjk0NjcyOTEyIDMzNy44NjQxMTk0OSAxODIuOTQwNjczODMgMzQ4LjUwMzQxNzk3IEMxODIuOTM0NjM0MzggMzU5LjQ1ODYwNDAzIDE4Mi45NDY5NDc4NyAzNzAuNDEzNjYxNjQgMTgyLjk2ODI0MzkgMzgxLjM2ODgyNTc5IEMxODIuOTg1ODg4NjEgMzkwLjc5NDE5ODM0IDE4Mi45OTE4NTY3NCA0MDAuMjE5NTMwMTEgMTgyLjk4ODYwNjE1IDQwOS42NDQ5MTg1NiBDMTgyLjk4Njc5Nzc3IDQxNS4yNjU2MjI0OSAxODIuOTg5Mzg1MDQgNDIwLjg4NjIzNDc4IDE4My4wMDMzMjA2OSA0MjYuNTA2OTIzNjggQzE4My4wMTU5NDExOCA0MzEuNzk0NTk4OTggMTgzLjAxMzkxNTA3IDQzNy4wODIwNzQ3NSAxODMuMDAwOTA5ODEgNDQyLjM2OTc0NzE2IEMxODIuOTk4NTUzNjggNDQ0LjMwMzAwOTczIDE4My4wMDEyNDM5IDQ0Ni4yMzYyODY1NCAxODMuMDA5NTMyOTMgNDQ4LjE2OTUzMjc4IEMxODMuMDg0MDI1NjYgNDY2LjkwMzc0MTY2IDE4MC41MDE5Mzk2OSA0ODIuOTI1NDgyNzIgMTY2Ljk2ODc1IDQ5NyBDMTU3LjcyMjkzNjYzIDUwNS44NzU5ODA4NCAxNDYuODk4OTg0NDQgNTEyLjM1NTgzNzUzIDEzMy43MzU2Nzk2MyA1MTIuMzg0MjIxMDggQzEzMi43NzIzMjQyOSA1MTIuMzg4Njc4OTIgMTMxLjgwODk2ODk1IDUxMi4zOTMxMzY3NiAxMzAuODE2NDIxMDMgNTEyLjM5NzcyOTY5IEMxMjkuNzY1OTUxMDcgNTEyLjM5NzU0NTMzIDEyOC43MTU0ODExIDUxMi4zOTczNjA5NyAxMjcuNjMzMTc4NzEgNTEyLjM5NzE3MTAyIEMxMjYuNTExMDE4NDkgNTEyLjQwMDg0NzcxIDEyNS4zODg4NTgyNyA1MTIuNDA0NTI0NCAxMjQuMjMyNjkzMiA1MTIuNDA4MzEyNSBDMTIwLjQ2NDM2ODk3IDUxMi40MTkzNDQ0OCAxMTYuNjk2MDcyMzMgNTEyLjQyMzE5MjM5IDExMi45Mjc3MzQzOCA1MTIuNDI3MDAxOTUgQzExMC4yMjg5MTA2OSA1MTIuNDMzMjY3MDEgMTA3LjUzMDA4OTk0IDUxMi40Mzk5MDEyMyAxMDQuODMxMjY4MzEgNTEyLjQ0NjkxNDY3IEM5Ni43MjY0Mzc1NCA1MTIuNDY2NjU0NzcgODguNjIxNjA1NTcgNTEyLjQ3Njc0MjYyIDgwLjUxNjc1Njc3IDUxMi40ODU2NDI0NiBDNzYuNjk2MDMwNTkgNTEyLjQ5MDAyOTc4IDcyLjg3NTMwNTc4IDUxMi40OTUzOTU0NyA2OS4wNTQ1ODA2OSA1MTIuNTAwNjMxMzMgQzU2LjM0NjQyNTc2IDUxMi41MTc2NDE5IDQzLjYzODI3MTY4IDUxMi41MzIxMzQ0OSAzMC45MzAxMDcxMiA1MTIuNTM5MzgwMDcgQzI3LjYzNDA2ODggNTEyLjU0MTI4OTg0IDI0LjMzODAzMDQ4IDUxMi41NDMyMTAxOSAyMS4wNDE5OTIxOSA1MTIuNTQ1MTY2MDIgQzE5LjgxMzIzMzk5IDUxMi41NDU4OTE2MyAxOS44MTMyMzM5OSA1MTIuNTQ1ODkxNjMgMTguNTU5NjUyMzkgNTEyLjU0NjYzMTkgQzUuMjk5Mzk3MDUgNTEyLjU1NDkyNjM1IC03Ljk2MDc2NzkgNTEyLjU4MDI1NDE0IC0yMS4yMjA5ODM4IDUxMi42MTI3NDY2OSBDLTM0Ljg0ODAyNjIxIDUxMi42NDU4NjQ2OCAtNDguNDc1MDIyNzcgNTEyLjY2MzgzMzE1IC02Mi4xMDIxMDU2MiA1MTIuNjY3MDI0MzEgQy02OS43NDc4ODEwNyA1MTIuNjY5MTg1MTMgLTc3LjM5MzUyNDc1IDUxMi42Nzc4NzA3MyAtODUuMDM5MjYwODYgNTEyLjcwMzQ4NTQ5IEMtOTEuNTUyODU0NTcgNTEyLjcyNTI1NzQ1IC05OC4wNjYyODQ0OSA1MTIuNzMzMjExMTkgLTEwNC41Nzk5MTA0NiA1MTIuNzIzNTE4NzEgQy0xMDcuODk5MTQ2MjYgNTEyLjcxODk5MjQ0IC0xMTEuMjE3NzcyMzEgNTEyLjcyMjk3MDM0IC0xMTQuNTM3MDA2MzggNTEyLjc0MDI4MDE1IEMtMTM0Ljk2ODY5NDE3IDUxMi44NDA4MzY2NyAtMTUwLjYyNDQ1NDUyIDUxMS42NDMxNDg5OSAtMTY2LjE4NzUgNDk2LjkzNzUgQy0xNzYuODAzOTIzNzIgNDg1LjczMzM4MTM5IC0xODEuNTI1ODUwNTIgNDcyLjE2NjYwMjExIC0xODEuNTIyMTcxMDIgNDU2Ljg5MTUxMDAxIEMtMTgxLjUyNTg0NzcxIDQ1Ni4wNjQ2Mjc4MyAtMTgxLjUyOTUyNDQgNDU1LjIzNzc0NTY1IC0xODEuNTMzMzEyNSA0NTQuMzg1ODA2NDQgQy0xODEuNTQ0MzAxMiA0NTEuNjIyNTk1MDUgLTE4MS41NDgxODUwMyA0NDguODU5NDIxMzMgLTE4MS41NTIwMDE5NSA0NDYuMDk2MTkxNDEgQy0xODEuNTU4MjcwNDMgNDQ0LjExMTQzODgyIC0xODEuNTY0OTE3NTcgNDQyLjEyNjY4NzQgLTE4MS41NzE5MTQ2NyA0NDAuMTQxOTM3MjYgQy0xODEuNTkyOTE4NDggNDMzLjYyODQ4NzI2IC0xODEuNjAzMzE2MjYgNDI3LjExNTAzNzEzIC0xODEuNjEzMjgxMjUgNDIwLjYwMTU2MjUgQy0xODEuNjE3MzMwNzIgNDE4LjM1MzkxNjA1IC0xODEuNjIxNDQ3NjkgNDE2LjEwNjI2OTcxIC0xODEuNjI1NjMxMzMgNDEzLjg1ODYyMzUgQy0xODEuNjQ0Njc3OTMgNDAzLjI5MzA4ODI0IC0xODEuNjU4OTA3OTQgMzkyLjcyNzU1OTkyIC0xODEuNjY3MjQzMyAzODIuMTYyMDEwNzkgQy0xODEuNjc3MDAyNDggMzY5Ljk5NDU3OTY1IC0xODEuNzAzMjg5ODcgMzU3LjgyNzMzMTA3IC0xODEuNzQzNzQ0MTkgMzQ1LjY1OTk2NDIgQy0xODEuNzczOTg3MzYgMzM2LjIzODAxMzU1IC0xODEuNzg4NzIwMDkgMzI2LjgxNjExNDk4IC0xODEuNzkyMDI0MzEgMzE3LjM5NDExNjc2IEMtMTgxLjc5NDM2NjE2IDMxMS43NzU0MTQ1MyAtMTgxLjgwMzIxMzAyIDMwNi4xNTY5MDc0NCAtMTgxLjgyODQ4NTQ5IDMwMC41MzgyNTc2IEMtMTgxLjg1MTkxMzg4IDI5NS4yNDQwMjk3NyAtMTgxLjg1NTk0MDUgMjg5Ljk1MDEyMzUgLTE4MS44NDU3MjQxMSAyODQuNjU1ODU3MDkgQy0xODEuODQ1MjMyMTUgMjgyLjcyNDI2NzgzIC0xODEuODUxNDUwOSAyODAuNzkyNjYxOTQgLTE4MS44NjUyODAxNSAyNzguODYxMTIyMTMgQy0xODIuMDAwMzQ1MDkgMjU4Ljg1OTY1MzE2IC0xNzguOTk1MzcyIDI0Mi42NjE1MTkyIC0xNjQuODU1NDY4NzUgMjI3LjU3NDIxODc1IEMtMTU4LjI1NjcwNzEgMjIxLjM5MTEyNzEyIC0xNDcuODEyNDM1NTkgMjE0LjI1IC0xMzguMzc1IDIxNC4yNSBDLTEzOC4zODE2NjE4MyAyMTMuMTg5NzIwOTIgLTEzOC4zODgzMjM2NyAyMTIuMTI5NDQxODMgLTEzOC4zOTUxODczOCAyMTEuMDM3MDMzMDggQy0xMzguNDU2NDQ4MjcgMjAwLjk2MjQyNjEgLTEzOC41MDExODU5NCAxOTAuODg3ODU3NzIgLTEzOC41MzA0MzY1MiAxODAuODEzMTA1NTggQy0xMzguNTQ1OTgwODUgMTc1LjYzNTY1OTAxIC0xMzguNTY3MDA5MzggMTcwLjQ1ODM2NDc5IC0xMzguNjAxMzE4MzYgMTY1LjI4MTAwNTg2IEMtMTM4LjYzNDMxODEyIDE2MC4yNjg4ODM3OSAtMTM4LjY1MTkzNzAzIDE1NS4yNTY5MDY2OSAtMTM4LjY1OTYzMTczIDE1MC4yNDQ2ODQyMiBDLTEzOC42NjUxMDMzOCAxNDguMzQ4NDcwNDEgLTEzOC42NzU3ODM3MyAxNDYuNDUyMjYzMDEgLTEzOC42OTIxOTAxNyAxNDQuNTU2MTEyMjkgQy0xMzguODg0NzcwNCAxMjEuMzM5ODk1MTggLTEzNS4wMjExNDUyNyAxMDAuNDU5ODk3NzMgLTEyNS4zNzUgNzkuMjUgQy0xMjQuOTQ3MDMxMjUgNzguMjg4MzU5MzcgLTEyNC41MTkwNjI1IDc3LjMyNjcxODc1IC0xMjQuMDc4MTI1IDc2LjMzNTkzNzUgQy0xMDkuMTQ2NDk3NDYgNDQuNTQzMzE0ODEgLTgwLjAyMzQ5MzI5IDIwLjAyNDYyMzYzIC00Ny41MTk1MzEyNSA3LjU5NzY1NjI1IEMtMzEuOTg2NjE4OTUgMi4yOTQwMTcyMSAtMTYuMzQ4OTc5MTcgMC4wMTM3NDM3MyAwIDAgWiBNLTUzLjM3NSA4OC4yNSBDLTUzLjk2Nzk2ODc1IDg4LjgyNjIxMDk0IC01NC41NjA5Mzc1IDg5LjQwMjQyMTg4IC01NS4xNzE4NzUgODkuOTk2MDkzNzUgQy01OS41NjgwNTY3NiA5NC41MDMwMzIwMyAtNjIuNzU0MTQwNzMgOTkuMjUzMzkyMjcgLTY1LjYyNSAxMDQuODEyNSBDLTY1Ljk0MTg2NzY4IDEwNS40MDU4NzE1OCAtNjYuMjU4NzM1MzUgMTA1Ljk5OTI0MzE2IC02Ni41ODUyMDUwOCAxMDYuNjEwNTk1NyBDLTczLjI5MjkwNzE1IDEyMC4yNjAwOTE3OSAtNzMuOTQ1OTczOTggMTM0LjMyMTczOTk0IC03My43NjU2MjUgMTQ5LjE4NzUgQy03My43NTk3MjMyMSAxNTAuODM5MTg3MTggLTczLjc1NTY1NTI3IDE1Mi40OTA4ODE5MiAtNzMuNzUzNDE3OTcgMTU0LjE0MjU3ODEyIEMtNzMuNzMyNjg1NTkgMTYwLjE3ODUwMTYgLTczLjY3Njg0MjM3IDE2Ni4yMTQyNjM1NiAtNzMuNjI1IDE3Mi4yNSBDLTczLjU0MjUgMTg1Ljc4IC03My40NiAxOTkuMzEgLTczLjM3NSAyMTMuMjUgQy0yNC41MzUgMjEzLjI1IDI0LjMwNSAyMTMuMjUgNzQuNjI1IDIxMy4yNSBDNzQuNzA3NSAxOTkuNzIgNzQuNzkgMTg2LjE5IDc0Ljg3NSAxNzIuMjUgQzc0LjkxMTQxNjAyIDE2OC4wMTAyNzM0NCA3NC45NDc4MzIwMyAxNjMuNzcwNTQ2ODcgNzQuOTg1MzUxNTYgMTU5LjQwMjM0Mzc1IEM3NC45OTg3NDYxIDE1NS41MzMzMzE2MiA3NC45OTg3NDYxIDE1NS41MzMzMzE2MiA3NS4wMDY3NzQ5IDE1MS42NjQzMDY2NCBDNzUuMDEyODM1MDUgMTQ5Ljk2ODMwMDEyIDc1LjAyNjcyNzk1IDE0OC4yNzIzMDg1NiA3NS4wNDczMDIyNSAxNDYuNTc2NDE2MDIgQzc1LjIxNDgxOTUxIDEzMi4wMTQyMTA5MiA3My45NTQ0NjUzMiAxMTguMDQ4NTcyNjIgNjYuOTM3NSAxMDQuOTM3NSBDNjYuNTkzNTYyMDEgMTA0LjI3OTI3MjQ2IDY2LjI0OTYyNDAyIDEwMy42MjEwNDQ5MiA2NS44OTUyNjM2NyAxMDIuOTQyODcxMDkgQzU2LjI0MzAwOTA4IDg1LjEwMDg5MDY4IDQwLjE3MzYxNDk1IDc0LjAwODAyODIzIDIxLjQ5MjE4NzUgNjcuMDg5ODQzNzUgQy01LjM3MzYzOTI1IDU5LjU0OTE3NDM2IC0zNC41MzE4NTY3MyA2Ny45NTczODQxOCAtNTMuMzc1IDg4LjI1IFogIiBmaWxsPSIjRkVDMDA3IiBjbGFzcz0icGF0aDEiIHRyYW5zZm9ybT0idHJhbnNsYXRlKDI1NS4zNzUsLTAuMjQ5OTk5OTk5OTk5OTk5OTcpIi8+JiN4YTs8cGF0aCBkPSJNMCAwIEMwLjcxODA4ODM4IC0wLjAwMDY3NDc0IDEuNDM2MTc2NzYgLTAuMDAxMzQ5NDkgMi4xNzYwMjUzOSAtMC4wMDIwNDQ2OCBDMTIuOTUxMDI5MTMgMC4wMTQwNTU4MyAyMy4xNTY3MDY4OCAwLjQ2ODEzNzY5IDMzLjYyNSAzLjI1IEMzNC4yNzc0MjY3NiAzLjQyMTYwNjQ1IDM0LjkyOTg1MzUyIDMuNTkzMjEyODkgMzUuNjAyMDUwNzggMy43NzAwMTk1MyBDNTYuNDAzNDUwMzggOS4zNzc1Mjc2NCA3NS4zMDc4MTI1IDE5LjEyODgyMjQgOTEuNjI1IDMzLjI1IEM5Mi40NTM4NjcxOSAzMy45NDYwOTM3NSA5My4yODI3MzQzOCAzNC42NDIxODc1IDk0LjEzNjcxODc1IDM1LjM1OTM3NSBDMTAwLjQwNjAzODg4IDQwLjc3NDIyNDI0IDEwNS42MTExNTE0NiA0Ni42Njc3MTY3OSAxMTAuNjI1IDUzLjI1IEMxMTEuMDMyNTA0ODggNTMuNzc3MjI2NTYgMTExLjQ0MDAwOTc3IDU0LjMwNDQ1MzEzIDExMS44NTk4NjMyOCA1NC44NDc2NTYyNSBDMTI5LjQ0Njg5MzM0IDc3Ljc0NjY1OTYgMTM5Ljg2OTgyNDg5IDEwNi4yMzU2ODk5NCAxMzkuNzM4NTI1MzkgMTM1LjIzNjMyODEyIEMxMzkuNzM4NjcxNDIgMTM2LjA5NTgxMDU1IDEzOS43Mzg4MTc0NCAxMzYuOTU1MjkyOTcgMTM5LjczODk2NzkgMTM3Ljg0MDgyMDMxIEMxMzkuNzM4Mjc2NjIgMTQwLjY1NDMyMzQyIDEzOS43MzA1MjEzIDE0My40Njc3NTg1OSAxMzkuNzIyNjU2MjUgMTQ2LjI4MTI1IEMxMzkuNzIwNzg5MjggMTQ4LjI0Mjc5NzQ4IDEzOS43MTkzNjY2OSAxNTAuMjA0MzQ1NDQgMTM5LjcxODM2ODUzIDE1Mi4xNjU4OTM1NSBDMTM5LjcxNDU2NTM0IDE1Ny4zMDgyMDAxMyAxMzkuNzA0NzUzOTcgMTYyLjQ1MDQ3ODEgMTM5LjY5MzY2NDU1IDE2Ny41OTI3NzM0NCBDMTM5LjY4MTU5NjI1IDE3My43NzM2NTUyOCAxMzkuNjc3MDM3NzIgMTc5Ljk1NDU0Njc0IDEzOS42NzEyMTEyNCAxODYuMTM1NDM3MDEgQzEzOS42NjE1NDA5MiAxOTUuNTA2OTc3ODYgMTM5LjY0MjM2OTAxIDIwNC44Nzg0NTYwMyAxMzkuNjI1IDIxNC4yNSBDMTA3LjQ1IDIxMy43NTUgMTA3LjQ1IDIxMy43NTUgNzQuNjI1IDIxMy4yNSBDNzQuNTg2MzI4MTMgMjA0LjQzMjgxMjUgNzQuNTg2MzI4MTMgMjA0LjQzMjgxMjUgNzQuNTQ2ODc1IDE5NS40Mzc1IEM3NC41MjE2NjY4NSAxOTEuNjgyMjQ5OTIgNzQuNDk1MzAzNDggMTg3LjkyNzA3NzI0IDc0LjQ2NDg0Mzc1IDE4NC4xNzE4NzUgQzc0LjQxNjc1MzY3IDE3OC4yMjk4MTYyMiA3NC4zNzI2MTgwNyAxNzIuMjg3OTM2OTIgNzQuMzU0MDAzOTEgMTY2LjM0NTcwMzEyIEM3NC4zMzg3MDI3OSAxNjEuNTQ3MzQ3ODggNzQuMzA0MDIzOCAxNTYuNzQ5NDY2NzcgNzQuMjU2NjkwOTggMTUxLjk1MTMyNDQ2IEM3NC4yNDIwMTQ0MSAxNTAuMTMzNjM4MDUgNzQuMjMzOTY3MDEgMTQ4LjMxNTg4Mzg5IDc0LjIzMzExNjE1IDE0Ni40OTgxMzg0MyBDNzQuMjE5NDY0MzkgMTMxLjkzODAwODE4IDcyLjg2NjcwMzA0IDExNy45MTY2MDMzMSA2NS44NzUgMTA0LjgxMjUgQzY1LjUzNzkxMDE2IDEwNC4xNTQ5MTY5OSA2NS4yMDA4MjAzMSAxMDMuNDk3MzMzOTggNjQuODUzNTE1NjIgMTAyLjgxOTgyNDIyIEM2Mi4yMjM5MzgwNSA5Ny44OTI0MDQxNCA1OS4wNjE4OTc1NiA5My44MDQ0NDc5NiA1NS4wOTM3NSA4OS44NTE1NjI1IEM1My42MjUgODguMjUgNTMuNjI1IDg4LjI1IDUzLjYyNSA4Ni4yNSBDNTMuMDQyMzQzNzUgODUuOTg0NDUzMTMgNTIuNDU5Njg3NSA4NS43MTg5MDYyNSA1MS44NTkzNzUgODUuNDQ1MzEyNSBDNDkuNTU4ODg5OTkgODQuMjE0NjMzNDYgNDcuODQ5ODgxMjUgODIuODIzMzk3ODcgNDUuODc1IDgxLjEyNSBDMjguMTY1ODk2NSA2Ny4yMDIzODI0NCA3LjgyNzM3NTA4IDY0LjMxMTk2MDA3IC0xNC4xMTcxODc1IDY2LjY0ODQzNzUgQy0yNS44NjY2NTc0OSA2OC45MDQ1NzAxNCAtMzcuNTQwNzI5MTggNzUuMDMyNTI3MDkgLTQ2LjU3ODEyNSA4Mi44MDQ2ODc1IEMtNDguMzc1IDg0LjI1IC00OC4zNzUgODQuMjUgLTUwLjQ4NDM3NSA4NS4xOTUzMTI1IEMtNTIuODg1NzAxOCA4Ni41MzQ4OTU2MyAtNTMuMjY0OTIzOTYgODcuNzc0MDI3OTMgLTU0LjM3NSA5MC4yNSBDLTU1LjQxNDExODM0IDkxLjU2MDU1MDMxIC01Ni40NzkxNTM4OCA5Mi44NTA3NjY4MSAtNTcuNTYyNSA5NC4xMjUgQy03MC40OTE3MDM4NiAxMTAuNjM2NjcwNzcgLTcyLjk3NDkwMTk0IDEyOC45NDk1OTM0NCAtNzIuOTg0Mzc1IDE0OS4xODc1IEMtNzIuOTk5Mzk2ODMgMTUxLjA0Nzk0NzI4IC03My4wMTYxMzIxOCAxNTIuOTA4MzgxNDMgLTczLjAzNDQ4NDg2IDE1NC43Njg3OTg4MyBDLTczLjA3NzcyMTk3IDE1OS42MDg0ODY4OSAtNzMuMDk4MDU5MyAxNjQuNDQ3OTk1MjYgLTczLjExMzIyMDIxIDE2OS4yODc4NDE4IEMtNzMuMTM2NDM0MzcgMTc1LjEyNTI5OTU2IC03My4xODg4MTE5MyAxODAuOTYyNTYzNDEgLTczLjIzNjE2MDI4IDE4Ni43OTk4NjU3MiBDLTczLjMwNDQ4MTU2IDE5NS42MTY2MjcgLTczLjMzNjMyODIyIDIwNC40MzI4MzQ4NCAtNzMuMzc1IDIxMy4yNSBDLTk0LjgyNSAyMTMuNTggLTExNi4yNzUgMjEzLjkxIC0xMzguMzc1IDIxNC4yNSBDLTEzOC40OTUzMjY0MyAxOTMuMDUwMjY2IC0xMzguNDk1MzI2NDMgMTkzLjA1MDI2NiAtMTM4LjUyMTQ4NDM4IDE4My44OTY0ODQzOCBDLTEzOC41MzkzMDE2NiAxNzcuNjkxMjQ0OTMgLTEzOC41NjAxOTg1OCAxNzEuNDg2MTQwMzcgLTEzOC42MDEzMTgzNiAxNjUuMjgxMDA1ODYgQy0xMzguNjM0MzE4MTIgMTYwLjI2ODg4Mzc5IC0xMzguNjUxOTM3MDMgMTU1LjI1NjkwNjY5IC0xMzguNjU5NjMxNzMgMTUwLjI0NDY4NDIyIEMtMTM4LjY2NTEwMzM4IDE0OC4zNDg0NzA0MSAtMTM4LjY3NTc4MzczIDE0Ni40NTIyNjMwMSAtMTM4LjY5MjE5MDE3IDE0NC41NTYxMTIyOSBDLTEzOC44ODQ3NzA0IDEyMS4zMzk4OTUxOCAtMTM1LjAyMTE0NTI3IDEwMC40NTk4OTc3MyAtMTI1LjM3NSA3OS4yNSBDLTEyNC45NDcwMzEyNSA3OC4yODgzNTkzNyAtMTI0LjUxOTA2MjUgNzcuMzI2NzE4NzUgLTEyNC4wNzgxMjUgNzYuMzM1OTM3NSBDLTEwOS4xNDY0OTc0NiA0NC41NDMzMTQ4MSAtODAuMDIzNDkzMjkgMjAuMDI0NjIzNjMgLTQ3LjUxOTUzMTI1IDcuNTk3NjU2MjUgQy0zMS45ODY2MTg5NSAyLjI5NDAxNzIxIC0xNi4zNDg5NzkxNyAwLjAxMzc0MzczIDAgMCBaICIgZmlsbD0iIzQ1NUE2MyIgY2xhc3M9InBhdGgyIiB0cmFuc2Zvcm09InRyYW5zbGF0ZSgyNTUuMzc1LC0wLjI0OTk5OTk5OTk5OTk5OTk3KSIvPiYjeGE7PHBhdGggZD0iTTAgMCBDMTEuMzUzMzA2MTUgOC44MzYyOTk2IDE5LjgzNzc3MjY2IDE5Ljc5NjE2NTE4IDIzIDM0IEMyNC40MTI4NTgzNyA0OS45MDAwMTU3NCAyMi4wMzMxMDI1NiA2NC42ODc2NjM5NyAxMi4wMzEyNSA3Ny41MjczNDM3NSBDOC4xMzAwMTE2NSA4Mi4wOTQ4MTQ3MSA0LjYyNTkzMzc2IDg1LjMxODkwMzc0IC0wLjYyNSA4OC4yNSBDLTMuMDY4ODk4MjkgODkuNzgxNjA1MTEgLTMuMDY4ODk4MjkgODkuNzgxNjA1MTEgLTUgOTIgQy01LjQyODIxNjU5IDk0Ljc2NDc4ODM3IC01LjQyODIxNjU5IDk0Ljc2NDc4ODM3IC00Ljk2NDg0Mzc1IDk3Ljg5NDUzMTI1IEMtNC44MzQwMDM5MSA5OS4xNDA4OTM1NSAtNC43MDMxNjQwNiAxMDAuMzg3MjU1ODYgLTQuNTY4MzU5MzggMTAxLjY3MTM4NjcyIEMtNC4zODM1NTY5MiAxMDMuMTE0ODYwODQgLTQuMTkzNzg5ODQgMTA0LjU1NzcwNDk2IC00IDEwNiBDLTMuODQxNjg3MDEgMTA3LjE5NzUyODk5IC0zLjg0MTY4NzAxIDEwNy4xOTc1Mjg5OSAtMy42ODAxNzU3OCAxMDguNDE5MjUwNDkgQy0yLjgyNjcwNDY2IDExNC43Njc3NzkgLTEuODg4NDc1NjUgMTIxLjEwMjk2MDc2IC0wLjkzNzUgMTI3LjQzNzUgQy0wLjM3ODMzMzIyIDEzMS4xNjQ1MzU5NCAwLjE3NDExNzc1IDEzNC44OTI0ODA1IDAuNzIyNjU2MjUgMTM4LjYyMTA5Mzc1IEMwLjg1MDc2MTg3IDEzOS40NTk3NDQ3MiAwLjk3ODg2NzQ5IDE0MC4yOTgzOTU2OSAxLjExMDg1NTEgMTQxLjE2MjQ2MDMzIEMyLjg4NjUzMDY1IDE1My4yNDA5NTQ5OSAyLjg4NjUzMDY1IDE1My4yNDA5NTQ5OSAxLjAxMTcxODc1IDE1Ni45NjA5Mzc1IEMtMS45MTE3Mjg4NCAxNjAuMDgyNzMxMSAtMy43NjA4Nzk4IDE2MS44NTM2OTQ2NiAtOC4xNDkzODM1NCAxNjIuMTQwNDQxODkgQy04Ljk4MDM1NTUzIDE2Mi4xNDcyNjk5IC05LjgxMTMyNzUxIDE2Mi4xNTQwOTc5IC0xMC42Njc0ODA0NyAxNjIuMTYxMTMyODEgQy0xMS42MTIxMTE1MSAxNjIuMTcwNzQwMzYgLTEyLjU1Njc0MjU1IDE2Mi4xODAzNDc5IC0xMy41Mjk5OTg3OCAxNjIuMTkwMjQ2NTggQy0xNC41NDg3NzEwNiAxNjIuMTk0NDk2NDYgLTE1LjU2NzU0MzMzIDE2Mi4xOTg3NDYzNCAtMTYuNjE3MTg3NSAxNjIuMjAzMTI1IEMtMTcuNjY2NDk0NDUgMTYyLjIwODgyNTA3IC0xOC43MTU4MDEzOSAxNjIuMjE0NTI1MTUgLTE5Ljc5NjkwNTUyIDE2Mi4yMjAzOTc5NSBDLTIyLjAxNzc1MDk3IDE2Mi4yMjk4NDY4NiAtMjQuMjM4NjEwNDQgMTYyLjIzNjM4MTUgLTI2LjQ1OTQ3MjY2IDE2Mi4yNDAyMzQzOCBDLTI5Ljg1NDc0MTEyIDE2Mi4yNDk5NDIwOCAtMzMuMjQ5NDA0ODIgMTYyLjI4MDk2Nzg0IC0zNi42NDQ1MzEyNSAxNjIuMzEyNSBDLTM4LjgwMjA3OTc0IDE2Mi4zMTkwMjk5NSAtNDAuOTU5NjMyNTYgMTYyLjMyNDI4MDQ1IC00My4xMTcxODc1IDE2Mi4zMjgxMjUgQy00NC42MzkyNzMyMiAxNjIuMzQ2NjQ1MiAtNDQuNjM5MjczMjIgMTYyLjM0NjY0NTIgLTQ2LjE5MjEwODE1IDE2Mi4zNjU1Mzk1NSBDLTU1LjEyNjUzMzg1IDE2Mi4zMzczNDMgLTU1LjEyNjUzMzg1IDE2Mi4zMzczNDMgLTU5IDE1OSBDLTYxLjE5OTIwNzI0IDE1Ni43NjU5ODMwNCAtNjEuOTUxODY2OTggMTU1LjY1NzY0NTYzIC02Mi4xODE4ODQ3NyAxNTIuNTE0ODkyNTggQy02Mi4wODE5MDE4NiAxNTEuNTQ3MDQ4MzQgLTYxLjk4MTkxODk1IDE1MC41NzkyMDQxIC02MS44Nzg5MDYyNSAxNDkuNTgyMDMxMjUgQy02MS43NjA0NzM2MyAxNDguNDI5MTI1OTggLTYxLjY0MjA0MTAyIDE0Ny4yNzYyMjA3IC02MS41MjAwMTk1MyAxNDYuMDg4Mzc4OTEgQy02MC4zNTYyMjY4OCAxMzYuNjQ2NTA0MSAtNTguOTIyNTEyNTYgMTI3LjI0MDYwODYxIC01Ny41MDg1NDQ5MiAxMTcuODMzNzQwMjMgQy01Ny4wOTMzMjM1MyAxMTUuMDYwNDI0MjcgLTU2LjY4NTA2NzQ1IDExMi4yODYxNDUzOCAtNTYuMjc3MzQzNzUgMTA5LjUxMTcxODc1IEMtNTYuMTQ5MjM4MTMgMTA4LjY3NTA5MjAxIC01Ni4wMjExMzI1MSAxMDcuODM4NDY1MjcgLTU1Ljg4OTE0NDkgMTA2Ljk3NjQ4NjIxIEMtNTUuMTUwMDAzMDYgMTAxLjkyODc2Njc0IC01NC43MDk1NTYzNSA5Ny4xMDMyMDc2NiAtNTUgOTIgQy01Ni44NzU0MTY4OCA4OS44MDEyNTcyNyAtNTYuODc1NDE2ODggODkuODAxMjU3MjcgLTU5LjU2MjUgODguNDM3NSBDLTcxLjA2NDcwMjgxIDgxLjIzNDQyOCAtNzkuMDYxOTA2NDkgNzAuMDI3NjQ0MzEgLTgyLjU4NTkzNzUgNTYuODAwNzgxMjUgQy04NC44NzY2OTg2MiA0MS4zMDU3MjcyNyAtODIuOTM3MTEzMzYgMjYuNjY0MDYyNSAtNzMuOTc2NTYyNSAxMy41NjY0MDYyNSBDLTU2LjYyMTA5MTM2IC04Ljk2ODI2Njc2IC0yNC4zMTg4MTYxMiAtMTcuNjA4NjI0MjYgMCAwIFogIiBmaWxsPSIjNDU1QTYzIiBjbGFzcz0icGF0aDMiIHRyYW5zZm9ybT0idHJhbnNsYXRlKDI4NiwyODYpIi8+JiN4YTs8L3N2Zz4=;movable=1;movableLabel=0;treeMoving=0;" vertex="1" parent="1">
          <mxGeometry x="280" y="520" width="80" height="80" as="geometry" />
        </mxCell>
        <mxCell id="w3d3HwJF83mIlRjUdbyV-6" value="&lt;span&gt;&lt;font style=&quot;color: rgb(255, 255, 255);&quot;&gt;Lock&lt;/font&gt;&lt;/span&gt;" style="text;html=1;align=center;verticalAlign=middle;whiteSpace=wrap;rounded=0;fontSize=16;fontFamily=Tahoma;fontStyle=1" vertex="1" parent="1">
          <mxGeometry x="280" y="600" width="80" height="30" as="geometry" />
        </mxCell>
        <mxCell id="w3d3HwJF83mIlRjUdbyV-7" value="" style="endArrow=none;html=1;rounded=0;strokeWidth=4;strokeColor=#FDE047;" edge="1" parent="1">
          <mxGeometry width="50" height="50" relative="1" as="geometry">
            <mxPoint x="120" y="1040" as="sourcePoint" />
            <mxPoint x="120" y="640" as="targetPoint" />
          </mxGeometry>
        </mxCell>
        <mxCell id="w3d3HwJF83mIlRjUdbyV-8" value="" style="endArrow=none;html=1;rounded=0;strokeWidth=4;strokeColor=#FDE047;" edge="1" parent="1">
          <mxGeometry width="50" height="50" relative="1" as="geometry">
            <mxPoint x="319.28999999999996" y="1040" as="sourcePoint" />
            <mxPoint x="319.28999999999996" y="640" as="targetPoint" />
          </mxGeometry>
        </mxCell>
        <mxCell id="w3d3HwJF83mIlRjUdbyV-9" value="" style="endArrow=none;html=1;rounded=0;strokeWidth=4;strokeColor=#FDE047;" edge="1" parent="1">
          <mxGeometry width="50" height="50" relative="1" as="geometry">
            <mxPoint x="519" y="1040" as="sourcePoint" />
            <mxPoint x="521" y="640" as="targetPoint" />
          </mxGeometry>
        </mxCell>
        <mxCell id="w3d3HwJF83mIlRjUdbyV-10" value="" style="endArrow=classic;html=1;rounded=0;strokeWidth=3;strokeColor=#FFFFFF;" edge="1" parent="1">
          <mxGeometry width="50" height="50" relative="1" as="geometry">
            <mxPoint x="120" y="650" as="sourcePoint" />
            <mxPoint x="320" y="660" as="targetPoint" />
          </mxGeometry>
        </mxCell>
        <mxCell id="w3d3HwJF83mIlRjUdbyV-11" value="&lt;span&gt;&lt;font style=&quot;font-size: 16px; color: rgb(103, 232, 249);&quot;&gt;&lt;b&gt;Accquire&lt;/b&gt;&lt;/font&gt;&lt;/span&gt;" style="edgeLabel;html=1;align=center;verticalAlign=middle;resizable=0;points=[];labelBackgroundColor=#111827;" vertex="1" connectable="0" parent="w3d3HwJF83mIlRjUdbyV-10">
          <mxGeometry x="0.1798" y="-2" relative="1" as="geometry">
            <mxPoint x="-17" y="-7" as="offset" />
          </mxGeometry>
        </mxCell>
        <mxCell id="w3d3HwJF83mIlRjUdbyV-12" value="" style="endArrow=classic;html=1;rounded=0;strokeWidth=3;strokeColor=#FFFFFF;" edge="1" parent="1">
          <mxGeometry width="50" height="50" relative="1" as="geometry">
            <mxPoint x="520" y="650" as="sourcePoint" />
            <mxPoint x="320" y="670" as="targetPoint" />
          </mxGeometry>
        </mxCell>
        <mxCell id="w3d3HwJF83mIlRjUdbyV-13" value="&lt;span&gt;&lt;font style=&quot;font-size: 16px; color: rgb(103, 232, 249);&quot;&gt;&lt;b&gt;Accquire&lt;/b&gt;&lt;/font&gt;&lt;/span&gt;" style="edgeLabel;html=1;align=center;verticalAlign=middle;resizable=0;points=[];labelBackgroundColor=#111827;" vertex="1" connectable="0" parent="w3d3HwJF83mIlRjUdbyV-12">
          <mxGeometry x="0.1798" y="-2" relative="1" as="geometry">
            <mxPoint x="18" y="-7" as="offset" />
          </mxGeometry>
        </mxCell>
        <mxCell id="w3d3HwJF83mIlRjUdbyV-14" value="" style="endArrow=classic;html=1;rounded=0;strokeWidth=3;strokeColor=#FFFFFF;" edge="1" parent="1">
          <mxGeometry width="50" height="50" relative="1" as="geometry">
            <mxPoint x="310" y="680" as="sourcePoint" />
            <mxPoint x="120" y="700" as="targetPoint" />
          </mxGeometry>
        </mxCell>
        <mxCell id="w3d3HwJF83mIlRjUdbyV-19" value="" style="endArrow=classic;html=1;rounded=0;strokeWidth=3;strokeColor=#FFFFFF;edgeStyle=orthogonalEdgeStyle;curved=1;dashed=1;flowAnimation=0;" edge="1" parent="1">
          <mxGeometry width="50" height="50" relative="1" as="geometry">
            <mxPoint x="520" y="660" as="sourcePoint" />
            <mxPoint x="520" y="800" as="targetPoint" />
            <Array as="points">
              <mxPoint x="560" y="660" />
              <mxPoint x="560" y="800" />
            </Array>
          </mxGeometry>
        </mxCell>
        <mxCell id="w3d3HwJF83mIlRjUdbyV-20" value="&lt;span&gt;&lt;font style=&quot;font-size: 16px; color: rgb(103, 232, 249);&quot;&gt;&lt;b&gt;wait&lt;/b&gt;&lt;/font&gt;&lt;/span&gt;" style="edgeLabel;html=1;align=center;verticalAlign=middle;resizable=0;points=[];labelBackgroundColor=#111827;" vertex="1" connectable="0" parent="w3d3HwJF83mIlRjUdbyV-19">
          <mxGeometry x="0.1798" y="-2" relative="1" as="geometry">
            <mxPoint x="2" y="-14" as="offset" />
          </mxGeometry>
        </mxCell>
        <mxCell id="w3d3HwJF83mIlRjUdbyV-21" value="" style="endArrow=classic;html=1;rounded=0;strokeWidth=3;strokeColor=#FFFFFF;edgeStyle=orthogonalEdgeStyle;curved=1;flowAnimation=0;" edge="1" parent="1">
          <mxGeometry width="50" height="50" relative="1" as="geometry">
            <mxPoint x="120" y="720" as="sourcePoint" />
            <mxPoint x="120" y="760" as="targetPoint" />
            <Array as="points">
              <mxPoint x="160" y="720" />
              <mxPoint x="160" y="760" />
              <mxPoint x="120" y="760" />
            </Array>
          </mxGeometry>
        </mxCell>
        <mxCell id="w3d3HwJF83mIlRjUdbyV-22" value="&lt;span&gt;&lt;font style=&quot;font-size: 16px; color: rgb(103, 232, 249);&quot;&gt;&lt;b&gt;process&lt;/b&gt;&lt;/font&gt;&lt;/span&gt;" style="edgeLabel;html=1;align=center;verticalAlign=middle;resizable=0;points=[];labelBackgroundColor=#111827;" vertex="1" connectable="0" parent="w3d3HwJF83mIlRjUdbyV-21">
          <mxGeometry x="0.1798" y="-2" relative="1" as="geometry">
            <mxPoint x="2" y="-14" as="offset" />
          </mxGeometry>
        </mxCell>
        <mxCell id="w3d3HwJF83mIlRjUdbyV-23" value="" style="endArrow=classic;html=1;rounded=0;strokeWidth=3;strokeColor=#FFFFFF;" edge="1" parent="1">
          <mxGeometry width="50" height="50" relative="1" as="geometry">
            <mxPoint x="120" y="770" as="sourcePoint" />
            <mxPoint x="320" y="790" as="targetPoint" />
          </mxGeometry>
        </mxCell>
        <mxCell id="w3d3HwJF83mIlRjUdbyV-24" value="&lt;font color=&quot;#67e8f9&quot;&gt;&lt;span style=&quot;font-size: 16px;&quot;&gt;&lt;b&gt;Release&lt;/b&gt;&lt;/span&gt;&lt;/font&gt;" style="edgeLabel;html=1;align=center;verticalAlign=middle;resizable=0;points=[];labelBackgroundColor=#111827;" vertex="1" connectable="0" parent="w3d3HwJF83mIlRjUdbyV-23">
          <mxGeometry x="0.1798" y="-2" relative="1" as="geometry">
            <mxPoint x="-17" y="-7" as="offset" />
          </mxGeometry>
        </mxCell>
        <mxCell id="w3d3HwJF83mIlRjUdbyV-25" value="" style="endArrow=none;html=1;rounded=0;strokeWidth=3;strokeColor=#FFFFFF;endFill=0;dashed=1;flowAnimation=1;" edge="1" parent="1">
          <mxGeometry width="50" height="50" relative="1" as="geometry">
            <mxPoint x="100" y="810" as="sourcePoint" />
            <mxPoint x="340" y="810" as="targetPoint" />
          </mxGeometry>
        </mxCell>
        <mxCell id="w3d3HwJF83mIlRjUdbyV-26" value="&lt;font style=&quot;font-size: 14px; color: rgb(253, 224, 71);&quot;&gt;&lt;b style=&quot;&quot;&gt;thread 1 finish&lt;/b&gt;&lt;/font&gt;" style="edgeLabel;html=1;align=center;verticalAlign=middle;resizable=0;points=[];labelBackgroundColor=#111827;" vertex="1" connectable="0" parent="w3d3HwJF83mIlRjUdbyV-25">
          <mxGeometry x="0.1798" y="-2" relative="1" as="geometry">
            <mxPoint x="-12" y="-2" as="offset" />
          </mxGeometry>
        </mxCell>
        <mxCell id="w3d3HwJF83mIlRjUdbyV-27" value="" style="endArrow=classic;html=1;rounded=0;strokeWidth=3;strokeColor=#FFFFFF;edgeStyle=orthogonalEdgeStyle;curved=1;flowAnimation=0;" edge="1" parent="1">
          <mxGeometry width="50" height="50" relative="1" as="geometry">
            <mxPoint x="520" y="856" as="sourcePoint" />
            <mxPoint x="520" y="896" as="targetPoint" />
            <Array as="points">
              <mxPoint x="560" y="856" />
              <mxPoint x="560" y="896" />
            </Array>
          </mxGeometry>
        </mxCell>
        <mxCell id="w3d3HwJF83mIlRjUdbyV-28" value="&lt;span&gt;&lt;font style=&quot;font-size: 16px; color: rgb(103, 232, 249);&quot;&gt;&lt;b&gt;process&lt;/b&gt;&lt;/font&gt;&lt;/span&gt;" style="edgeLabel;html=1;align=center;verticalAlign=middle;resizable=0;points=[];labelBackgroundColor=#111827;" vertex="1" connectable="0" parent="w3d3HwJF83mIlRjUdbyV-27">
          <mxGeometry x="0.1798" y="-2" relative="1" as="geometry">
            <mxPoint x="2" y="-14" as="offset" />
          </mxGeometry>
        </mxCell>
        <mxCell id="w3d3HwJF83mIlRjUdbyV-29" value="" style="endArrow=classic;html=1;rounded=0;strokeWidth=3;strokeColor=#FFFFFF;" edge="1" parent="1">
          <mxGeometry width="50" height="50" relative="1" as="geometry">
            <mxPoint x="320" y="820" as="sourcePoint" />
            <mxPoint x="510" y="850" as="targetPoint" />
          </mxGeometry>
        </mxCell>
        <mxCell id="w3d3HwJF83mIlRjUdbyV-31" value="" style="shape=image;aspect=fixed;editableCssRules=.*;image=data:image/svg+xml,PHN2ZyB4bWxucz0iaHR0cDovL3d3dy53My5vcmcvMjAwMC9zdmciIHZlcnNpb249IjEuMSIgd2lkdGg9IjI1NiIgaGVpZ2h0PSIyNTYiPiYjeGE7PHN0eWxlIHR5cGU9InRleHQvY3NzIj4ucGF0aDEgeyBmaWxsOiBsaWdodC1kYXJrKHJnYigyNTMsIDIyNCwgNzEpLCByZ2IoNzgsIDUzLCAwKSk7IH0gPC9zdHlsZT4mI3hhOzxwYXRoIGQ9Ik0wIDAgQzE1LjYxOTkzMjExIDEzLjAyOTA2NjE4IDI2Ljc3MTMyMzU4IDMxLjY3NTA5NjQyIDI5LjQ0OTIxODc1IDUyLjA0Mjk2ODc1IEMzMS41MDA3MzY4NSA3Ny43NDA5MzIzOCAyNi4xMDUxMTAzNCA5OS45ODg2MDIzMSA5LjQ0OTIxODc1IDEyMC4wNDI5Njg3NSBDLTMuOTg4MzU1NzQgMTM1LjI4MjA2NDIyIC0yMy4zOTcxODgxNSAxNDUuMDgwOTAwMTkgLTQzLjU1MDc4MTI1IDE0Ny4wNDI5Njg3NSBDLTUyLjc2MjQ5Nzc4IDE0Ny41ODk5MTQ0MiAtNjEuMzA5NDExNzMgMTQ3LjA2Mjg5NDg1IC03MC4zMjMyNDIxOSAxNDUuMDIyNzA1MDggQy03My43OTA0MzEyNiAxNDQuMjUzOTUxNzIgLTc2LjIxMzYzNzAzIDE0My43NzAyNjE5MSAtNzkuNTUwNzgxMjUgMTQ1LjA0Mjk2ODc1IEMtODEuNzA5ODc2MzMgMTQ2LjgwNTE5NTYzIC04MS43MDk4NzYzMyAxNDYuODA1MTk1NjMgLTgzLjgwODU5Mzc1IDE0OS4wNDI5Njg3NSBDLTg0Ljk5Mzg4NjcyIDE1MC4yNDk1MzEyNSAtODQuOTkzODg2NzIgMTUwLjI0OTUzMTI1IC04Ni4yMDMxMjUgMTUxLjQ4MDQ2ODc1IEMtODcuMDE5MTAxNTYgMTUyLjMyNjA5Mzc1IC04Ny44MzUwNzgxMiAxNTMuMTcxNzE4NzUgLTg4LjY3NTc4MTI1IDE1NC4wNDI5Njg3NSBDLTkwLjMwMTI2ODI2IDE1NS43MTE3MDAzMyAtOTEuOTI4NzcyMzIgMTU3LjM3ODQ3MDI3IC05My41NTg1OTM3NSAxNTkuMDQyOTY4NzUgQy05NC4yNzY3NjI3IDE1OS43ODU0Njg3NSAtOTQuOTk0OTMxNjQgMTYwLjUyNzk2ODc1IC05NS43MzQ4NjMyOCAxNjEuMjkyOTY4NzUgQy05OS4zMzkwNjkzMiAxNjQuNzY2MzQxODIgLTEwMi45NDU0OTAwNyAxNjQuMTU4NTcyMTkgLTEwNy42NzU3ODEyNSAxNjQuMTA1NDY4NzUgQy0xMDguNDI5ODgyODEgMTY0LjEwMDk1NzAzIC0xMDkuMTgzOTg0MzcgMTY0LjA5NjQ0NTMxIC0xMDkuOTYwOTM3NSAxNjQuMDkxNzk2ODggQy0xMTEuODI0MjUyNTIgMTY0LjA4MDAwMzc0IC0xMTMuNjg3NTI2OCAxNjQuMDYyMDY4MTcgLTExNS41NTA3ODEyNSAxNjQuMDQyOTY4NzUgQy0xMTUuNTA0Mzc1IDE2NS4xMzk5NjA5NCAtMTE1LjQ1Nzk2ODc1IDE2Ni4yMzY5NTMxMyAtMTE1LjQxMDE1NjI1IDE2Ny4zNjcxODc1IEMtMTE1LjM3MjYyMzM1IDE2OC44MjE1ODcyNSAtMTE1LjMzNjIyNDgyIDE3MC4yNzYwMTY1OCAtMTE1LjMwMDc4MTI1IDE3MS43MzA0Njg3NSBDLTExNS4yNjcyNjU2MiAxNzIuNDUxNjk5MjIgLTExNS4yMzM3NSAxNzMuMTcyOTI5NjkgLTExNS4xOTkyMTg3NSAxNzMuOTE2MDE1NjIgQy0xMTUuMTMxMTU2NCAxNzcuNjQyNDI5MzYgLTExNS4zNjAxODE2OCAxNzkuNjg3Mjc1NjMgLTExNy4xNTYyNSAxODMuMDM5MDYyNSBDLTEyMC4zMDE0OTYyMyAxODUuNjcxMjE3OTkgLTEyMi4wNjA4NDgzNyAxODUuNTkzMTU5MjUgLTEyNi4xMTMyODEyNSAxODUuNDE3OTY4NzUgQy0xMjcuODE2Nzc3MzQgMTg1LjM2NzY5NTMxIC0xMjcuODE2Nzc3MzQgMTg1LjM2NzY5NTMxIC0xMjkuNTU0Njg3NSAxODUuMzE2NDA2MjUgQy0xMzIuNTUwNzgxMjUgMTg1LjA0Mjk2ODc1IC0xMzIuNTUwNzgxMjUgMTg1LjA0Mjk2ODc1IC0xMzUuNTUwNzgxMjUgMTg0LjA0Mjk2ODc1IEMtMTM1LjU3NjU2MjUgMTg1LjIxMjE0ODQ0IC0xMzUuNjAyMzQzNzUgMTg2LjM4MTMyODEzIC0xMzUuNjI4OTA2MjUgMTg3LjU4NTkzNzUgQy0xMzUuNjg1MjA0OTIgMTg5LjEzNDE1MTAxIC0xMzUuNzQyNTUxODcgMTkwLjY4MjMyNjY1IC0xMzUuODAwNzgxMjUgMTkyLjIzMDQ2ODc1IEMtMTM1LjgxNDk2MDk0IDE5Mi45OTkzOTQ1MyAtMTM1LjgyOTE0MDYyIDE5My43NjgzMjAzMSAtMTM1Ljg0Mzc1IDE5NC41NjA1NDY4OCBDLTEzNi4wMDU4NDkzMiAxOTguMzM3NDYxMDggLTEzNi4zMzU3NDI3OSAyMDAuNjU1Njk1NyAtMTM4LjE5OTIxODc1IDIwNC4wMTE3MTg3NSBDLTE0MS4xNDAzODQwNiAyMDYuNTUyMjYwMjIgLTE0My4wODc2ODA2NSAyMDYuOTEyNjEwOTkgLTE0Ni45MjU3ODEyNSAyMDcuMzU1NDY4NzUgQy0xNDguMDI2NjQwNjIgMjA3LjQ5NTk3NjU2IC0xNDkuMTI3NSAyMDcuNjM2NDg0MzggLTE1MC4yNjE3MTg3NSAyMDcuNzgxMjUgQy0xNTMuMzc1ODAxODcgMjA4LjAyOTA0NTIxIC0xNTYuNDI4NTU2NjggMjA4LjA5NDg0ODYxIC0xNTkuNTUwNzgxMjUgMjA4LjA0Mjk2ODc1IEMtMTU5LjIyMDc4MTI1IDIwOC43MDI5Njg3NSAtMTU4Ljg5MDc4MTI1IDIwOS4zNjI5Njg3NSAtMTU4LjU1MDc4MTI1IDIxMC4wNDI5Njg3NSBDLTE1Ny4zOTQ4MTE1NSAyMTUuNDYzMDEyMTEgLTE1Ni45NTg1NTIwNiAyMjAuOTE3NjY0ODUgLTE1OS41MjkwOTg1MSAyMjUuOTYzMjU2ODQgQy0xNjMuNDQ5MTgzNTMgMjMxLjY4MTA2NjAzIC0xNjguNTA2NzcyMDkgMjM2Ljk0MTQwODU4IC0xNzUuMzMxOTM5NyAyMzguODAwNTM3MTEgQy0xODEuNzk5MzIyNzggMjM5LjczMzYxMzU5IC0xODguMjM1NzUyMDkgMjM5LjYwNjg2Nzg1IC0xOTQuNzQ5NTExNzIgMjM5LjMxODg0NzY2IEMtMTk4LjIwNDgzNzcxIDIzOS4xNjY2ODkyMiAtMjAxLjY1MTA1NDg4IDIzOS4xMTM4MTgxMSAtMjA1LjEwOTM3NSAyMzkuMDc4MTI1IEMtMjA3LjMxMTMyMDg3IDIzOS4wMzI5ODg5OCAtMjA5LjUxMzE2MzM4IDIzOC45ODI0MDY2IC0yMTEuNzE0ODQzNzUgMjM4LjkyNTc4MTI1IEMtMjEyLjc0Mzk2ODgxIDIzOC45MDI1MDc2MyAtMjEzLjc3MzA5Mzg3IDIzOC44NzkyMzQwMSAtMjE0LjgzMzQwNDU0IDIzOC44NTUyNTUxMyBDLTIxNS43ODg5NTIzMyAyMzguODEwMzY5NTcgLTIxNi43NDQ1MDAxMiAyMzguNzY1NDg0MDEgLTIxNy43MjkwMDM5MSAyMzguNzE5MjM4MjggQy0yMTguNTY2MTM5MjIgMjM4LjY4NTg5Mzg2IC0yMTkuNDAzMjc0NTQgMjM4LjY1MjU0OTQ0IC0yMjAuMjY1Nzc3NTkgMjM4LjYxODE5NDU4IEMtMjIzLjU0MzQ1MyAyMzcuNzkzMDc0IC0yMjQuNTc1MTcwMzYgMjM2LjgxMTQ1MzE0IC0yMjYuNTUwNzgxMjUgMjM0LjA0Mjk2ODc1IEMtMjMxLjU3MTM2MDE3IDIxOS4xMDU5MDA3NCAtMjMxLjc0MzMzOTA2IDE5OC44MTcyNzg1IC0yMjYuNTUwNzgxMjUgMTg0LjA0Mjk2ODc1IEMtMjIxLjQ0ODYxOTg1IDE3NC40NDc1NDkzNyAtMjEzLjg2NTIyNTQ3IDE2Ni42ODU5MDU3NSAtMjA2LjE3MTg3NSAxNTkuMTMyODEyNSBDLTIwNS42NjIxMTI2MiAxNTguNjMyMTc4MDQgLTIwNS4xNTIzNTAyNCAxNTguMTMxNTQzNTkgLTIwNC42MjcxNDA1MiAxNTcuNjE1NzM4MzkgQy0xOTguMjY3NTk2NzIgMTUxLjQxMDYwMjI1IC0xOTEuNzEyMTU2OTcgMTQ1LjQzNDE1MyAtMTg1LjA3MzcwNjI3IDEzOS41Mjk5NzM2MyBDLTE3Ny42ODAzMTYxIDEzMi45NDcyNTkyNSAtMTcwLjQ2ODE3NDAxIDEyNi4xNjk2NDQxOCAtMTYzLjI2MjE4NTEgMTE5LjM4MzEwMzM3IEMtMTYyLjE5MzYwNzA2IDExOC4zNzcwOTc1NCAtMTYxLjEyNTAxNjA2IDExNy4zNzExMDU0OCAtMTYwLjA1NjQxMTc0IDExNi4zNjUxMjc1NiBDLTE1OS41MzUxMjU4NyAxMTUuODczODE4ODUgLTE1OS4wMTM4NCAxMTUuMzgyNTEwMTMgLTE1OC40NzY3NTc1OSAxMTQuODc2MzEzMjcgQy0xNTUuMzk1ODQ5NTEgMTExLjk4MTA1MDYgLTE1Mi4yODA4NDI2OCAxMDkuMTMwMDM0NDUgLTE0OS4xMjc4ODU3IDEwNi4zMTM0NDMwNiBDLTE0Ni43Mjc0NzQwOSAxMDQuMTYyNTgxNjggLTE0NC4zNTQ1Mjg5NyAxMDEuOTgxNTY3ODYgLTE0MS45NzQzNjUyMyA5OS44MDgzNDk2MSBDLTE0MC42NjQ1NDQzIDk4LjY3MDI4NjE4IC0xNDAuNjY0NTQ0MyA5OC42NzAyODYxOCAtMTM5LjMyODI2MjMzIDk3LjUwOTIzMTU3IEMtMTM1LjA1Nzk3NTU0IDkzLjc1NDg1NjM4IC0xMzUuMDU3OTc1NTQgOTMuNzU0ODU2MzggLTEzMy4yNDExNTE4MSA4OC42MDAyNjc0MSBDLTEzMy40NzcyMzY2NiA4Ni4zMDMzNDYxMyAtMTMzLjkwMzkyNzc3IDg0LjI1NTQ2NDggLTEzNC41NTA3ODEyNSA4Mi4wNDI5Njg3NSBDLTEzOC44Nzk0OTMzMiA1OS4wMjkxNjg2MiAtMTM0LjQyNjU1MDU4IDM3LjIyODM0NDcxIC0xMjIuMDE1NjI1IDE3LjYxNzE4NzUgQy0xMjAuNjExNDgyOTQgMTUuNjY1NDY5MTUgLTExOS4xMjc1NDk4MSAxMy44NTc1OTUzNCAtMTE3LjU1MDc4MTI1IDEyLjA0Mjk2ODc1IEMtMTE2LjkwNzUzOTA2IDExLjI1NzkyOTY5IC0xMTYuMjY0Mjk2ODcgMTAuNDcyODkwNjMgLTExNS42MDE1NjI1IDkuNjY0MDYyNSBDLTg2LjMwMzAzNjkxIC0yNC43ODkzMjAzNyAtMzQuOTc3MDYwNTMgLTI3LjAzMDEwNTA3IDAgMCBaIE0tNDguODg2NzE4NzUgMjkuMTY0MDYyNSBDLTUzLjI3NDg5NDQ4IDM0LjExODc4Njc0IC01NC4wNTI5NDk0OSAzOS4yMzM3MDIwNCAtNTMuODM5ODQzNzUgNDUuNjE3MTg3NSBDLTUzLjE1NTgwNzQzIDUxLjM1NzU0NjM3IC01MC41MTAzMTg1MiA1NS44NTcxNzIyMSAtNDYuNTUwNzgxMjUgNjAuMDQyOTY4NzUgQy00MC4wODAzMzg5NiA2NC44OTU4MDA0NyAtMzQuNTI1MzM2MTEgNjUuODgzNjU5NzcgLTI2LjU1MDc4MTI1IDY1LjA0Mjk2ODc1IEMtMjAuMzczNjM0NTMgNjMuMjM3Njc1ODcgLTE1Ljk2NjYxOTI4IDU5LjQzMTkzMDYxIC0xMi41NTA3ODEyNSA1NC4wNDI5Njg3NSBDLTkuMjgxNTk5IDQ3LjQwOTE1MzY4IC04LjkyMzYyMzQ1IDQxLjkzMzY4NzM4IC0xMS4yMzgyODEyNSAzNC45NzY1NjI1IEMtMTMuNjI3MjMzNjkgMjkuMzU2MTI1MjkgLTE3LjI4MjEzNDM0IDI2LjAzNjc0MTk1IC0yMi41NTA3ODEyNSAyMy4wNDI5Njg3NSBDLTMyLjc3ODA1MDYgMTkuMjkyOTY5OTkgLTQxLjE2MTQ4NjE4IDIxLjc5Mjc3NDg1IC00OC44ODY3MTg3NSAyOS4xNjQwNjI1IFogIiBmaWxsPSIjMDAwMDAwIiBjbGFzcz0icGF0aDEiIHRyYW5zZm9ybT0idHJhbnNsYXRlKDIyNi41NTA3ODEyNSwxNy45NTcwMzEyNSkiLz4mI3hhOzwvc3ZnPg==;" vertex="1" parent="1">
          <mxGeometry x="210" y="670" width="30" height="30" as="geometry" />
        </mxCell>
        <mxCell id="w3d3HwJF83mIlRjUdbyV-32" value="" style="shape=image;aspect=fixed;editableCssRules=.*;image=data:image/svg+xml,PHN2ZyB4bWxucz0iaHR0cDovL3d3dy53My5vcmcvMjAwMC9zdmciIHZlcnNpb249IjEuMSIgd2lkdGg9IjI1NiIgaGVpZ2h0PSIyNTYiPiYjeGE7PHN0eWxlIHR5cGU9InRleHQvY3NzIj4ucGF0aDEgeyBmaWxsOiBsaWdodC1kYXJrKHJnYigyNTMsIDIyNCwgNzEpLCByZ2IoNzgsIDUzLCAwKSk7IH0gPC9zdHlsZT4mI3hhOzxwYXRoIGQ9Ik0wIDAgQzE1LjYxOTkzMjExIDEzLjAyOTA2NjE4IDI2Ljc3MTMyMzU4IDMxLjY3NTA5NjQyIDI5LjQ0OTIxODc1IDUyLjA0Mjk2ODc1IEMzMS41MDA3MzY4NSA3Ny43NDA5MzIzOCAyNi4xMDUxMTAzNCA5OS45ODg2MDIzMSA5LjQ0OTIxODc1IDEyMC4wNDI5Njg3NSBDLTMuOTg4MzU1NzQgMTM1LjI4MjA2NDIyIC0yMy4zOTcxODgxNSAxNDUuMDgwOTAwMTkgLTQzLjU1MDc4MTI1IDE0Ny4wNDI5Njg3NSBDLTUyLjc2MjQ5Nzc4IDE0Ny41ODk5MTQ0MiAtNjEuMzA5NDExNzMgMTQ3LjA2Mjg5NDg1IC03MC4zMjMyNDIxOSAxNDUuMDIyNzA1MDggQy03My43OTA0MzEyNiAxNDQuMjUzOTUxNzIgLTc2LjIxMzYzNzAzIDE0My43NzAyNjE5MSAtNzkuNTUwNzgxMjUgMTQ1LjA0Mjk2ODc1IEMtODEuNzA5ODc2MzMgMTQ2LjgwNTE5NTYzIC04MS43MDk4NzYzMyAxNDYuODA1MTk1NjMgLTgzLjgwODU5Mzc1IDE0OS4wNDI5Njg3NSBDLTg0Ljk5Mzg4NjcyIDE1MC4yNDk1MzEyNSAtODQuOTkzODg2NzIgMTUwLjI0OTUzMTI1IC04Ni4yMDMxMjUgMTUxLjQ4MDQ2ODc1IEMtODcuMDE5MTAxNTYgMTUyLjMyNjA5Mzc1IC04Ny44MzUwNzgxMiAxNTMuMTcxNzE4NzUgLTg4LjY3NTc4MTI1IDE1NC4wNDI5Njg3NSBDLTkwLjMwMTI2ODI2IDE1NS43MTE3MDAzMyAtOTEuOTI4NzcyMzIgMTU3LjM3ODQ3MDI3IC05My41NTg1OTM3NSAxNTkuMDQyOTY4NzUgQy05NC4yNzY3NjI3IDE1OS43ODU0Njg3NSAtOTQuOTk0OTMxNjQgMTYwLjUyNzk2ODc1IC05NS43MzQ4NjMyOCAxNjEuMjkyOTY4NzUgQy05OS4zMzkwNjkzMiAxNjQuNzY2MzQxODIgLTEwMi45NDU0OTAwNyAxNjQuMTU4NTcyMTkgLTEwNy42NzU3ODEyNSAxNjQuMTA1NDY4NzUgQy0xMDguNDI5ODgyODEgMTY0LjEwMDk1NzAzIC0xMDkuMTgzOTg0MzcgMTY0LjA5NjQ0NTMxIC0xMDkuOTYwOTM3NSAxNjQuMDkxNzk2ODggQy0xMTEuODI0MjUyNTIgMTY0LjA4MDAwMzc0IC0xMTMuNjg3NTI2OCAxNjQuMDYyMDY4MTcgLTExNS41NTA3ODEyNSAxNjQuMDQyOTY4NzUgQy0xMTUuNTA0Mzc1IDE2NS4xMzk5NjA5NCAtMTE1LjQ1Nzk2ODc1IDE2Ni4yMzY5NTMxMyAtMTE1LjQxMDE1NjI1IDE2Ny4zNjcxODc1IEMtMTE1LjM3MjYyMzM1IDE2OC44MjE1ODcyNSAtMTE1LjMzNjIyNDgyIDE3MC4yNzYwMTY1OCAtMTE1LjMwMDc4MTI1IDE3MS43MzA0Njg3NSBDLTExNS4yNjcyNjU2MiAxNzIuNDUxNjk5MjIgLTExNS4yMzM3NSAxNzMuMTcyOTI5NjkgLTExNS4xOTkyMTg3NSAxNzMuOTE2MDE1NjIgQy0xMTUuMTMxMTU2NCAxNzcuNjQyNDI5MzYgLTExNS4zNjAxODE2OCAxNzkuNjg3Mjc1NjMgLTExNy4xNTYyNSAxODMuMDM5MDYyNSBDLTEyMC4zMDE0OTYyMyAxODUuNjcxMjE3OTkgLTEyMi4wNjA4NDgzNyAxODUuNTkzMTU5MjUgLTEyNi4xMTMyODEyNSAxODUuNDE3OTY4NzUgQy0xMjcuODE2Nzc3MzQgMTg1LjM2NzY5NTMxIC0xMjcuODE2Nzc3MzQgMTg1LjM2NzY5NTMxIC0xMjkuNTU0Njg3NSAxODUuMzE2NDA2MjUgQy0xMzIuNTUwNzgxMjUgMTg1LjA0Mjk2ODc1IC0xMzIuNTUwNzgxMjUgMTg1LjA0Mjk2ODc1IC0xMzUuNTUwNzgxMjUgMTg0LjA0Mjk2ODc1IEMtMTM1LjU3NjU2MjUgMTg1LjIxMjE0ODQ0IC0xMzUuNjAyMzQzNzUgMTg2LjM4MTMyODEzIC0xMzUuNjI4OTA2MjUgMTg3LjU4NTkzNzUgQy0xMzUuNjg1MjA0OTIgMTg5LjEzNDE1MTAxIC0xMzUuNzQyNTUxODcgMTkwLjY4MjMyNjY1IC0xMzUuODAwNzgxMjUgMTkyLjIzMDQ2ODc1IEMtMTM1LjgxNDk2MDk0IDE5Mi45OTkzOTQ1MyAtMTM1LjgyOTE0MDYyIDE5My43NjgzMjAzMSAtMTM1Ljg0Mzc1IDE5NC41NjA1NDY4OCBDLTEzNi4wMDU4NDkzMiAxOTguMzM3NDYxMDggLTEzNi4zMzU3NDI3OSAyMDAuNjU1Njk1NyAtMTM4LjE5OTIxODc1IDIwNC4wMTE3MTg3NSBDLTE0MS4xNDAzODQwNiAyMDYuNTUyMjYwMjIgLTE0My4wODc2ODA2NSAyMDYuOTEyNjEwOTkgLTE0Ni45MjU3ODEyNSAyMDcuMzU1NDY4NzUgQy0xNDguMDI2NjQwNjIgMjA3LjQ5NTk3NjU2IC0xNDkuMTI3NSAyMDcuNjM2NDg0MzggLTE1MC4yNjE3MTg3NSAyMDcuNzgxMjUgQy0xNTMuMzc1ODAxODcgMjA4LjAyOTA0NTIxIC0xNTYuNDI4NTU2NjggMjA4LjA5NDg0ODYxIC0xNTkuNTUwNzgxMjUgMjA4LjA0Mjk2ODc1IEMtMTU5LjIyMDc4MTI1IDIwOC43MDI5Njg3NSAtMTU4Ljg5MDc4MTI1IDIwOS4zNjI5Njg3NSAtMTU4LjU1MDc4MTI1IDIxMC4wNDI5Njg3NSBDLTE1Ny4zOTQ4MTE1NSAyMTUuNDYzMDEyMTEgLTE1Ni45NTg1NTIwNiAyMjAuOTE3NjY0ODUgLTE1OS41MjkwOTg1MSAyMjUuOTYzMjU2ODQgQy0xNjMuNDQ5MTgzNTMgMjMxLjY4MTA2NjAzIC0xNjguNTA2NzcyMDkgMjM2Ljk0MTQwODU4IC0xNzUuMzMxOTM5NyAyMzguODAwNTM3MTEgQy0xODEuNzk5MzIyNzggMjM5LjczMzYxMzU5IC0xODguMjM1NzUyMDkgMjM5LjYwNjg2Nzg1IC0xOTQuNzQ5NTExNzIgMjM5LjMxODg0NzY2IEMtMTk4LjIwNDgzNzcxIDIzOS4xNjY2ODkyMiAtMjAxLjY1MTA1NDg4IDIzOS4xMTM4MTgxMSAtMjA1LjEwOTM3NSAyMzkuMDc4MTI1IEMtMjA3LjMxMTMyMDg3IDIzOS4wMzI5ODg5OCAtMjA5LjUxMzE2MzM4IDIzOC45ODI0MDY2IC0yMTEuNzE0ODQzNzUgMjM4LjkyNTc4MTI1IEMtMjEyLjc0Mzk2ODgxIDIzOC45MDI1MDc2MyAtMjEzLjc3MzA5Mzg3IDIzOC44NzkyMzQwMSAtMjE0LjgzMzQwNDU0IDIzOC44NTUyNTUxMyBDLTIxNS43ODg5NTIzMyAyMzguODEwMzY5NTcgLTIxNi43NDQ1MDAxMiAyMzguNzY1NDg0MDEgLTIxNy43MjkwMDM5MSAyMzguNzE5MjM4MjggQy0yMTguNTY2MTM5MjIgMjM4LjY4NTg5Mzg2IC0yMTkuNDAzMjc0NTQgMjM4LjY1MjU0OTQ0IC0yMjAuMjY1Nzc3NTkgMjM4LjYxODE5NDU4IEMtMjIzLjU0MzQ1MyAyMzcuNzkzMDc0IC0yMjQuNTc1MTcwMzYgMjM2LjgxMTQ1MzE0IC0yMjYuNTUwNzgxMjUgMjM0LjA0Mjk2ODc1IEMtMjMxLjU3MTM2MDE3IDIxOS4xMDU5MDA3NCAtMjMxLjc0MzMzOTA2IDE5OC44MTcyNzg1IC0yMjYuNTUwNzgxMjUgMTg0LjA0Mjk2ODc1IEMtMjIxLjQ0ODYxOTg1IDE3NC40NDc1NDkzNyAtMjEzLjg2NTIyNTQ3IDE2Ni42ODU5MDU3NSAtMjA2LjE3MTg3NSAxNTkuMTMyODEyNSBDLTIwNS42NjIxMTI2MiAxNTguNjMyMTc4MDQgLTIwNS4xNTIzNTAyNCAxNTguMTMxNTQzNTkgLTIwNC42MjcxNDA1MiAxNTcuNjE1NzM4MzkgQy0xOTguMjY3NTk2NzIgMTUxLjQxMDYwMjI1IC0xOTEuNzEyMTU2OTcgMTQ1LjQzNDE1MyAtMTg1LjA3MzcwNjI3IDEzOS41Mjk5NzM2MyBDLTE3Ny42ODAzMTYxIDEzMi45NDcyNTkyNSAtMTcwLjQ2ODE3NDAxIDEyNi4xNjk2NDQxOCAtMTYzLjI2MjE4NTEgMTE5LjM4MzEwMzM3IEMtMTYyLjE5MzYwNzA2IDExOC4zNzcwOTc1NCAtMTYxLjEyNTAxNjA2IDExNy4zNzExMDU0OCAtMTYwLjA1NjQxMTc0IDExNi4zNjUxMjc1NiBDLTE1OS41MzUxMjU4NyAxMTUuODczODE4ODUgLTE1OS4wMTM4NCAxMTUuMzgyNTEwMTMgLTE1OC40NzY3NTc1OSAxMTQuODc2MzEzMjcgQy0xNTUuMzk1ODQ5NTEgMTExLjk4MTA1MDYgLTE1Mi4yODA4NDI2OCAxMDkuMTMwMDM0NDUgLTE0OS4xMjc4ODU3IDEwNi4zMTM0NDMwNiBDLTE0Ni43Mjc0NzQwOSAxMDQuMTYyNTgxNjggLTE0NC4zNTQ1Mjg5NyAxMDEuOTgxNTY3ODYgLTE0MS45NzQzNjUyMyA5OS44MDgzNDk2MSBDLTE0MC42NjQ1NDQzIDk4LjY3MDI4NjE4IC0xNDAuNjY0NTQ0MyA5OC42NzAyODYxOCAtMTM5LjMyODI2MjMzIDk3LjUwOTIzMTU3IEMtMTM1LjA1Nzk3NTU0IDkzLjc1NDg1NjM4IC0xMzUuMDU3OTc1NTQgOTMuNzU0ODU2MzggLTEzMy4yNDExNTE4MSA4OC42MDAyNjc0MSBDLTEzMy40NzcyMzY2NiA4Ni4zMDMzNDYxMyAtMTMzLjkwMzkyNzc3IDg0LjI1NTQ2NDggLTEzNC41NTA3ODEyNSA4Mi4wNDI5Njg3NSBDLTEzOC44Nzk0OTMzMiA1OS4wMjkxNjg2MiAtMTM0LjQyNjU1MDU4IDM3LjIyODM0NDcxIC0xMjIuMDE1NjI1IDE3LjYxNzE4NzUgQy0xMjAuNjExNDgyOTQgMTUuNjY1NDY5MTUgLTExOS4xMjc1NDk4MSAxMy44NTc1OTUzNCAtMTE3LjU1MDc4MTI1IDEyLjA0Mjk2ODc1IEMtMTE2LjkwNzUzOTA2IDExLjI1NzkyOTY5IC0xMTYuMjY0Mjk2ODcgMTAuNDcyODkwNjMgLTExNS42MDE1NjI1IDkuNjY0MDYyNSBDLTg2LjMwMzAzNjkxIC0yNC43ODkzMjAzNyAtMzQuOTc3MDYwNTMgLTI3LjAzMDEwNTA3IDAgMCBaIE0tNDguODg2NzE4NzUgMjkuMTY0MDYyNSBDLTUzLjI3NDg5NDQ4IDM0LjExODc4Njc0IC01NC4wNTI5NDk0OSAzOS4yMzM3MDIwNCAtNTMuODM5ODQzNzUgNDUuNjE3MTg3NSBDLTUzLjE1NTgwNzQzIDUxLjM1NzU0NjM3IC01MC41MTAzMTg1MiA1NS44NTcxNzIyMSAtNDYuNTUwNzgxMjUgNjAuMDQyOTY4NzUgQy00MC4wODAzMzg5NiA2NC44OTU4MDA0NyAtMzQuNTI1MzM2MTEgNjUuODgzNjU5NzcgLTI2LjU1MDc4MTI1IDY1LjA0Mjk2ODc1IEMtMjAuMzczNjM0NTMgNjMuMjM3Njc1ODcgLTE1Ljk2NjYxOTI4IDU5LjQzMTkzMDYxIC0xMi41NTA3ODEyNSA1NC4wNDI5Njg3NSBDLTkuMjgxNTk5IDQ3LjQwOTE1MzY4IC04LjkyMzYyMzQ1IDQxLjkzMzY4NzM4IC0xMS4yMzgyODEyNSAzNC45NzY1NjI1IEMtMTMuNjI3MjMzNjkgMjkuMzU2MTI1MjkgLTE3LjI4MjEzNDM0IDI2LjAzNjc0MTk1IC0yMi41NTA3ODEyNSAyMy4wNDI5Njg3NSBDLTMyLjc3ODA1MDYgMTkuMjkyOTY5OTkgLTQxLjE2MTQ4NjE4IDIxLjc5Mjc3NDg1IC00OC44ODY3MTg3NSAyOS4xNjQwNjI1IFogIiBmaWxsPSIjMDAwMDAwIiBjbGFzcz0icGF0aDEiIHRyYW5zZm9ybT0idHJhbnNsYXRlKDIyNi41NTA3ODEyNSwxNy45NTcwMzEyNSkiLz4mI3hhOzwvc3ZnPg==;flowAnimation=1;" vertex="1" parent="1">
          <mxGeometry x="400" y="820" width="30" height="30" as="geometry" />
        </mxCell>
        <mxCell id="w3d3HwJF83mIlRjUdbyV-35" value="" style="endArrow=classic;html=1;rounded=0;strokeWidth=3;strokeColor=#FFFFFF;" edge="1" parent="1">
          <mxGeometry width="50" height="50" relative="1" as="geometry">
            <mxPoint x="518" y="910" as="sourcePoint" />
            <mxPoint x="318" y="940" as="targetPoint" />
          </mxGeometry>
        </mxCell>
        <mxCell id="w3d3HwJF83mIlRjUdbyV-36" value="&lt;font color=&quot;#67e8f9&quot;&gt;&lt;span style=&quot;font-size: 16px;&quot;&gt;&lt;b&gt;Release&lt;/b&gt;&lt;/span&gt;&lt;/font&gt;" style="edgeLabel;html=1;align=center;verticalAlign=middle;resizable=0;points=[];labelBackgroundColor=#111827;" vertex="1" connectable="0" parent="w3d3HwJF83mIlRjUdbyV-35">
          <mxGeometry x="0.1798" y="-2" relative="1" as="geometry">
            <mxPoint x="12" y="4" as="offset" />
          </mxGeometry>
        </mxCell>
        <mxCell id="w3d3HwJF83mIlRjUdbyV-37" value="" style="endArrow=none;html=1;rounded=0;strokeWidth=3;strokeColor=#FFFFFF;endFill=0;dashed=1;flowAnimation=1;" edge="1" parent="1">
          <mxGeometry width="50" height="50" relative="1" as="geometry">
            <mxPoint x="298" y="960" as="sourcePoint" />
            <mxPoint x="538" y="960" as="targetPoint" />
          </mxGeometry>
        </mxCell>
        <mxCell id="w3d3HwJF83mIlRjUdbyV-38" value="&lt;font style=&quot;font-size: 14px; color: rgb(253, 224, 71);&quot;&gt;&lt;b style=&quot;&quot;&gt;thread 2 finish&lt;/b&gt;&lt;/font&gt;" style="edgeLabel;html=1;align=center;verticalAlign=middle;resizable=0;points=[];labelBackgroundColor=#111827;" vertex="1" connectable="0" parent="w3d3HwJF83mIlRjUdbyV-37">
          <mxGeometry x="0.1798" y="-2" relative="1" as="geometry">
            <mxPoint x="-12" y="-2" as="offset" />
          </mxGeometry>
        </mxCell>
        <mxCell id="w3d3HwJF83mIlRjUdbyV-41" value="&lt;font&gt;Producer&lt;/font&gt;" style="rounded=1;whiteSpace=wrap;html=1;fontFamily=Tahoma;fillColor=#EF4444;strokeColor=none;fontColor=#FFFFFF;fontSize=24;fontStyle=1" vertex="1" parent="1">
          <mxGeometry x="60" y="1366" width="160" height="80" as="geometry" />
        </mxCell>
        <mxCell id="w3d3HwJF83mIlRjUdbyV-42" value="&lt;font&gt;Consumer&lt;/font&gt;" style="rounded=1;whiteSpace=wrap;html=1;fontFamily=Tahoma;fillColor=#84CC16;strokeColor=none;fontColor=#FFFFFF;fontSize=24;fontStyle=1" vertex="1" parent="1">
          <mxGeometry x="778" y="1356" width="160" height="90" as="geometry" />
        </mxCell>
        <mxCell id="w3d3HwJF83mIlRjUdbyV-44" value="" style="rounded=1;whiteSpace=wrap;html=1;arcSize=7;strokeColor=none;fillColor=#38BDF8;" vertex="1" parent="1">
          <mxGeometry x="280" y="1290" width="440" height="230" as="geometry" />
        </mxCell>
        <mxCell id="w3d3HwJF83mIlRjUdbyV-45" value="&lt;font style=&quot;font-size: 24px; color: rgb(255, 255, 255);&quot; face=&quot;Tahoma&quot;&gt;&lt;b&gt;Message Queue&lt;/b&gt;&lt;/font&gt;" style="text;html=1;align=center;verticalAlign=middle;whiteSpace=wrap;rounded=0;" vertex="1" parent="1">
          <mxGeometry x="290" y="1290" width="430" height="40" as="geometry" />
        </mxCell>
        <mxCell id="w3d3HwJF83mIlRjUdbyV-46" value="" style="shape=image;aspect=fixed;editableCssRules=.*;image=data:image/svg+xml,PHN2ZyB4bWxucz0iaHR0cDovL3d3dy53My5vcmcvMjAwMC9zdmciIHZlcnNpb249IjEuMSIgd2lkdGg9IjI1NiIgaGVpZ2h0PSIyNTYiPiYjeGE7PHN0eWxlIHR5cGU9InRleHQvY3NzIj4ucGF0aDEgeyBmaWxsOiBsaWdodC1kYXJrKHJnYigyMzksIDY4LCA2OCksIHJnYigyNTUsIDExNiwgMTE2KSk7IH0gPC9zdHlsZT4mI3hhOzxwYXRoIGQ9Ik0wIDAgQzEuOTkzNjA2NjYgLTAuMDA1NDI3NTkgMy45ODcyMDkzMSAtMC4wMTI1NTM4MiA1Ljk4MDgwNDQ0IC0wLjAyMTI0MDIzIEMxMS4zNjkyNTA1MSAtMC4wMzk0MDA2IDE2Ljc1NzM4ODU3IC0wLjAzMjQzNjE4IDIyLjE0NTgzOTY5IC0wLjAxOTcyMzg5IEMyNy43OTk0NjQzOCAtMC4wMDk1NTg0IDMzLjQ1MzA2MzY2IC0wLjAxODk5OTQgMzkuMTA2Njg5NDUgLTAuMDI1MjY4NTUgQzQ4LjU5ODg0MzQ2IC0wLjAzMjUzNDYzIDU4LjA5MDg3Mjc2IC0wLjAyMjk4NDUzIDY3LjU4MzAwNzgxIC0wLjAwMzkwNjI1IEM3OC41Mzg4NTQyMyAwLjAxNzg2MDQxIDg5LjQ5NDQwMjg0IDAuMDEwODA4MzEgMTAwLjQ1MDI0MjA0IC0wLjAxMTIxMTg3IEMxMDkuODc2NDg1OSAtMC4wMjkzOTU0OCAxMTkuMzAyNjQwNCAtMC4wMzE5MDk3MSAxMjguNzI4ODk2MTQgLTAuMDIxNDU3MiBDMTM0LjM1MDEyNjI5IC0wLjAxNTIzODU2IDEzOS45NzEyMTY3MSAtMC4wMTQzNDE3MiAxNDUuNTkyNDM3NzQgLTAuMDI3NjAzMTUgQzE1MC44Nzg1NTUxNSAtMC4wMzkyMDQxMyAxNTYuMTY0MjkwNiAtMC4wMzEwNTg0MSAxNjEuNDUwMzY2OTcgLTAuMDA4MDI2MTIgQzE2My4zODQwNDMzIC0wLjAwMjc2MTY5IDE2NS4zMTc3NTIwNyAtMC4wMDQyMTM3MyAxNjcuMjUxNDE1MjUgLTAuMDEzMDc2NzggQzE4MC41MTUxNTc3OCAtMC4wNjgyNDE2IDE5Mi4xNjQ0MDY3MSAwLjMyNTUxODY2IDIwMi4xODM1OTM3NSAxMC4xNDY0ODQzOCBDMjA5LjIwNDQzMjMgMTguNDA1NDk0MDcgMjExLjQzMjk2Mzg4IDI2Ljc2Njk1MTc0IDIxMC43NzM0Mzc1IDM3LjM4ODY3MTg4IEMyMDkuNzQ0ODc4NDggNDYuNzUzNTE4NDcgMjA0Ljg5Mjg1ODc2IDUzLjYyNzQ0MDM2IDE5OC4wMzEyNSA1OS43OTg4MjgxMiBDMTg3LjIzOTQ2NjI2IDY2LjM0ODMyNDQ2IDE3Ni42MDkyOTQyMSA2Ni4wOTExMjUzOSAxNjQuMzk4NDM3NSA2Ni4wMzUxNTYyNSBDMTYyLjQwNDgzMDg0IDY2LjA0MDU4Mzg0IDE2MC40MTEyMjgxOSA2Ni4wNDc3MTAwNyAxNTguNDE3NjMzMDYgNjYuMDU2Mzk2NDggQzE1My4wMjkxODY5OSA2Ni4wNzQ1NTY4NSAxNDcuNjQxMDQ4OTMgNjYuMDY3NTkyNDMgMTQyLjI1MjU5NzgxIDY2LjA1NDg4MDE0IEMxMzYuNTk4OTczMTIgNjYuMDQ0NzE0NjUgMTMwLjk0NTM3Mzg0IDY2LjA1NDE1NTY1IDEyNS4yOTE3NDgwNSA2Ni4wNjA0MjQ4IEMxMTUuNzk5NTk0MDQgNjYuMDY3NjkwODggMTA2LjMwNzU2NDc0IDY2LjA1ODE0MDc4IDk2LjgxNTQyOTY5IDY2LjAzOTA2MjUgQzg1Ljg1OTU4MzI3IDY2LjAxNzI5NTg0IDc0LjkwNDAzNDY2IDY2LjAyNDM0Nzk0IDYzLjk0ODE5NTQ2IDY2LjA0NjM2ODEyIEM1NC41MjE5NTE2IDY2LjA2NDU1MTczIDQ1LjA5NTc5NzEgNjYuMDY3MDY1OTYgMzUuNjY5NTQxMzYgNjYuMDU2NjEzNDUgQzMwLjA0ODMxMTIxIDY2LjA1MDM5NDgxIDI0LjQyNzIyMDc5IDY2LjA0OTQ5Nzk3IDE4LjgwNTk5OTc2IDY2LjA2Mjc1OTQgQzEzLjUxOTg4MjM1IDY2LjA3NDM2MDM4IDguMjM0MTQ2OSA2Ni4wNjYyMTQ2NiAyLjk0ODA3MDUzIDY2LjA0MzE4MjM3IEMxLjAxNDM5NDIgNjYuMDM3OTE3OTQgLTAuOTE5MzE0NTcgNjYuMDM5MzY5OTggLTIuODUyOTc3NzUgNjYuMDQ4MjMzMDMgQy0xNi4xMTY3MjAyOCA2Ni4xMDMzOTc4NSAtMjcuNzY1OTY5MjEgNjUuNzA5NjM3NTkgLTM3Ljc4NTE1NjI1IDU1Ljg4ODY3MTg4IEMtNDQuODA1OTk0OCA0Ny42Mjk2NjIxOCAtNDcuMDM0NTI2MzggMzkuMjY4MjA0NTEgLTQ2LjM3NSAyOC42NDY0ODQzOCBDLTQ1LjM0NjQ0MDk4IDE5LjI4MTYzNzc4IC00MC40OTQ0MjEyNiAxMi40MDc3MTU4OSAtMzMuNjMyODEyNSA2LjIzNjMyODEyIEMtMjIuODQxMDI4NzYgLTAuMzEzMTY4MjEgLTEyLjIxMDg1NjcxIC0wLjA1NTk2OTE0IDAgMCBaIE0tMTIuODAwNzgxMjUgMTguNTE3NTc4MTIgQy0xNi4yNDgwNDY3OCAyMS42NDc1MjIxNCAtMTkuNTYzNTAzOTkgMjUuMTM3MDI1OTcgLTIwLjAzOTA2MjUgMjkuOTA4MjAzMTIgQy0yMC4xOTcxNTAzMyAzNS45OTg3NDQ5MSAtMjAuMDY1NjkwNjYgMzkuNzkxNTk3NDMgLTE1LjgwMDc4MTI1IDQ0LjUxNzU3ODEyIEMtMTIuMDEwOTIxNjMgNDguMzA3NDM3NzUgLTguMTMyNTI2MDUgNTAuMTkyNzA0NzkgLTIuODAwNzgxMjUgNTAuNTE3NTc4MTIgQzMuNTA5OTAyMzIgNDkuNjgzMjg0MzcgNy4yNTkwMzg2NSA0Ny4xMDY5Nzc0MiAxMS4xMDU0Njg3NSA0Mi4xMzg2NzE4OCBDMTQuMTM5MTEwNTggMzcuNjQyMzgxMyAxMy43MzQ5MTc3OCAzMi43Nzc4NDQ5NSAxMy4xOTkyMTg3NSAyNy41MTc1NzgxMiBDMTAuNzc4MDI1OTQgMjIuNTg1NTE4NjkgNy40OTU1MzA4OSAxOC45ODUwMTUzMyAyLjQxNzk2ODc1IDE2LjcyNDYwOTM4IEMtMy4xNDA1NDIxOSAxNC45MDQ4NTg3NyAtNy43MjQ4MDIyIDE1LjY1MTgwMzk3IC0xMi44MDA3ODEyNSAxOC41MTc1NzgxMiBaIE03MC4xOTkyMTg3NSAyMC41MTc1NzgxMiBDNjYuMDg1NDI5NTYgMjUuODIyMjAxMDIgNjQuNjQ4OTY4MjggMjkuODA0NTIyMzcgNjUuMTk5MjE4NzUgMzYuNTE3NTc4MTIgQzY3LjAwOTE0NDg3IDQxLjc4OTk3MTYgNjkuNDMzNzQyNTcgNDUuNDYyNzg1NyA3NC4xOTkyMTg3NSA0OC41MTc1NzgxMiBDNzkuMDUyODc1MTYgNTAuMTM1NDYzNiA4NC4zNTU1NTAwNCA1MC40NTY1MjUzNCA4OS4yNjk1MzEyNSA0OC44MzM5ODQzOCBDOTQuNTUzNjM3NzQgNDYuMDc3NTU2NTMgOTcuMzQ5NTUyMTIgNDIuMDY2NTc4IDk5LjE5OTIxODc1IDM2LjUxNzU3ODEyIEM5OS43ODYzOTUyNyAzMC41MjgzNzc1NyA5OC41MDQ4ODk0OSAyNi40MjI3NjY5NiA5NS4xOTkyMTg3NSAyMS41MTc1NzgxMiBDOTAuMzM4ODI1NDkgMTYuODk0Mjc3MjEgODYuMjcyOTg0MTkgMTYuMTU0OTEyMTEgNzkuNzY5NTMxMjUgMTYuMjQwMjM0MzggQzc1LjYxMzk3NjI5IDE2LjY4ODYzMDEyIDczLjU0MjAzMzcgMTcuOTc3MDM4NzYgNzAuMTk5MjE4NzUgMjAuNTE3NTc4MTIgWiBNMTU4LjE5OTIxODc1IDE4LjUxNzU3ODEyIEMxNTQuNzUxOTUzMjIgMjEuNjQ3NTIyMTQgMTUxLjQzNjQ5NjAxIDI1LjEzNzAyNTk3IDE1MC45NjA5Mzc1IDI5LjkwODIwMzEyIEMxNTAuODAyODQ5NjcgMzUuOTk4NzQ0OTEgMTUwLjkzNDMwOTM0IDM5Ljc5MTU5NzQzIDE1NS4xOTkyMTg3NSA0NC41MTc1NzgxMiBDMTU4Ljk4OTA3ODM3IDQ4LjMwNzQzNzc1IDE2Mi44Njc0NzM5NSA1MC4xOTI3MDQ3OSAxNjguMTk5MjE4NzUgNTAuNTE3NTc4MTIgQzE3NC41MDk5MDIzMiA0OS42ODMyODQzNyAxNzguMjU5MDM4NjUgNDcuMTA2OTc3NDIgMTgyLjEwNTQ2ODc1IDQyLjEzODY3MTg4IEMxODUuMTM5MTEwNTggMzcuNjQyMzgxMyAxODQuNzM0OTE3NzggMzIuNzc3ODQ0OTUgMTg0LjE5OTIxODc1IDI3LjUxNzU3ODEyIEMxODEuNzc4MDI1OTQgMjIuNTg1NTE4NjkgMTc4LjQ5NTUzMDg5IDE4Ljk4NTAxNTMzIDE3My40MTc5Njg3NSAxNi43MjQ2MDkzOCBDMTY3Ljg1OTQ1NzgxIDE0LjkwNDg1ODc3IDE2My4yNzUxOTc4IDE1LjY1MTgwMzk3IDE1OC4xOTkyMTg3NSAxOC41MTc1NzgxMiBaICIgZmlsbD0iIzAwMDAwMCIgY2xhc3M9InBhdGgxIiB0cmFuc2Zvcm09InRyYW5zbGF0ZSg0NS44MDA3ODEyNSwxNTEuNDgyNDIxODc1KSIvPiYjeGE7PHBhdGggZD0iTTAgMCBDMS42Mzk4NDUyNSAwLjAwMDUwMDcyIDMuMjc5NzEyMzEgMC4wMTE1NjkzMSA0LjkxOTQzMzU5IDAuMDMxNzM4MjggQzYuMDY2NDE3MjQgMC4wMzQ3NTk1MiA2LjA2NjQxNzI0IDAuMDM0NzU5NTIgNy4yMzY1NzIyNyAwLjAzNzg0MTggQzEwLjA5NzA2NjEgMC4wNDgzMTc3MiAxMi45NTc0NzQ1MyAwLjA3NjI0MDI5IDE1LjgxNzg3MTA5IDAuMTAyMDUwNzggQzI1LjQwODQ5NjA5IDAuMTYzOTI1NzggMjUuNDA4NDk2MDkgMC4xNjM5MjU3OCAzNS4xOTI4NzEwOSAwLjIyNzA1MDc4IEMzNS41MjI4NzEwOSAxNS4wNzcwNTA3OCAzNS44NTI4NzEwOSAyOS45MjcwNTA3OCAzNi4xOTI4NzEwOSA0NS4yMjcwNTA3OCBDMzcuMTgyODcxMDkgNDUuMjI3MDUwNzggMzguMTcyODcxMDkgNDUuMjI3MDUwNzggMzkuMTkyODcxMDkgNDUuMjI3MDUwNzggQzM5LjUyMjg3MTA5IDMwLjM3NzA1MDc4IDM5Ljg1Mjg3MTA5IDE1LjUyNzA1MDc4IDQwLjE5Mjg3MTA5IDAuMjI3MDUwNzggQzQ2Ljc3MjI0NjA5IDAuMjA2NDI1NzggNTMuMzUxNjIxMDkgMC4xODU4MDA3OCA2MC4xMzAzNzEwOSAwLjE2NDU1MDc4IEM2Mi4yMDk1NDgzNCAwLjE1NTQ0Njc4IDY0LjI4ODcyNTU5IDAuMTQ2MzQyNzcgNjYuNDMwOTA4MiAwLjEzNjk2Mjg5IEM2OC4wNjkwMDk3NiAwLjEzNDA0Mzc3IDY5LjcwNzExMjAzIDAuMTMxNDk1MiA3MS4zNDUyMTQ4NCAwLjEyOTM5NDUzIEM3Mi42MzMwNDg3MSAwLjEyMTcyMDU4IDcyLjYzMzA0ODcxIDAuMTIxNzIwNTggNzMuOTQ2ODk5NDEgMC4xMTM4OTE2IEM3Ni4wMjkyMzE2MSAwLjExMzU4MTY4IDc4LjExMTQ3NDY5IDAuMTY0NjI5MDMgODAuMTkyODcxMDkgMC4yMjcwNTA3OCBDODEuOTY3NTczNTcgMi4wMDE3NTMyNiA4MS4zMTkwNzk3MSA0LjM3MDk1MDMxIDgxLjMyODM5OTY2IDYuNzM0NTczMzYgQzgxLjMyNTM2MzMxIDcuOTE5MDQzMDUgODEuMzI1MzYzMzEgNy45MTkwNDMwNSA4MS4zMjIyNjU2MiA5LjEyNzQ0MTQxIEM4MS4zMjQ4OTQxIDEwLjM2ODgzMTI1IDgxLjMyNDg5NDEgMTAuMzY4ODMxMjUgODEuMzI3NTc1NjggMTEuNjM1Mjk5NjggQzgxLjMzMTk5NTAyIDE0LjM4NDY1NDQgODEuMzI5MDU1OTMgMTcuMTMzOTQ1MzUgODEuMzI1NjgzNTkgMTkuODgzMzAwNzggQzgxLjMyNjM1NjYxIDIxLjc4NTE5NzA3IDgxLjMyNzMyNjYxIDIzLjY4NzA5MzI3IDgxLjMyODU4Mjc2IDI1LjU4ODk4OTI2IEM4MS4zMzAwNTk4NSAyOS41ODA0OTMzMyA4MS4zMjc5MDQ4NCAzMy41NzE5NzUwOCA4MS4zMjMyNDIxOSAzNy41NjM0NzY1NiBDODEuMzE3NTQ0ODkgNDIuNjkxOTU1ODUgODEuMzIwODIzODQgNDcuODIwMzgyODEgODEuMzI2ODE0NjUgNTIuOTQ4ODYwMTcgQzgxLjMzMDQxOTk4IDU2Ljg3Nzc5MTMyIDgxLjMyOTI4MTgxIDYwLjgwNjcwOTk2IDgxLjMyNjY4Njg2IDY0LjczNTY0MTQ4IEM4MS4zMjYwMTc1MSA2Ni42MjcxNzE5IDgxLjMyNjg0NjI4IDY4LjUxODcwMzQzIDgxLjMyOTE2NjQxIDcwLjQxMDIzMjU0IEM4MS4zMzE2OTI0OCA3My4wNDkwNzI1NSA4MS4zMjc4NTMwMSA3NS42ODc4MjY1OSA4MS4zMjIyNjU2MiA3OC4zMjY2NjAxNiBDODEuMzI0Mjg5ODYgNzkuMTE2MzA2NjEgODEuMzI2MzE0MDkgNzkuOTA1OTUzMDYgODEuMzI4Mzk5NjYgODAuNzE5NTI4MiBDODEuMzA3MTMzNjEgODYuMTEyNzg4MjcgODEuMzA3MTMzNjEgODYuMTEyNzg4MjcgODAuMTkyODcxMDkgODcuMjI3MDUwNzggQzc3LjU1MDg3MDQ4IDg3LjMyNzQ4MzQ5IDc0LjkzNDk4NTE5IDg3LjM2MzIxOTI4IDcyLjI5MjQ4MDQ3IDg3LjM1NjQ0NTMxIEM3MS4wNTEwOTA2MiA4Ny4zNTkwNzM3OSA3MS4wNTEwOTA2MiA4Ny4zNTkwNzM3OSA2OS43ODQ2MjIxOSA4Ny4zNjE3NTUzNyBDNjcuMDM1MjY3NDcgODcuMzY2MTc0NzEgNjQuMjg1OTc2NTIgODcuMzYzMjM1NjEgNjEuNTM2NjIxMDkgODcuMzU5ODYzMjggQzU5LjYzNDcyNDgxIDg3LjM2MDUzNjMgNTcuNzMyODI4NjEgODcuMzYxNTA2MyA1NS44MzA5MzI2MiA4Ny4zNjI3NjI0NSBDNTEuODM5NDI4NTQgODcuMzY0MjM5NTQgNDcuODQ3OTQ2OCA4Ny4zNjIwODQ1MyA0My44NTY0NDUzMSA4Ny4zNTc0MjE4OCBDMzguNzI3OTY2MDMgODcuMzUxNzI0NTggMzMuNTk5NTM5MDcgODcuMzU1MDAzNTMgMjguNDcxMDYxNzEgODcuMzYwOTk0MzQgQzI0LjU0MjEzMDU2IDg3LjM2NDU5OTY3IDIwLjYxMzIxMTkxIDg3LjM2MzQ2MTUgMTYuNjg0MjgwNCA4Ny4zNjA4NjY1NSBDMTQuNzkyNzQ5OTggODcuMzYwMTk3MiAxMi45MDEyMTg0NCA4Ny4zNjEwMjU5NyAxMS4wMDk2ODkzMyA4Ny4zNjMzNDYxIEM4LjM3MDg0OTMzIDg3LjM2NTg3MjE2IDUuNzMyMDk1MjggODcuMzYyMDMyNjkgMy4wOTMyNjE3MiA4Ny4zNTY0NDUzMSBDMS45MDg3OTIwNCA4Ny4zNTk0ODE2NiAxLjkwODc5MjA0IDg3LjM1OTQ4MTY2IDAuNzAwMzkzNjggODcuMzYyNTc5MzUgQy00LjY5Mjg2NjM5IDg3LjM0MTMxMzMgLTQuNjkyODY2MzkgODcuMzQxMzEzMyAtNS44MDcxMjg5MSA4Ni4yMjcwNTA3OCBDLTUuOTEyODYyMTkgODMuNjIwOTI5OTcgLTUuOTUzOTA5NjYgODEuMDQxMTczMDggLTUuOTUyMzkyNTggNzguNDM0MzI2MTcgQy01Ljk1NTc1MTE5IDc3LjYxODA5MjggLTUuOTU5MTA5OCA3Ni44MDE4NTk0NCAtNS45NjI1NzAxOSA3NS45NjA4OTE3MiBDLTUuOTcyMTA5MjMgNzMuMjQ4ODE0OSAtNS45NzQwMjQ3NyA3MC41MzY3OTk2MSAtNS45NzUwOTc2NiA2Ny44MjQ3MDcwMyBDLTUuOTc4MzA4MTcgNjUuOTQ3NjI2NDggLTUuOTgxNjcyMDggNjQuMDcwNTQ2MTkgLTUuOTg1MTgzNzIgNjIuMTkzNDY2MTkgQy01Ljk5MTE4MjM3IDU4LjI1MzIzOTEzIC01Ljk5MzAyMjg2IDU0LjMxMzAzNDA0IC01Ljk5MjQzMTY0IDUwLjM3MjgwMjczIEMtNS45OTIzMjk5NyA0NS4zMTM4ODQ0NSAtNi4wMDU5ODM3MiA0MC4yNTUxMDYzOCAtNi4wMjMyMDM4NSAzNS4xOTYyMjEzNSBDLTYuMDM0MzAwNTIgMzEuMzE3ODU5MzggLTYuMDM2MzUxNTcgMjcuNDM5NTMxNTUgLTYuMDM1ODIxOTEgMjMuNTYxMTU1MzIgQy02LjAzNzAwNTUgMjEuNjk1NTY2MzUgLTYuMDQxNDQ4MzMgMTkuODI5OTc2NTkgLTYuMDQ5MTU0MjggMTcuOTY0NDAzMTUgQy02LjA1ODkwNzM1IDE1LjM1OTIyNDM4IC02LjA1NjA5NDgzIDEyLjc1NDM1MzIyIC02LjA1MDA0ODgzIDEwLjE0OTE2OTkyIEMtNi4wNTU2NjgzMyA5LjM3MjQ2OTQ4IC02LjA2MTI4Nzg0IDguNTk1NzY5MDQgLTYuMDY3MDc3NjQgNy43OTU1MzIyMyBDLTYuMDM0NDc0MzUgMi4yOTE2MDM4NiAtNS45ODg0OTIyMiAwLjM1NzE0MzYzIDAgMCBaICIgZmlsbD0iIzAwMDAwMCIgY2xhc3M9InBhdGgxIiB0cmFuc2Zvcm09InRyYW5zbGF0ZSgxMzkuODA3MTI4OTA2MjUsMzguNzcyOTQ5MjE4NzUpIi8+JiN4YTs8cGF0aCBkPSJNMCAwIEMxLjY4NzQyNjg5IDAuMDAwMjUxMTQgMy4zNzQ4NTg5MSAwLjAwNTgxNDI3IDUuMDYyMjU1ODYgMC4wMTU4NjkxNCBDNi4yNDAyMzc0MyAwLjAxNzM3OTc2IDYuMjQwMjM3NDMgMC4wMTczNzk3NiA3LjQ0MjAxNjYgMC4wMTg5MjA5IEMxMC4zODcwNTkwNCAwLjAyNDE2OTAxIDEzLjMzMjA4MDczIDAuMDM4MTMwMTYgMTYuMjc3MDk5NjEgMC4wNTEwMjUzOSBDMjIuODU2NDc0NjEgMC4wNzE2NTAzOSAyOS40MzU4NDk2MSAwLjA5MjI3NTM5IDM2LjIxNDU5OTYxIDAuMTEzNTI1MzkgQzM2LjU0NDU5OTYxIDE0Ljk2MzUyNTM5IDM2Ljg3NDU5OTYxIDI5LjgxMzUyNTM5IDM3LjIxNDU5OTYxIDQ1LjExMzUyNTM5IEMzOC4yMDQ1OTk2MSA0NS4xMTM1MjUzOSAzOS4xOTQ1OTk2MSA0NS4xMTM1MjUzOSA0MC4yMTQ1OTk2MSA0NS4xMTM1MjUzOSBDNDAuNTQ0NTk5NjEgMzAuMjYzNTI1MzkgNDAuODc0NTk5NjEgMTUuNDEzNTI1MzkgNDEuMjE0NTk5NjEgMC4xMTM1MjUzOSBDNDcuNjA4MzQ5NjEgMC4wNzIyNzUzOSA1NC4wMDIwOTk2MSAwLjAzMTAyNTM5IDYwLjU4OTU5OTYxIC0wLjAxMTQ3NDYxIEM2Mi42MDc0NjU4MiAtMC4wMjk2ODI2MiA2NC42MjUzMzIwMyAtMC4wNDc4OTA2MyA2Ni43MDQzNDU3IC0wLjA2NjY1MDM5IEM2OC4yOTg5MDY3OSAtMC4wNzI0OTAxMiA2OS44OTM0NzA4NiAtMC4wNzc1ODY5IDcxLjQ4ODAzNzExIC0wLjA4MTc4NzExIEM3Mi4zMTk4ODUyNSAtMC4wOTIwMTkwNCA3My4xNTE3MzM0IC0wLjEwMjI1MDk4IDc0LjAwODc4OTA2IC0wLjExMjc5Mjk3IEM3Ni4wNzg3Njc2MiAtMC4xMTM0MjUwMiA3OC4xNDgyOTIzNCAtMC4wMDk3MDU3MSA4MC4yMTQ1OTk2MSAwLjExMzUyNTM5IEM4Mi43NDY0NTg0MSAyLjY0NTM4NDIgODIuNDU0MDkzMzIgNC4yMjg4ODk5MSA4Mi40NzQ1NDgzNCA3LjY4MjAwNjg0IEM4Mi40Njg5Mjg4MyA4LjQ1ODcwNzI4IDgyLjQ2MzMwOTMzIDkuMjM1NDA3NzEgODIuNDU3NTE5NTMgMTAuMDM1NjQ0NTMgQzgyLjQ1OTQxNzg4IDEwLjg1MzYzMDIyIDgyLjQ2MTMxNjIyIDExLjY3MTYxNTkxIDgyLjQ2MzI3MjA5IDEyLjUxNDM4OTA0IEM4Mi40NjY5ODU1MiAxNS4yMjU5MTY1MSA4Mi40NTYyNjg1MSAxNy45MzcxNzc4NiA4Mi40NDUwNjgzNiAyMC42NDg2ODE2NCBDODIuNDQzODc2ODcgMjIuNTI2NzI3OTkgODIuNDQzNDIzMzMgMjQuNDA0Nzc0OTQgODIuNDQzNjc5ODEgMjYuMjgyODIxNjYgQzgyLjQ0MjExNDAyIDMwLjIyMTMwMDQ4IDgyLjQzMzgxNjQxIDM0LjE1OTY4ODU0IDgyLjQyMDQxMDE2IDM4LjA5ODE0NDUzIEM4Mi40MDM0MDg1MSA0My4xNTgyMjA2NiA4Mi4zOTk1OTYwOSA0OC4yMTgxOTcwMyA4Mi40MDAzNTUzNCA1My4yNzgyOTgzOCBDODIuNDAwMDg0MDQgNTcuMTU2NjIwODkgODIuMzk0NjA5NDQgNjEuMDM0OTIxNCA4Mi4zODczNTM5IDY0LjkxMzIzNjYyIEM4Mi4zODQxNjE2NCA2Ni43Nzk2NDU1IDgyLjM4MjE5ODUzIDY4LjY0NjA1Njg4IDgyLjM4MTQ2MDE5IDcwLjUxMjQ2ODM0IEM4Mi4zNzkzMDMxNiA3My4xMTUyODk0OCA4Mi4zNzA1NzMyIDc1LjcxODAwMjY1IDgyLjM1OTg2MzI4IDc4LjMyMDgwMDc4IEM4Mi4zNjAzMTY0NyA3OS4wOTk1MjU0NSA4Mi4zNjA3Njk2NSA3OS44NzgyNTAxMiA4Mi4zNjEyMzY1NyA4MC42ODA1NzI1MSBDODIuMzI5MDc0MjUgODUuOTk5MDUwNzUgODIuMzI5MDc0MjUgODUuOTk5MDUwNzUgODEuMjE0NTk5NjEgODcuMTEzNTI1MzkgQzc4LjU3MjU5OSA4Ny4yMTM5NTgxIDc1Ljk1NjcxMzcxIDg3LjI0OTY5Mzg5IDczLjMxNDIwODk4IDg3LjI0MjkxOTkyIEM3Mi4wNzI4MTkxNCA4Ny4yNDU1NDg0IDcyLjA3MjgxOTE0IDg3LjI0NTU0ODQgNzAuODA2MzUwNzEgODcuMjQ4MjI5OTggQzY4LjA1Njk5NTk5IDg3LjI1MjY0OTMyIDY1LjMwNzcwNTA0IDg3LjI0OTcxMDIyIDYyLjU1ODM0OTYxIDg3LjI0NjMzNzg5IEM2MC42NTY0NTMzMiA4Ny4yNDcwMTA5MSA1OC43NTQ1NTcxMiA4Ny4yNDc5ODA5MSA1Ni44NTI2NjExMyA4Ny4yNDkyMzcwNiBDNTIuODYxMTU3MDYgODcuMjUwNzE0MTQgNDguODY5Njc1MzEgODcuMjQ4NTU5MTQgNDQuODc4MTczODMgODcuMjQzODk2NDggQzM5Ljc0OTY5NDU0IDg3LjIzODE5OTE5IDM0LjYyMTI2NzU4IDg3LjI0MTQ3ODE0IDI5LjQ5Mjc5MDIyIDg3LjI0NzQ2ODk1IEMyNS41NjM4NTkwNyA4Ny4yNTEwNzQyOCAyMS42MzQ5NDA0MyA4Ny4yNDk5MzYxMSAxNy43MDYwMDg5MSA4Ny4yNDczNDExNiBDMTUuODE0NDc4NDkgODcuMjQ2NjcxODEgMTMuOTIyOTQ2OTYgODcuMjQ3NTAwNTggMTIuMDMxNDE3ODUgODcuMjQ5ODIwNzEgQzkuMzkyNTc3ODQgODcuMjUyMzQ2NzcgNi43NTM4MjM4IDg3LjI0ODUwNzMgNC4xMTQ5OTAyMyA4Ny4yNDI5MTk5MiBDMi45MzA1MjA1NSA4Ny4yNDU5NTYyNyAyLjkzMDUyMDU1IDg3LjI0NTk1NjI3IDEuNzIyMTIyMTkgODcuMjQ5MDUzOTYgQy0zLjY3MTEzNzg4IDg3LjIyNzc4NzkxIC0zLjY3MTEzNzg4IDg3LjIyNzc4NzkxIC00Ljc4NTQwMDM5IDg2LjExMzUyNTM5IEMtNC44ODU4MzMxIDgzLjQ3MTUyNDc4IC00LjkyMTU2ODg5IDgwLjg1NTYzOTQ5IC00LjkxNDc5NDkyIDc4LjIxMzEzNDc3IEMtNC45MTY1NDcyNCA3Ny4zODU1NDE1MyAtNC45MTgyOTk1NiA3Ni41NTc5NDgzIC00LjkyMDEwNDk4IDc1LjcwNTI3NjQ5IEMtNC45MjQ1MjQzMiA3Mi45NTU5MjE3NyAtNC45MjE1ODUyMiA3MC4yMDY2MzA4MiAtNC45MTgyMTI4OSA2Ny40NTcyNzUzOSBDLTQuOTE4ODg1OTEgNjUuNTU1Mzc5MTEgLTQuOTE5ODU1OTEgNjMuNjUzNDgyOSAtNC45MjExMTIwNiA2MS43NTE1ODY5MSBDLTQuOTIyNTg5MTQgNTcuNzYwMDgyODQgLTQuOTIwNDM0MTQgNTMuNzY4NjAxMSAtNC45MTU3NzE0OCA0OS43NzcwOTk2MSBDLTQuOTEwMDc0MTkgNDQuNjQ4NjIwMzIgLTQuOTEzMzUzMTQgMzkuNTIwMTkzMzcgLTQuOTE5MzQzOTUgMzQuMzkxNzE2IEMtNC45MjI5NDkyOCAzMC40NjI3ODQ4NSAtNC45MjE4MTExMSAyNi41MzM4NjYyMSAtNC45MTkyMTYxNiAyMi42MDQ5MzQ2OSBDLTQuOTE4NTQ2ODEgMjAuNzEzNDA0MjggLTQuOTE5Mzc1NTggMTguODIxODcyNzQgLTQuOTIxNjk1NzEgMTYuOTMwMzQzNjMgQy00LjkyNDIyMTc3IDE0LjI5MTUwMzYyIC00LjkyMDM4MjMgMTEuNjUyNzQ5NTggLTQuOTE0Nzk0OTIgOS4wMTM5MTYwMiBDLTQuOTE2ODE5MTUgOC4yMjQyNjk1NiAtNC45MTg4NDMzOCA3LjQzNDYyMzExIC00LjkyMDkyODk2IDYuNjIxMDQ3OTcgQy00Ljg5NTQwMDU0IDAuMTQ2ODE0NjYgLTQuODk1NDAwNTQgMC4xNDY4MTQ2NiAwIDAgWiAiIGZpbGw9IiMwMDAwMDAiIGNsYXNzPSJwYXRoMSIgdHJhbnNmb3JtPSJ0cmFuc2xhdGUoMzkuNzg1NDAwMzkwNjI1LDM4Ljg4NjQ3NDYwOTM3NSkiLz4mI3hhOzxwYXRoIGQ9Ik0wIDAgQzMuMDAxOTc0NjQgMS44MDExODQ3OCA0LjQ1MTY2MzY2IDIuOTAzMzI3MzIgNiA2IEM2LjUxMTI0MDk5IDExLjIwNDYwMDg3IDYuODYxMzI0NDEgMTUuNTY0NDU5MzEgNC4xMjUgMjAuMTI1IEMwLjE3NjU0MTQyIDIzLjYwODkzNDA0IC0zLjE4MzUxMjk5IDIzLjMyNjQ1MTQyIC04LjI5Mjk2ODc1IDIzLjI5Mjk2ODc1IEMtMTEuODg0NDMxNzUgMjIuOTA0MjgyMjggLTEzLjYzMDQwODI0IDIxLjY4NTUzNzMzIC0xNiAxOSBDLTE3Ljk2NzUyMTA1IDE1LjA2NDk1NzkgLTE3LjQ2NDIyNTk1IDEwLjI4OTQ0NzggLTE3IDYgQy0xMi44MzQ3NjY1NCAtMC45NDIwNTU3NyAtNy41NDU5NjkzNyAtMC44MTY2NjMzNSAwIDAgWiAiIGZpbGw9IiMwMDAwMDAiIGNsYXNzPSJwYXRoMSIgdHJhbnNmb3JtPSJ0cmFuc2xhdGUoMjE5LDE3MykiLz4mI3hhOzxwYXRoIGQ9Ik0wIDAgQzMuMDAxOTc0NjQgMS44MDExODQ3OCA0LjQ1MTY2MzY2IDIuOTAzMzI3MzIgNiA2IEM2LjUxMTI0MDk5IDExLjIwNDYwMDg3IDYuODYxMzI0NDEgMTUuNTY0NDU5MzEgNC4xMjUgMjAuMTI1IEMwLjE3NjU0MTQyIDIzLjYwODkzNDA0IC0zLjE4MzUxMjk5IDIzLjMyNjQ1MTQyIC04LjI5Mjk2ODc1IDIzLjI5Mjk2ODc1IEMtMTEuODg0NDMxNzUgMjIuOTA0MjgyMjggLTEzLjYzMDQwODI0IDIxLjY4NTUzNzMzIC0xNiAxOSBDLTE3Ljk2NzUyMTA1IDE1LjA2NDk1NzkgLTE3LjQ2NDIyNTk1IDEwLjI4OTQ0NzggLTE3IDYgQy0xMi44MzQ3NjY1NCAtMC45NDIwNTU3NyAtNy41NDU5NjkzNyAtMC44MTY2NjMzNSAwIDAgWiAiIGZpbGw9IiMwMDAwMDAiIGNsYXNzPSJwYXRoMSIgdHJhbnNmb3JtPSJ0cmFuc2xhdGUoNDgsMTczKSIvPiYjeGE7PHBhdGggZD0iTTAgMCBDMy42MTk4NDgwMyAxLjg5MzM0NzM3IDUuNjg4Mjg3NTYgNC4wNjQ4NjI2OSA3IDggQzcuMzcxMTg3NSAxMy4wMTEwMzEyOCA3LjExNzg4OTQ2IDE1Ljk5MTI4NDk5IDQgMjAgQzAuMjE1OTE3MzMgMjMuMzc0NTQ5OTEgLTIuNTg3NjY4NzcgMjMuNTY0MTkzOTMgLTcuNTE5NTMxMjUgMjMuNDI1NzgxMjUgQy0xMS41ODA2NTk4MiAyMi43Mjg2NzQxNCAtMTMuMjU1NTgwMjYgMjEuMDI1ODk4NjkgLTE2IDE4IEMtMTcuNTA2NTA3NzYgMTMuNDgwNDc2NzMgLTE3Ljc0NTYzOTE5IDkuNjQwNDA2MjIgLTE1Ljc1IDUuMjUgQy0xMS4zNTkyOTc5OSAtMC4zOTUxODgzIC02Ljg4Mjc2ODQxIC0xLjE4MTQ1MTU5IDAgMCBaICIgZmlsbD0iIzAwMDAwMCIgY2xhc3M9InBhdGgxIiB0cmFuc2Zvcm09InRyYW5zbGF0ZSgxMzMsMTczKSIvPiYjeGE7PC9zdmc+;" vertex="1" parent="1">
          <mxGeometry x="102" y="1290" width="76" height="76" as="geometry" />
        </mxCell>
        <mxCell id="w3d3HwJF83mIlRjUdbyV-47" value="" style="shape=image;aspect=fixed;editableCssRules=.*;image=data:image/svg+xml,PHN2ZyB4bWxucz0iaHR0cDovL3d3dy53My5vcmcvMjAwMC9zdmciIHZlcnNpb249IjEuMSIgd2lkdGg9IjUxMiIgaGVpZ2h0PSI1MTIiPiYjeGE7PHN0eWxlIHR5cGU9InRleHQvY3NzIj4ucGF0aDEgeyBmaWxsOiBsaWdodC1kYXJrKHJnYigxMzIsIDIwNCwgMjIpLCByZ2IoNDksIDExMSwgMCkpOyB9IDwvc3R5bGU+JiN4YTs8cGF0aCBkPSJNMCAwIEMxMC45NzI1Nzc5MiA4Ljg5MzU2MzE2IDE1LjczMjQ2Nzg2IDIxLjQxODkxMjcyIDE3LjQ3MjY1NjI1IDM1LjE2Nzk2ODc1IEMxOS4zODMyNTI4NCA1Ny4yNjA5MjM2NiAxMS42MjgxMjg1MiA3Ni43ODg0NTcxOSAtMi4zMDg1OTM3NSA5My41NDY4NzUgQy0zLjA0MDc4MTI1IDk0LjQxMTgzNTk0IC0zLjc3Mjk2ODc1IDk1LjI3Njc5Njg4IC00LjUyNzM0Mzc1IDk2LjE2Nzk2ODc1IEMtMy45MzUzNDE4IDk2LjI1NzcxOTczIC0zLjM0MzMzOTg0IDk2LjM0NzQ3MDcgLTIuNzMzMzk4NDQgOTYuNDM5OTQxNDEgQzIwLjU5NDIyMjk1IDEwMC4wNDkyMDUzNyA0My43MTIxOTY3NiAxMDQuMDQ2MTAwMSA2MC40NzI2NTYyNSAxMjIuMTY3OTY4NzUgQzYxLjUxMTg0NjAyIDEyMy43NDcwMzAyOCA2Mi41MTQ2ODgyNyAxMjUuMzUwODUyODMgNjMuNDcyNjU2MjUgMTI2Ljk4MDQ2ODc1IEM2Ni4yMjkxOTAyMiAxMzEuNDc5MTk0MTMgNjguOTQwOTg2MTYgMTMyLjQwMDUyOTE5IDczLjgxMjUgMTM0LjAzOTA2MjUgQzgxLjg0MTQzNTg0IDEzNy40NDYzNDk1MiA4Ni44MjExNDk5IDE0My43Mzg4ODczMSA5MC4xODk2OTcyNyAxNTEuNTQ5MDcyMjcgQzkyLjc1MjQ1MTMxIDE1OC43Nzc5NDA2MiA5NC40MDY3ODM3OSAxNjYuMjU1MjIxNDggOTYuMTIyMzE0NDUgMTczLjcyMjQxMjExIEM5Ni43ODk4NTk2MiAxNzYuNjI1OTI2MjMgOTcuNDc0NTg0MDEgMTc5LjUyNDk4NjczIDk4LjE2MjEwOTM4IDE4Mi40MjM4MjgxMiBDOTguNTk2MDQ3MjcgMTg0LjI3NDUwNjUyIDk5LjAyOTAyNTExIDE4Ni4xMjU0MTAzNCA5OS40NjA5Mzc1IDE4Ny45NzY1NjI1IEM5OS42NjM5OTAwMiAxODguODQwMTA4NDkgOTkuODY3MDQyNTQgMTg5LjcwMzY1NDQ4IDEwMC4wNzYyNDgxNyAxOTAuNTkzMzY4NTMgQzEwMC4yNjAzMTcyMyAxOTEuMzk4NDMzMzggMTAwLjQ0NDM4NjI5IDE5Mi4yMDM0OTgyMyAxMDAuNjM0MDMzMiAxOTMuMDMyOTU4OTggQzEwMC43OTY2MDExIDE5My43MzcwMjM3NyAxMDAuOTU5MTY5MDEgMTk0LjQ0MTA4ODU2IDEwMS4xMjY2NjMyMSAxOTUuMTY2NDg4NjUgQzEwMS40NzI2NTYyNSAxOTcuMTY3OTY4NzUgMTAxLjQ3MjY1NjI1IDE5Ny4xNjc5Njg3NSAxMDEuNDcyNjU2MjUgMjAxLjE2Nzk2ODc1IEMxMDIuMDI0MDAyNTQgMjAxLjE2NjQ0OTg3IDEwMi41NzUzNDg4MyAyMDEuMTY0OTMwOTkgMTAzLjE0MzQwMjU4IDIwMS4xNjMzNjYwOCBDMTM1LjgyNzU0MzA2IDIwMS4wNzM4MzUzMyAxNjguNTExNjUyNzggMjAxLjAwNTIxMzIyIDIwMS4xOTU4ODg0MyAyMDAuOTYzNzA3NDMgQzIwNS4xMjExNTIzOSAyMDAuOTU4NzA0NjYgMjA5LjA0NjQxNjEgMjAwLjk1MzUyNzM3IDIxMi45NzE2Nzk2OSAyMDAuOTQ4MjQyMTkgQzIxNC4xNDM4NDM1NyAyMDAuOTQ2NjY4MzIgMjE0LjE0Mzg0MzU3IDIwMC45NDY2NjgzMiAyMTUuMzM5Njg3NTMgMjAwLjk0NTA2MjY3IEMyMjcuOTg5MzEzOTMgMjAwLjkyNzY2MTkzIDI0MC42Mzg4Njc1NCAyMDAuODk2MTI2MDcgMjUzLjI4ODQ1MDc4IDIwMC44NTkzNTc1NyBDMjY2LjI3MDA2NzMyIDIwMC44MjE5Mzg5MSAyNzkuMjUxNjQ1NzggMjAwLjc5OTczMDk1IDI5Mi4yMzMzMTQwNCAyMDAuNzkxNjE0NzcgQzMwMC4yNDI0MDkwNiAyMDAuNzg2MTI4OSAzMDguMjUxMjk4MzQgMjAwLjc2ODgwODI3IDMxNi4yNjAzMzAwMiAyMDAuNzM2MzAyODggQzMyMi40MDM3OTc5NSAyMDAuNzEyNjQwNiAzMjguNTQ3MTA5MzQgMjAwLjcxMDE1MTI1IDMzNC42OTA2MTY2MSAyMDAuNzE1NTM4MDIgQzMzNy4yMDkzMDg3OSAyMDAuNzE0NDM3MjUgMzM5LjcyODAwODc0IDIwMC43MDY0NzYyOCAzNDIuMjQ2NjU0NTEgMjAwLjY5MTE0Njg1IEMzNDUuNjg2MDg1IDIwMC42NzEyMzkzNCAzNDkuMTI0NjM1OTggMjAwLjY3NjAzMzMyIDM1Mi41NjQwODY5MSAyMDAuNjg2OTUwNjggQzM1My41NjAyMTI2NCAyMDAuNjc1Mjk5MzIgMzU0LjU1NjMzODM2IDIwMC42NjM2NDc5NSAzNTUuNTgyNjQ5NzEgMjAwLjY1MTY0MzUxIEMzNjIuNzM4NjAxMjYgMjAwLjcxMzAxODQyIDM2OC4xOTQxMTEyNCAyMDIuMTg5MTQxNDcgMzczLjU2NjQwNjI1IDIwNy4wNzAzMTI1IEMzNzguMTIwMTUwNzIgMjEzLjY2MDU5MjY5IDM3OC4zMDEzMTM5IDIxOS4zMzIzMDUxOSAzNzcuNDcyNjU2MjUgMjI3LjE2Nzk2ODc1IEMzNzYuMjIxNTg2ODUgMjMzLjM0MjI4NjA4IDM3NC4yMDUyNzM2IDIzOS4zMjE0NzAzNCAzNzIuMjg1MTU2MjUgMjQ1LjMxMjUgQzM3MS43NDIyNzQyIDI0Ny4wNTE5ODQ2NSAzNzEuMjAwOTY1NTIgMjQ4Ljc5MTk2MTAyIDM3MC42NjExMzI4MSAyNTAuNTMyMzk0NDEgQzM2OS4yNDA0NDI1NyAyNTUuMDk2OTMzNTIgMzY3Ljc5NzUwMzA1IDI1OS42NTQxMzcxMyAzNjYuMzQ5OTE0NTUgMjY0LjIxMDIwNTA4IEMzNjQuOTA2MjYxMTIgMjY4Ljc2OTA2ODM3IDM2My40ODU3OTM3MSAyNzMuMzM1MTM5NDcgMzYyLjA2MjUgMjc3LjkwMDM5MDYyIEMzNTguOTA2OTYwNTkgMjg4LjAwMjc1NzU2IDM1NS43MDc1NDQzMyAyOTguMDkwNzM3NjcgMzUyLjQ3MjY1NjI1IDMwOC4xNjc5Njg3NSBDMzUyLjE0NDM2NDUxIDMwOS4xOTA3Njk5OCAzNTIuMTQ0MzY0NTEgMzA5LjE5MDc2OTk4IDM1MS44MDk0NDA2MSAzMTAuMjM0MjMzODYgQzM1MC41MTA2NDU5OCAzMTQuMjc0MDg3NTIgMzQ5LjE5NjY5MTYzIDMxOC4zMDg3MTE1OCAzNDcuODcxMDkzNzUgMzIyLjMzOTg0Mzc1IEMzNDcuNTY3NzYxMjMgMzIzLjI3MjU4NjIxIDM0Ny4yNjQ0Mjg3MSAzMjQuMjA1MzI4NjcgMzQ2Ljk1MTkwNDMgMzI1LjE2NjMzNjA2IEMzNDIuMzczMzc2MDcgMzM4LjkwNjczMjE4IDMzNC4zMjE5NTY1NCAzNDguODU4OTI0NiAzMjEuMjg1MTU2MjUgMzU1LjYwNTQ2ODc1IEMzMTEuMTA2MTcxNjUgMzYwLjMwNTQ1OTA5IDMwMS40NDY4MDAzNSAzNjEuMzM1NjIzMDEgMjkwLjM3NjIyMDcgMzYxLjI2MjIwNzAzIEMyODguNTk2NjIzOSAzNjEuMjU5NDI0MTMgMjg2LjgxNzAyNjkzIDM2MS4yNTY3NTM4IDI4NS4wMzc0Mjk4MSAzNjEuMjU0MTgwOTEgQzI4NC4xMDgzNTEyMyAzNjEuMjUxMTMwNzEgMjgzLjE3OTI3MjY1IDM2MS4yNDgwODA1MiAyODIuMjIyMDQwMTggMzYxLjI0NDkzNzkgQzI3Ny4yNjA2MjAyNCAzNjEuMjMzNDk0NjQgMjcyLjI5OTI4Njg2IDM2MS4yNTQxMDQ0NCAyNjcuMzM3ODkwNjIgMzYxLjI2OTUzMTI1IEMyNjEuMDQzNjkyMyAzNjEuMjg3ODQwNDYgMjU0Ljc0OTk4ODAyIDM2MS4yOTYzNzkxNSAyNDguNDU1ODEwNTUgMzYxLjI2NzU3ODEyIEMyNDMuMzQ4NzE3NjkgMzYxLjI0NTA1MTkyIDIzOC4yNDI2ODc4NCAzNjEuMjU2NDQxNDYgMjMzLjEzNTY3MTYyIDM2MS4yOTA1ODQ1NiBDMjMxLjE5NTI0NjM3IDM2MS4yOTczNDk1OSAyMjkuMjU0NzM1NjIgMzYxLjI5MTY4NTM0IDIyNy4zMTQzODYzNyAzNjEuMjczMjI3NjkgQzIyNC42MDIwMjk0NyAzNjEuMjQ5MDY2MDYgMjIxLjg5MzE0NDE2IDM2MS4yNjgyNTg0IDIxOS4xODA5MDgyIDM2MS4yOTczNjMyOCBDMjE4LjM4NDQwMzUzIDM2MS4yNzk5NzYwNCAyMTcuNTg3ODk4ODYgMzYxLjI2MjU4ODgxIDIxNi43NjcyNTc2OSAzNjEuMjQ0Njc0NjggQzIxMy40NTYwOTI3NSAzNjEuMzE4NTA1NTkgMjExLjMyNDAxNDYgMzYxLjM5MzE0Mzc1IDIwOC44MTI0NTk5NSAzNjMuNjc4OTIwNzUgQzIwNy44MDc4Mjk3NSAzNjQuOTE0NDg2MzUgMjA2LjgyNjQ2NTMzIDM2Ni4xNjkzNDM5NCAyMDUuODY5NjA5ODMgMzY3LjQ0MjI2NjQ2IEMyMDMuNzQ2MjE3MzcgMzcwLjA2NTM2MjM3IDIwMS42MzI4MDIxMSAzNzEuMDY5MzI0MjMgMTk4LjQ3MjY1NjI1IDM3Mi4xNjc5Njg3NSBDMTk1LjcyNTMxMTQ0IDM3Mi40NDUzMzQgMTkzLjIwODU0NDQ4IDM3Mi41NzU5ODgyOCAxOTAuNDY3MDQxMDIgMzcyLjU1MjczNDM4IEMxODkuNjg3MzY5NjkgMzcyLjU1ODEwNzE1IDE4OC45MDc2OTgzNiAzNzIuNTYzNDc5OTIgMTg4LjEwNDQwMDYzIDM3Mi41NjkwMTU1IEMxODYuNDIwMDc5ODggMzcyLjU3ODc2MDU2IDE4NC43MzU3MDkxMSAzNzIuNTgxNzQ3NTkgMTgzLjA1MTM2Mjk5IDM3Mi41Nzg2NTkwNiBDMTgwLjM4MTMyNTc4IDM3Mi41NzQxNjM2MyAxNzcuNzExOTQ1MjggMzcyLjU4ODIyOTc0IDE3NS4wNDE5NzY5MyAzNzIuNjA3MDU1NjYgQzE2OS4zNzMwNDcyNCAzNzIuNjQzNzYyMTQgMTYzLjcwNDE4NzI1IDM3Mi42NTc1MzQ1MSAxNTguMDM1MTU2MjUgMzcyLjY2Nzk2ODc1IEMxNTEuNDY2NTg1MDQgMzcyLjY4MDA2Njg1IDE0NC44OTgzMzUzNiAzNzIuNzAxNjg5MDcgMTM4LjMyOTkwODM3IDM3Mi43NDc5NzA1OCBDMTM1LjcwNjk5NjU4IDM3Mi43NjE0OTczMyAxMzMuMDg0NDk1ODMgMzcyLjc1NzM3ODAyIDEzMC40NjE1NjMxMSAzNzIuNzUyNTYzNDggQzEyOC44NDM1OTIxNyAzNzIuNzYxOTA4NjggMTI3LjIyNTYyNTcxIDM3Mi43NzIwNzg2NSAxMjUuNjA3NjY2MDIgMzcyLjc4MzIwMzEyIEMxMjQuODg0ODQ5NCAzNzIuNzc3MDU0OSAxMjQuMTYyMDMyNzggMzcyLjc3MDkwNjY4IDEyMy40MTczMTI2MiAzNzIuNzY0NTcyMTQgQzExOC4zMjQwMjIwMiAzNzIuODI1Nzg2MzMgMTE0LjkwNDU3Mzk5IDM3My44MTkxMTU0OSAxMTAuNDcyNjU2MjUgMzc2LjE2Nzk2ODc1IEMxMDguMTcyMTgzNjQgMzc5LjQwMzAwODM2IDEwNy40NTQyMDAxMyAzODEuMjYzNjE5MDQgMTA3LjUzNTE1NjI1IDM4NS4yMzA0Njg3NSBDMTA4LjYyMTM0Mjc5IDM4OC42MzM4NTMyNCAxMDkuOTkwNzA5MjYgMzkwLjYxMzAyMzMyIDExMi40NzI2NTYyNSAzOTMuMTY3OTY4NzUgQzExNi4yNTczMjc3NyAzOTQuNDI5NTI1OTIgMTE4LjQ3NTAzNTkyIDM5NC42ODM3OTA3MyAxMjIuNDcyNjU2MjUgMzk0LjE2Nzk2ODc1IEMxMjQuNjEzMDg1NzkgMzkyLjc0NjY2MTE1IDEyNC42MTMwODU3OSAzOTIuNzQ2NjYxMTUgMTI2LjcyMjY1NjI1IDM5MC45MTc5Njg3NSBDMTM1LjM3OTIxNjI0IDM4My43MDY2MDE3NSAxNDUuMzcwMjc2MzIgMzgxLjg4MDIxODA4IDE1Ni40NzI2NTYyNSAzODIuMTY3OTY4NzUgQzE2NS43MzUyNTQ1NSAzODMuMjA4MjYwNTcgMTczLjc0MzYzOTU0IDM4NS45MTQ5NzMzMiAxODEuNDcyNjU2MjUgMzkxLjE2Nzk2ODc1IEMxODEuODY0ODc4NjkgMzkxLjY4NDkxODA2IDE4Mi4yNTcxMDExNCAzOTIuMjAxODY3MzcgMTgyLjY2MTIwOTExIDM5Mi43MzQ0ODE4MSBDMTg1LjUwMjc3MTQ2IDM5NC45ODMxNDk0MiAxODguMDkwNDQxMzMgMzk0LjU3Mjc5NTk1IDE5MS42NjI4NDE4IDM5NC42MDM3NTk3NyBDMTkyLjM5MTcwMDkgMzk0LjYxMzgzNTYgMTkzLjEyMDU2IDM5NC42MjM5MTE0NCAxOTMuODcxNTA1NzQgMzk0LjYzNDI5MjYgQzE5Ni4yODQyODQ0OSAzOTQuNjYyODE2OTQgMTk4LjY5NjQzODA0IDM5NC42Njg2NTIzIDIwMS4xMDkzNzUgMzk0LjY3MTg3NSBDMjAyLjc4OTg2MzY1IDM5NC42ODE1MTY4MiAyMDQuNDcwMzQ5NzcgMzk0LjY5MTYwOTM1IDIwNi4xNTA4MzMxMyAzOTQuNzAyMTMzMTggQzIwOS42NzczNTYyNiAzOTQuNzIwMTA4MzggMjEzLjIwMzY1ODg5IDM5NC43MjU2NTMxOCAyMTYuNzMwMjI0NjEgMzk0LjcyMzg3Njk1IEMyMjEuMjM1MjQ4OTggMzk0LjcyMzU3Mjg4IDIyNS43Mzg4NDYyNSAzOTQuNzY0NDQwNTUgMjMwLjI0MzUzMzEzIDM5NC44MTYxOTM1OCBDMjMzLjcxNzI5NDMxIDM5NC44NDk2NjkxMiAyMzcuMTkwNzE1NDMgMzk0Ljg1NTYzMTAxIDI0MC42NjQ2MjEzNSAzOTQuODU0MDQ3NzggQzI0Mi4zMjQzMzc4NSAzOTQuODU3NTc0MjIgMjQzLjk4NDA2NDQ0IDM5NC44NzA3NjcxNSAyNDUuNjQzNjIxNDQgMzk0Ljg5NDA0NDg4IEMyNTYuMDMzNjg4MTkgMzk1LjMxNTYzNjgzIDI1Ni4wMzM2ODgxOSAzOTUuMzE1NjM2ODMgMjY1LjI4NDQyMzgzIDM5MS4yNjUzODA4NiBDMjY1LjgyMDc3OTU3IDM5MC43NDA4NDgyNCAyNjYuMzU3MTM1MzEgMzkwLjIxNjMxNTYxIDI2Ni45MDk3NDQyNiAzODkuNjc1ODg4MDYgQzI3My4xMTA3NjY1NCAzODMuNjkzMDU1MTcgMjgzLjQzODEzOTI0IDM4Mi4yMjMyMjU2NCAyOTEuNjc1NzgxMjUgMzgyLjEzMjgxMjUgQzMwNS42NTM4MzYzNyAzODIuODExODQxMjQgMzE3LjI4MTgxMzYyIDM4OC4xNjA5NjgxOSAzMjYuOTEwMTU2MjUgMzk4LjMyNDIxODc1IEMzMzUuNjUzODIzMTggNDA4LjY0MTc0NTczIDMzOC4zMzM5MzkwMSA0MjAuODgxODg0NjMgMzM3LjQ3MjY1NjI1IDQzNC4xNjc5Njg3NSBDMzM2LjIyMjg0NjEyIDQ0Mi41NjcxMTY0NiAzMzMuMzU5ODI0OTMgNDQ5LjI1ODUyMzM4IDMyOC40NzI2NTYyNSA0NTYuMTY3OTY4NzUgQzMyOC4wMzE3OTY4NyA0NTYuODA0NzY1NjMgMzI3LjU5MDkzNzUgNDU3LjQ0MTU2MjUgMzI3LjEzNjcxODc1IDQ1OC4wOTc2NTYyNSBDMzIwLjE5OTIxMDcyIDQ2Ny4xMjA0MjY4IDMwOS40MTk1NTg1NCA0NzIuMDM0MTQzNTEgMjk4LjQ3MjY1NjI1IDQ3NC4xNjc5Njg3NSBDMjg1LjUzNjQxODg4IDQ3NS41NzYyOTA4OSAyNzMuNzgwNDIyMTYgNDcyLjYzNzg0MTU1IDI2My4wNDI5Njg3NSA0NjUuMjY1NjI1IEMyNTQuNDk3NTQ0MDcgNDU4LjI5MTYyMzQgMjQ5LjM2Nzk5MjI4IDQ0OS43NzQ1MDEyMiAyNDYuNDcyNjU2MjUgNDM5LjE2Nzk2ODc1IEMyNDYuNDcyNjU2MjUgNDM3Ljg0Nzk2ODc1IDI0Ni40NzI2NTYyNSA0MzYuNTI3OTY4NzUgMjQ2LjQ3MjY1NjI1IDQzNS4xNjc5Njg3NSBDMjMwLjYzMjY1NjI1IDQzNS4xNjc5Njg3NSAyMTQuNzkyNjU2MjUgNDM1LjE2Nzk2ODc1IDE5OC40NzI2NTYyNSA0MzUuMTY3OTY4NzUgQzE5OC4xNDI2NTYyNSA0MzcuODA3OTY4NzUgMTk3LjgxMjY1NjI1IDQ0MC40NDc5Njg3NSAxOTcuNDcyNjU2MjUgNDQzLjE2Nzk2ODc1IEMxOTIuNjU0NTI0NDQgNDU1LjY0MDIyMTM1IDE4NC43NTU0NDMzMyA0NjQuNTg1NjU5NDMgMTcyLjcxMDkzNzUgNDcwLjUzMTI1IEMxNjAuODc0ODg4MTYgNDc1LjM5NjU5MTY2IDE0OC43MTg0MjQ1NSA0NzUuNzA2NTQyNCAxMzYuNTc4MTI1IDQ3MS40OTIxODc1IEMxMjIuODcwNTYzNzcgNDY1LjY0NzA3NjQ4IDExNS4xNjYzNzQ0MyA0NTYuNzUwNzg4NiAxMDkuNDcyNjU2MjUgNDQzLjE2Nzk2ODc1IEMxMDkuMDYwMDkzMTkgNDQxLjUwNTM2NDMxIDEwOC42NjIzMDAxIDQzOS44Mzg5NjM3NiAxMDguMjg1MTU2MjUgNDM4LjE2Nzk2ODc1IEMxMDcuMzkyMDA3NyA0MzUuMjQxNTkzNzkgMTA2LjkyODg2OTAxIDQzNC40MTQ4ODgwMyAxMDQuMTk5MjE4NzUgNDMyLjkzNzUgQzEwMi4yOTY4OTAyNiA0MzIuMjg0NzQwMjIgMTAwLjM3ODY1OTczIDQzMS42NzcwMDczNyA5OC40NDkyMTg3NSA0MzEuMTA5Mzc1IEM4Ni4xOTc4MDUzNCA0MjcuMjM0NTg0MTUgNzcuOTgwMzA3OTggNDE4LjEzNjE1OTkzIDcxLjk0NTMxMjUgNDA3LjE3OTY4NzUgQzY1LjI5MjY2NDAxIDM5My41NzQ0MDM3MSA2NS4wNzg0Mzc1NyAzNzguMzkzODAzODUgNjkuOTcyNjU2MjUgMzY0LjEwNTQ2ODc1IEM3NS4xNjE4NDIwNyAzNTIuNDgyNDU4NDUgODMuMjAzNTEwNDMgMzQ1LjYzNjQzODQ0IDkzLjQ3MjY1NjI1IDMzOC4xNjc5Njg3NSBDODUuODgyNjU2MjUgMzA2LjQ4Nzk2ODc1IDc4LjI5MjY1NjI1IDI3NC44MDc5Njg3NSA3MC40NzI2NTYyNSAyNDIuMTY3OTY4NzUgQzY5LjgxMjY1NjI1IDI0OS4wOTc5Njg3NSA2OS4xNTI2NTYyNSAyNTYuMDI3OTY4NzUgNjguNDcyNjU2MjUgMjYzLjE2Nzk2ODc1IEM2NC45MzY5ODI0NyAyNzYuNDk0NzM5MTYgNTcuMzkzMTA4ODcgMjg2LjE4OTM3MjY0IDQ1LjQ3MjY1NjI1IDI5My4xNjc5Njg3NSBDMzUuMzg3MjkwNCAyOTguMTY3OTY4NzUgMzUuMzg3MjkwNCAyOTguMTY3OTY4NzUgMjkuNDcyNjU2MjUgMjk4LjE2Nzk2ODc1IEMyOS40Nzk1Njk3IDI5OS40ODI5ODc2NCAyOS40Nzk1Njk3IDI5OS40ODI5ODc2NCAyOS40ODY2MjI4MSAzMDAuODI0NTcyNTYgQzI5LjU5NzAwNjE3IDMyMi4xNDgyNTY5OCAyOS42Nzk3NjYyIDM0My40NzE4OTIyMSAyOS43MzE3MTcxMSAzNjQuNzk1ODAyMTIgQzI5Ljc1NzUwNzQ2IDM3NS4xMDc4Njg4OCAyOS43OTI2NzM5NCAzODUuNDE5NzQ1MDMgMjkuODQ5ODUzNTIgMzk1LjczMTY4OTQ1IEMyOS44OTk2NjI5NSA0MDQuNzE4NzU3OSAyOS45MzE5NDEyMSA0MTMuNzA1Njg4MyAyOS45NDMwOTg3MiA0MjIuNjkyODkwOTQgQzI5Ljk0OTYyMTY1IDQyNy40NTIzNzI5OCAyOS45NjQ5Njk2MSA0MzIuMjExNDYwMSAzMC4wMDEzMDY1MyA0MzYuOTcwODE1NjYgQzMwLjAzNTIyNzE5IDQ0MS40NDk5NTIxNCAzMC4wNDU3MTcyMSA0NDUuOTI4NTMwNzggMzAuMDM4MTk0NjYgNDUwLjQwNzc4MzUxIEMzMC4wMzk1NzA5NyA0NTIuMDUyMTM1MTQgMzAuMDQ5NTI3MTYgNDUzLjY5NjUwNTMgMzAuMDY4NjgzNjIgNDU1LjM0MDc0NTkzIEMzMC4wOTM1NjIxOSA0NTcuNTg2MTQxMzcgMzAuMDg3NTgyOTMgNDU5LjgyOTQzMDc1IDMwLjA3MzkyODgzIDQ2Mi4wNzQ4NzQ4OCBDMzAuMDgwODQyMjggNDYzLjk1OTQ4MDYzIDMwLjA4MDg0MjI4IDQ2My45NTk0ODA2MyAzMC4wODc4OTUzOSA0NjUuODgyMTU5MjMgQzI5LjI5NDU1MDc4IDQ3MC4xMTkxNzcxOCAyNy44Nzc5NzcyMiA0NzEuNTkxMjMxNzYgMjQuNDcyNjU2MjUgNDc0LjE2Nzk2ODc1IEMyMi4wODgyMTAxMSA0NzQuNzg4Nzk0NTIgMjIuMDg4MjEwMTEgNDc0Ljc4ODc5NDUyIDE5LjU3MDQxOTMxIDQ3NC43ODI2OTk1OCBDMTguNjEwMTEzMDcgNDc0Ljc5MjQ2MzIzIDE3LjY0OTgwNjgyIDQ3NC44MDIyMjY4NyAxNi42NjA0MDAzOSA0NzQuODEyMjg2MzggQzE1LjYxODY3Njc2IDQ3NC43OTc0NTIwOSAxNC41NzY5NTMxMiA0NzQuNzgyNjE3OCAxMy41MDM2NjIxMSA0NzQuNzY3MzMzOTggQzExLjg0NDM0NDEgNDc0Ljc3MzI0ODA2IDExLjg0NDM0NDEgNDc0Ljc3MzI0ODA2IDEwLjE1MTUwNDUyIDQ3NC43NzkyODE2MiBDNi40OTYzNzUyIDQ3NC43ODU5OTI0IDIuODQyNDk1NTggNDc0Ljc1NjgyNjg0IC0wLjgxMjUgNDc0LjcyNjU2MjUgQy0zLjM1MTY3NzAyIDQ3NC43MjIzMTI1NiAtNS44OTA4NTc5MiA0NzQuNzE5OTgzODUgLTguNDMwMDM4NDUgNDc0LjcxOTQ5NzY4IEMtMTMuNzUwNTA3NTEgNDc0LjcxMzMzMDk0IC0xOS4wNzA1NDcxIDQ3NC42OTEyNTc0OCAtMjQuMzkwODY5MTQgNDc0LjY1NTAyOTMgQy0zMC41Mzg4MjM4MSA0NzQuNjEzMjc2NDQgLTM2LjY4NjQ1NTkzIDQ3NC41OTU3MTMgLTQyLjgzNDU0NDI0IDQ3NC41OTI0MDk1NSBDLTQ4Ljc1NDMzMDI2IDQ3NC41ODkxNTUwNCAtNTQuNjc0MDI3OTcgNDc0LjU3NDA0NDA3IC02MC41OTM3Nzg2MSA0NzQuNTUyNDE1ODUgQy02My4xMTA4MTcyMiA0NzQuNTQzNTI2OTUgLTY1LjYyNzg2NDQyIDQ3NC41MzY4MDAyMSAtNjguMTQ0OTE0NjMgNDc0LjUzMjI1NTE3IEMtNzEuNjU5MzM4MDYgNDc0LjUyMzIyNzkyIC03NS4xNzM0MTQ0NCA0NzQuNTAwODUwMjEgLTc4LjY4Nzc0NDE0IDQ3NC40NzQzNjUyMyBDLTc5LjczMTQ5MiA0NzQuNDczNzAwNTYgLTgwLjc3NTIzOTg3IDQ3NC40NzMwMzU4OSAtODEuODUwNjE2NDYgNDc0LjQ3MjM1MTA3IEMtODIuODA4MTAyODcgNDc0LjQ2MjM3NTk1IC04My43NjU1ODkyOSA0NzQuNDUyNDAwODIgLTg0Ljc1MjA5MDQ1IDQ3NC40NDIxMjM0MSBDLTg1LjU4MjU4NDM5IDQ3NC40Mzc0NzI5MSAtODYuNDEzMDc4MzMgNDc0LjQzMjgyMjQgLTg3LjI2ODczODc1IDQ3NC40MjgwMzA5NyBDLTg5Ljg0MDA3OTk1IDQ3NC4xMzE5NTk0MSAtOTEuMzgwODk1MDYgNDczLjYxNjc1ODU1IC05My41MjczNDM3NSA0NzIuMTY3OTY4NzUgQy05Ni4wMjI3ODQwMyA0NjguNzQ5ODk0NzcgLTk1Ljc3MzkzNDY2IDQ2NS4zNTY2MDYxIC05NS43Njc4NTI3OCA0NjEuMjMzMDkzMjYgQy05NS43Njk1NjE2MyA0NjAuNTM1NDcxNjYgLTk1Ljc3MTI3MDQ4IDQ1OS44Mzc4NTAwNiAtOTUuNzczMDMxMTIgNDU5LjExOTA4ODQxIEMtOTUuNzc2MzI0NyA0NTYuNzgyMDg3MTcgLTk1Ljc2NTMyNDYzIDQ1NC40NDUzNzMyMSAtOTUuNzU0Mzk0NTMgNDUyLjEwODM5ODQ0IEMtOTUuNzUzODMwMzkgNDUwLjQzMjk1Mjk1IC05NS43NTQxNDcwNCA0NDguNzU3NTA2OTcgLTk1Ljc1NTI3OTU0IDQ0Ny4wODIwNjE3NyBDLTk1Ljc1NTg1MzkzIDQ0Mi41MzI4MTM3MSAtOTUuNzQ0MDg1NTggNDM3Ljk4MzY3MDg3IC05NS43MzAxMzE2MyA0MzMuNDM0NDQ3MjkgQy05NS43MTc2Mzg3MyA0MjguNjgwNTI2NDIgLTk1LjcxNjQ1NDkgNDIzLjkyNjYwMzIxIC05NS43MTQwODA4MSA0MTkuMTcyNjY4NDYgQy05NS43MDc4NjE4MSA0MTAuMTcwMDM5NDkgLTk1LjY5MTQ0NTI5IDQwMS4xNjc0NTkwMyAtOTUuNjcxMzgxODMgMzkyLjE2NDg1MTQzIEMtOTUuNjQ5MDM1OTIgMzgxLjkxNTg2NzM2IC05NS42MzgwMzI2OSAzNzEuNjY2ODgwOTkgLTk1LjYyNzk5MDk2IDM2MS40MTc4Nzg2MyBDLTk1LjYwNzA3OTQ0IDM0MC4zMzQ1NDgyNSAtOTUuNTcxODk1MjggMzE5LjI1MTI2MTU1IC05NS41MjczNDM3NSAyOTguMTY3OTY4NzUgQy05Ni41NTc0MDU0IDI5Ny45NzE1Mjc3MSAtOTYuNTU3NDA1NCAyOTcuOTcxNTI3NzEgLTk3LjYwODI3NjM3IDI5Ny43NzExMTgxNiBDLTk4LjUwOTA0OTA3IDI5Ny41OTU5MjY1MSAtOTkuNDA5ODIxNzggMjk3LjQyMDczNDg2IC0xMDAuMzM3ODkwNjIgMjk3LjI0MDIzNDM4IEMtMTAxLjIzMDg0ODM5IDI5Ny4wNjgwMjM2OCAtMTAyLjEyMzgwNjE1IDI5Ni44OTU4MTI5OSAtMTAzLjA0MzgyMzI0IDI5Ni43MTgzODM3OSBDLTExMi42NTIyNzE3MyAyOTQuNTg4ODkyOCAtMTIwLjU4NDc2ODc2IDI4Ny43MzQ5MTQ4NCAtMTI2LjUyNzM0Mzc1IDI4MC4xNjc5Njg3NSBDLTEzMS4wMDczMzI2MiAyNzIuOTg4MDEzMzEgLTEzNC42MzMzMzYwMyAyNjUuNjU4Mzg2MSAtMTM0LjY3NDUxNDc3IDI1Ny4wOTE0MTU0MSBDLTEzNC42ODE2NzAwNyAyNTYuMDY2ODcyNTYgLTEzNC42ODg4MjUzOCAyNTUuMDQyMzI5NzEgLTEzNC42OTYxOTc1MSAyNTMuOTg2NzQwMTEgQy0xMzQuNzAwMjMwODcgMjUyLjMwOTAyMjc1IC0xMzQuNzAwMjMwODcgMjUyLjMwOTAyMjc1IC0xMzQuNzA0MzQ1NyAyNTAuNTk3NDEyMTEgQy0xMzQuNzEwOTE2OSAyNDkuNDE0ODA4MDQgLTEzNC43MTc0ODgxIDI0OC4yMzIyMDM5OCAtMTM0LjcyNDI1ODQyIDI0Ny4wMTM3NjM0MyBDLTEzNC43NDM5ODgxMiAyNDMuMDk1MTE5NjYgLTEzNC43NTU2NTk5OSAyMzkuMTc2NDg5MzIgLTEzNC43NjU2MjUgMjM1LjI1NzgxMjUgQy0xMzQuNzY5Njc0OTkgMjMzLjkwNDY3MzY5IC0xMzQuNzczNzkxOTkgMjMyLjU1MTUzNTA4IC0xMzQuNzc3OTc1MDggMjMxLjE5ODM5NjY4IEMtMTM0Ljc5NzAyMDY3IDIyNC44MzY1NDQzNSAtMTM0LjgxMTI1MDE0IDIxOC40NzQ3MDM1NCAtMTM0LjgxOTU4NzA1IDIxMi4xMTI4MjgyIEMtMTM0LjgyOTM0MjAzIDIwNC43OTEyNDU4NSAtMTM0Ljg1NTYxODI1IDE5Ny40Njk5NjcyNCAtMTM0Ljg5NjA4Nzk0IDE5MC4xNDg0OTE4IEMtMTM0LjkyNjM1NTgyIDE4NC40NzYwOTY4NSAtMTM0Ljk0MTA2NjE4IDE3OC44MDM3ODg0MSAtMTM0Ljk0NDM2ODA2IDE3My4xMzEzMTQzNCBDLTEzNC45NDY3MDc0MiAxNjkuNzUwMDE3ODUgLTEzNC45NTU1MTk5NSAxNjYuMzY5MDQ2MDIgLTEzNC45ODA4MjkyNCAxNjIuOTg3ODM2ODQgQy0xMzUuMDA1MjY1NTEgMTU5LjIwNjQxMDM1IC0xMzUuMDA0MjQ2NTUgMTU1LjQyNTc2ODk1IC0xMzQuOTk3MzE0NDUgMTUxLjY0NDI4NzExIEMtMTM1LjAxMDEyNDUxIDE1MC41Mzk5Nzg0OSAtMTM1LjAyMjkzNDU3IDE0OS40MzU2Njk4NiAtMTM1LjAzNjEzMjgxIDE0OC4yOTc4OTczNCBDLTEzNC45NTk1NDg5NyAxMzYuNzgwNDQyNjkgLTEzMS41MDk0MDQxIDEyNy41MzUyNjM2OCAtMTIzLjUyNzM0Mzc1IDExOS4xNjc5Njg3NSBDLTEwNy4wNTQwNDA3NiAxMDMuMTQzOTM3NjYgLTgzLjM3NjY5NjgxIDk5LjM3ODgwNTU4IC02MS41MjczNDM3NSA5Ni4xNjc5Njg3NSBDLTYxLjI5NTA4MTg2IDkzLjg5ODc3NTUxIC02MS4yOTUwODE4NiA5My44OTg3NzU1MSAtNjMuNjUyMzQzNzUgOTEuOTgwNDY4NzUgQy02NS4wNzc1MzY2NyA5MC41ODMyOTkyOCAtNjYuNTA0NjIzOCA4OS4xODk2Mjc2MSAtNjcuOTQ5MjE4NzUgODcuODEyNSBDLTc5LjQwNTUyNzk2IDc1LjgzMjY0OTc4IC04My41MTA0NjQ0MiA1Ny4xODY0NTYzNSAtODMuNTI3MzQzNzUgNDEuMTY3OTY4NzUgQy04Mi43MzAyMzc1MSAyNi4zNzA3Nzg0MSAtNzkuMzA3Mjc2NTIgMTIuOTI4OTU2MTIgLTY4LjUyNzM0Mzc1IDIuMTY3OTY4NzUgQy00OS45MDc3Mzc3MiAtMTQuMTU5NTEwNCAtMTkuNjU3MTAxMjUgLTE0LjI0OTExOTc2IDAgMCBaIE0tNTguNjUyMzQzNzUgMTcuMjkyOTY4NzUgQy02NC41NzA3OTEzOSAyNC43MDk1ODc4OSAtNjYuMjE2MDAzODggMzIuNjcyMTQyMTggLTY2LjAyNzM0Mzc1IDQxLjk4MDQ2ODc1IEMtNjYuMDE1MjU4NzkgNDIuOTQyNDMxNjQgLTY2LjAwMzE3MzgzIDQzLjkwNDM5NDUzIC02NS45OTA3MjI2NiA0NC44OTU1MDc4MSBDLTY1LjYxNzk3NzU5IDU4LjMxODg0ODQxIC02MS40MTU4Mjg2MiA3MC4wODMxMzk5MiAtNTIuMTUyMzQzNzUgODAuMDQyOTY4NzUgQy00Ni4yNTQyNTIxOCA4NS42MDAyODE3IC0zOS4xNTEyODY5NSA4OC41NDU0MDM2NiAtMzEuMDcwMzEyNSA4OC40NTMxMjUgQy0yMi41NTc1OTQ4MyA4Ny40OTg1NDk5IC0xNS44MDk0MTE1MiA4My4xNTQ2OTkyNCAtMTAuNTI3MzQzNzUgNzYuNjA1NDY4NzUgQy0yLjI3MTk4NjcgNjUuMDgxOTI0MDcgMS45NzIxNjYxOCA1MC4zMzIyNTg0NiAwLjQ3MjY1NjI1IDM2LjE2Nzk2ODc1IEMtMC42ODUwNjUzOCAyOS40MzEzNzExNiAtMi4wODM5NTc4MyAyMy41MjYxNjk0MSAtNi41MjczNDM3NSAxOC4xNjc5Njg3NSBDLTcuMjI4NTkzNzUgMTcuMzIyMzQzNzUgLTcuOTI5ODQzNzUgMTYuNDc2NzE4NzUgLTguNjUyMzQzNzUgMTUuNjA1NDY4NzUgQy0yMi45MTQzMzI4MSAzLjUxMzc4MjM3IC00NS41NjI2NjQzOCAzLjQyMTgxNTk5IC01OC42NTIzNDM3NSAxNy4yOTI5Njg3NSBaIE0tNzcuNTI3MzQzNzUgMTE2LjE2Nzk2ODc1IEMtNzguMjc0MzU1NDcgMTE2LjMyMjgxNzM4IC03OS4wMjEzNjcxOSAxMTYuNDc3NjY2MDIgLTc5Ljc5MTAxNTYyIDExNi42MzcyMDcwMyBDLTkyLjg3MzU1Nzg5IDExOS4zODk2NjE3NSAtMTA2LjA3Nzc2MiAxMjQuMzE2OTI2OTMgLTExNC41MjczNDM3NSAxMzUuMTY3OTY4NzUgQy0xMTkuMDI2MTkwOTYgMTQyLjI3OTA0OTgzIC0xMTguNjc2NTc1MjIgMTUwLjE5MjI1Mzg2IC0xMTguNjcyNjA3NDIgMTU4LjMzNDk2MDk0IEMtMTE4LjY3NTk2NjAzIDE1OS4zMzI2ODUyNCAtMTE4LjY3OTMyNDY1IDE2MC4zMzA0MDk1NSAtMTE4LjY4Mjc4NTAzIDE2MS4zNTgzNjc5MiBDLTExOC42OTIyNTMwNyAxNjQuNjQzODcyNjcgLTExOC42OTQyMzYxNCAxNjcuOTI5MzI2MjIgLTExOC42OTUzMTI1IDE3MS4yMTQ4NDM3NSBDLTExOC42OTg1MjgyMiAxNzMuNTEwMTkzMDggLTExOC43MDE4OTI1MyAxNzUuODA1NTQyMjEgLTExOC43MDUzOTg1NiAxNzguMTAwODkxMTEgQy0xMTguNzExMzc5NjUgMTgyLjkwOTA2MjQ1IC0xMTguNzEzMjM5NTMgMTg3LjcxNzIxNTgzIC0xMTguNzEyNjQ2NDggMTkyLjUyNTM5MDYyIEMtMTE4LjcxMjU0NDk4IDE5OC42NjYxMjgyNiAtMTE4LjcyNjE4OTY1IDIwNC44MDY3NDk5NyAtMTE4Ljc0MzQxODY5IDIxMC45NDc0NjAxNyBDLTExOC43NTQ1NzQ3NiAyMTUuNjg4Mjk4NzYgLTExOC43NTY1NjQ1NyAyMjAuNDI5MTA5NjUgLTExOC43NTYwMzY3NiAyMjUuMTY5OTYwMDIgQy0xMTguNzU3MjExNzMgMjI3LjQzMjgxNzA3IC0xMTguNzYxNjA2MTggMjI5LjY5NTY3NDk1IC0xMTguNzY5MzY5MTMgMjMxLjk1ODUxODk4IEMtMTE4Ljc3OTI0MDg5IDIzNS4xMzM1NTk3NCAtMTE4Ljc3NjI2MjYxIDIzOC4zMDgzNTMxMSAtMTE4Ljc3MDI2MzY3IDI0MS40ODMzOTg0NCBDLTExOC43NzU4ODMxOCAyNDIuNDA1MzI5OSAtMTE4Ljc4MTUwMjY5IDI0My4zMjcyNjEzNSAtMTE4Ljc4NzI5MjQ4IDI0NC4yNzcxMzAxMyBDLTExOC43MzczMjMzOCAyNTQuNzYxNTIzNzQgLTExNy42OTU2MTc2IDI2NC4wODY1MzkgLTExMC41MjczNDM3NSAyNzIuMTY3OTY4NzUgQy0xMDUuODEzOTk1NzggMjc2LjU3Nzc3Mzc0IC0xMDEuNjc5NDY5MjQgMjc5LjIwMjAwNDYyIC05NS41MjczNDM3NSAyODEuMTY3OTY4NzUgQy05NS41MjE0Nzc1MSAyNzkuOTM2NTcxNjYgLTk1LjUxNTYxMTI3IDI3OC43MDUxNzQ1NiAtOTUuNTA5NTY3MjYgMjc3LjQzNjQ2MjQgQy05NS40NTIzOTYyMSAyNjUuODQxMjU2NzUgLTk1LjM3OTY2NDAxIDI1NC4yNDYyMzk2NiAtOTUuMjkxNjI4ODQgMjQyLjY1MTIyNjA0IEMtOTUuMjQ2ODY5MTIgMjM2LjY4OTg2MTAxIC05NS4yMDc2MjUyNyAyMzAuNzI4NTY1MjEgLTk1LjE4MDkwODIgMjI0Ljc2NzA4OTg0IEMtOTUuMTU0OTMxMjUgMjE5LjAxNTc0ODggLTk1LjExNDU2ODQ3IDIxMy4yNjQ2NzMzOCAtOTUuMDY0MTU3NDkgMjA3LjUxMzQ5NjQgQy05NS4wNDc0NTA4MSAyMDUuMzE3NDU5NjEgLTk1LjAzNTk2MDI3IDIwMy4xMjEzNzY4NCAtOTUuMDI5NzI5ODQgMjAwLjkyNTI4NTM0IEMtOTUuMDIwMTMwMTggMTk3Ljg1MzIyNjEyIC05NC45OTIxMjAwNyAxOTQuNzgxODUyMzQgLTk0Ljk1OTcxNjggMTkxLjcwOTk2MDk0IEMtOTQuOTYxMTUxODkgMTkwLjc5ODYxODkzIC05NC45NjI1ODY5OCAxODkuODg3Mjc2OTIgLTk0Ljk2NDA2NTU1IDE4OC45NDgzMTg0OCBDLTk0Ljg3MjQyNzcgMTgyLjgxOTk1NDIyIC05NC44NzI0Mjc3IDE4Mi44MTk5NTQyMiAtOTMuMTgwMDA3OTMgMTc5LjYyMjM3NTQ5IEMtOTAuNzQxNzQ5NjUgMTc3LjQ3NjYxNjM1IC04OC43MjY3Mzg5MiAxNzcuMzU5OTMyNDYgLTg1LjUyNzM0Mzc1IDE3Ny4xNjc5Njg3NSBDLTgyLjY1MjM0Mzc1IDE3Ny42MDU0Njg3NSAtODIuNjUyMzQzNzUgMTc3LjYwNTQ2ODc1IC04MC41MjczNDM3NSAxNzguMTY3OTY4NzUgQy03OS41Njc3MDE5NSAxODEuMDQ2ODk0MTUgLTc5LjM5ODE3MjE3IDE4Mi44NTcwMTY3NSAtNzkuMzg4Njc4NTUgMTg1Ljg0NzUwNjUyIEMtNzkuMzgzMjA0MTEgMTg2LjgxNDg5Njg1IC03OS4zNzc3Mjk2NiAxODcuNzgyMjg3MTcgLTc5LjM3MjA4OTMzIDE4OC43Nzg5OTIzNSBDLTc5LjM3MTExMTIyIDE4OS44NDQxNTU1NiAtNzkuMzcwMTMzMTEgMTkwLjkwOTMxODc3IC03OS4zNjkxMjUzNyAxOTIuMDA2NzU5NjQgQy03OS4zNjE3MTg0IDE5My43MDExOTUyMyAtNzkuMzYxNzE4NCAxOTMuNzAxMTk1MjMgLTc5LjM1NDE2MTggMTk1LjQyOTg2MTg0IEMtNzkuMzM4NzQwMDcgMTk5LjIzNDczMzg0IC03OS4zMzA0MTM1MiAyMDMuMDM5NTg4OSAtNzkuMzIyMDIxNDggMjA2Ljg0NDQ4MjQyIEMtNzkuMzEyOTk2NjYgMjA5LjU2NDEwNTk4IC03OS4zMDI0ODA0IDIxMi4yODM3MjMyOSAtNzkuMjkyMDIyNzEgMjE1LjAwMzM0MTY3IEMtNzkuMjcwMjUyNTEgMjIwLjg2ODYzMTggLTc5LjI1MjExMDAxIDIyNi43MzM5MjQyMSAtNzkuMjM2NDE3NzcgMjMyLjU5OTIzMzYzIEMtNzkuMjEzNzI0MDkgMjQxLjA3OTUyOTg0IC03OS4xODU1ODA1NyAyNDkuNTU5ODAxMDQgLTc5LjE1NjA5ODQ5IDI1OC4wNDAwNzYwNSBDLTc5LjEwODQxNjQzIDI3MS43OTgxMDkzMyAtNzkuMDY1MTUzOTEgMjg1LjU1NjE1MjgyIC03OS4wMjQ2NTgyIDI5OS4zMTQyMDg5OCBDLTc4Ljk4NTMwNjQgMzEyLjY4MDQyODAxIC03OC45NDM4ODA5NCAzMjYuMDQ2NjM3OTYgLTc4Ljg5OTY1ODIgMzM5LjQxMjg0MTggQy03OC44OTY5MzM5MyAzNDAuMjM2NDY0NDEgLTc4Ljg5NDIwOTY2IDM0MS4wNjAwODcwMSAtNzguODkxNDAyODMgMzQxLjkwODY2Nzg4IEMtNzguODc3NzIzNDEgMzQ2LjA0MDQ1OTc2IC03OC44NjQwMDMxMiAzNTAuMTcyMjUxNSAtNzguODUwMjYyNTIgMzU0LjMwNDA0MzE3IEMtNzguNzM2Mjg4MDkgMzg4LjU5MTk5OTc2IC03OC42Mjk3NTI3MiA0MjIuODc5OTc1NzYgLTc4LjUyNzM0Mzc1IDQ1Ny4xNjc5Njg3NSBDLTY1LjY1NzM0Mzc1IDQ1Ny4xNjc5Njg3NSAtNTIuNzg3MzQzNzUgNDU3LjE2Nzk2ODc1IC0zOS41MjczNDM3NSA0NTcuMTY3OTY4NzUgQy0zOS41MTI3NjEyMyA0NTMuNTE4MjI5OTggLTM5LjQ5ODE3ODcxIDQ0OS44Njg0OTEyMSAtMzkuNDgzMTU0MyA0NDYuMTA4MTU0MyBDLTM5LjQzMjg5MTYxIDQzNC4wNzAwMzk3NiAtMzkuMzY2NDYyODkgNDIyLjAzMjA2NTkyIC0zOS4yOTE2Mjg4NCA0MDkuOTk0MDgyNDUgQy0zOS4yNDY2MzkyOCA0MDIuNjkzMDkxMTIgLTM5LjIwNzIzMjAzIDM5NS4zOTIxNDg5MSAtMzkuMTgwOTA4MiAzODguMDkxMDY0NDUgQy0zOS4xNTc5NTM1NyAzODEuNzI4MzU3NTkgLTM5LjEyNDU4NDI0IDM3NS4zNjU4MDU3NyAtMzkuMDc4NjQyMTkgMzY5LjAwMzIyMTgxIEMtMzkuMDU0Njc1NDIgMzY1LjYzMzQxMjg5IC0zOS4wMzU5Njk0NCAzNjIuMjYzNzU3ODQgLTM5LjAyOTcyOTg0IDM1OC44OTM4NjU1OSBDLTM5LjAyMDE1MjgxIDM1NS4xMzQzMzE1OCAtMzguOTkyMTY5NjIgMzUxLjM3NTM2Mjk3IC0zOC45NTk3MTY4IDM0Ny42MTU5NjY4IEMtMzguOTYxODY5NDMgMzQ1LjkzNDk4NjUgLTM4Ljk2MTg2OTQzIDM0NS45MzQ5ODY1IC0zOC45NjQwNjU1NSAzNDQuMjIwMDQ3IEMtMzguOTQ1MjU4MzMgMzQyLjY4NjY5MjA1IC0zOC45NDUyNTgzMyAzNDIuNjg2NjkyMDUgLTM4LjkyNjA3MTE3IDM0MS4xMjIzNjAyMyBDLTM4LjkyMTQ2MjIgMzQwLjIzMjgzIC0zOC45MTY4NTMyNCAzMzkuMzQzMjk5NzcgLTM4LjkxMjEwNDYxIDMzOC40MjY4MTQwOCBDLTM4LjQ0NjkxODI2IDMzNS42OTU4MDg2MiAtMzcuNzAzMjc4NDkgMzM0LjgzMTQwNzg4IC0zNS41MjczNDM3NSAzMzMuMTY3OTY4NzUgQy0zMi41NzM2NDM5MiAzMzIuMTU3NDkyNDkgLTMwLjg4ODk4OTYxIDMzMi4wODM4NjUwNiAtMjcuODM5ODQzNzUgMzMyLjc5Mjk2ODc1IEMtMjQuODU2OTI5MiAzMzQuNTY2NTkzNjIgLTI0LjU3MDI3MzM3IDMzNS45MDQxNTgwOSAtMjMuNTI3MzQzNzUgMzM5LjE2Nzk2ODc1IEMtMjMuMjY1NjMwNzIgMzQxLjYyNjA1NzYyIC0yMy4yNjU2MzA3MiAzNDEuNjI2MDU3NjIgLTIzLjI0ODg3MDg1IDM0NC4yNDg5Nzc2NiBDLTIzLjIzNzcwNzM3IDM0NS4yNDg3MjExNiAtMjMuMjI2NTQzODggMzQ2LjI0ODQ2NDY2IC0yMy4yMTUwNDIxMSAzNDcuMjc4NTAzNDIgQy0yMy4yMTI4ODE5MyAzNDguMzYzOTE0MTggLTIzLjIxMDcyMTc0IDM0OS40NDkzMjQ5NSAtMjMuMjA4NDk2MDkgMzUwLjU2NzYyNjk1IEMtMjMuMTk4NDUwNDcgMzUxLjcxOTI3ODQxIC0yMy4xODg0MDQ4NSAzNTIuODcwOTI5ODcgLTIzLjE3ODA1NDgxIDM1NC4wNTc0Nzk4NiBDLTIzLjE0NzE4MjYyIDM1Ny44NjEyMzE1MyAtMjMuMTMwMTc2MTYgMzYxLjY2NDkxMjY4IC0yMy4xMTMyODEyNSAzNjUuNDY4NzUgQy0yMy4wOTQ1NzI4OCAzNjguMTA3MTk5MTggLTIzLjA3NDk5OTcyIDM3MC43NDU2NDIzNiAtMjMuMDU0NTk1OTUgMzczLjM4NDA3ODk4IEMtMjMuMDA3ODUyMzQgMzc5LjYxNzA4ODUxIC0yMi45NzEwODY5MiAzODUuODUwMTE1MiAtMjIuOTM3OTIzMDcgMzkyLjA4MzIxMDE3IEMtMjIuODk5NjcwNCAzOTkuMTgxMTkxNTYgLTIyLjg1MDI2ODUxIDQwNi4yNzkwODE3MiAtMjIuNzk5OTM4OTIgNDEzLjM3Njk4NjE1IEMtMjIuNjk2Njg0ODEgNDI3Ljk3MzkxNTA0IC0yMi42MDg4NzQ5NSA0NDIuNTcwOTAxODkgLTIyLjUyNzM0Mzc1IDQ1Ny4xNjc5Njg3NSBDLTEwLjk3NzM0Mzc1IDQ1Ny4xNjc5Njg3NSAwLjU3MjY1NjI1IDQ1Ny4xNjc5Njg3NSAxMi40NzI2NTYyNSA0NTcuMTY3OTY4NzUgQzEyLjQ3ODUyMjQ5IDQ1My43MzE2MzAyNSAxMi40ODQzODg3MyA0NTAuMjk1MjkxNzUgMTIuNDkwNDMyNzQgNDQ2Ljc1NDgyMTc4IEMxMi41NDU1ODAxOCA0MTUuMjYwNTM5MDkgMTIuNjE1NTE5NzMgMzgzLjc2NjMxOTIzIDEyLjcwMTY0MjUzIDM1Mi4yNzIxMDU3NCBDMTIuNzEyOTExMDIgMzQ4LjE0NjQxMDY0IDEyLjcyNDA0OTQyIDM0NC4wMjA3MTUyIDEyLjczNTEwNzQyIDMzOS44OTUwMTk1MyBDMTIuNzM3MzExMTEgMzM5LjA3MzY0OTcxIDEyLjczOTUxNDc5IDMzOC4yNTIyNzk4OSAxMi43NDE3ODUyNSAzMzcuNDA2MDIwMDggQzEyLjc3NzE4MTA2IDMyNC4wOTczODc0OSAxMi44MDIwMzIyOSAzMTAuNzg4NzU0OTcgMTIuODIzMDAzMjcgMjk3LjQ4MDA5MjczIEMxMi44NDQ3NDcxNiAyODMuODI5NDg1ODcgMTIuODc3Nzg0MDggMjcwLjE3ODk0MDIyIDEyLjkyMTM1NzgxIDI1Ni41MjgzODU0IEMxMi45NDc4OTg5MyAyNDguMTAxNzA3NTQgMTIuOTY1NTc2MTUgMjM5LjY3NTEwNTk5IDEyLjk3MjAwMjI5IDIzMS4yNDgzODgzOCBDMTIuOTc3MjQ4NjcgMjI1LjQ3Mzk3MDI5IDEyLjk5MzQ0MDI4IDIxOS42OTk2NDgzIDEzLjAxODMyMTkxIDIxMy45MjUyODE2NyBDMTMuMDMyMzYyOTcgMjEwLjU5MTEwODEzIDEzLjAzOTg3ODc4IDIwNy4yNTcyNTQ0MyAxMy4wMzc2NjQ0MSAyMDMuOTIzMDI4OTUgQzEzLjAzNjAyMjY0IDIwMC4zMTE0OTkyNCAxMy4wNTI2MTc3MiAxOTYuNzAwNTA2NjEgMTMuMDczOTI4ODMgMTkzLjA4OTA1MDI5IEMxMy4wNjY2NTc0NyAxOTEuNTAxNTExMTcgMTMuMDY2NjU3NDcgMTkxLjUwMTUxMTE3IDEzLjA1OTIzOTIxIDE4OS44ODE5MDA1NSBDMTMuMDY4Njk1NzUgMTg4LjkxNjAwMjU3IDEzLjA3ODE1MjI5IDE4Ny45NTAxMDQ1OSAxMy4wODc4OTUzOSAxODYuOTU0OTM2OTggQzEzLjA4OTc5NCAxODYuMTIxMDcxMTQgMTMuMDkxNjkyNiAxODUuMjg3MjA1MjkgMTMuMDkzNjQ4NzMgMTg0LjQyODA3MDc4IEMxMy41NjY3NDc0IDE4MS42MDY4ODMyOSAxNC41MjQxOTM1IDE4MC4yMzg1NTI2NCAxNi40NzI2NTYyNSAxNzguMTY3OTY4NzUgQzIwLjEzMTQzOTg3IDE3Ni45NzQ4ODcxMyAyMS43NzI2MzMxNyAxNzYuODQxMjkxMzEgMjUuMjg1MTU2MjUgMTc4LjQ4MDQ2ODc1IEMyNy40NzI2NTYyNSAxODAuMTY3OTY4NzUgMjcuNDcyNjU2MjUgMTgwLjE2Nzk2ODc1IDI4LjQ3MjY1NjI1IDE4Mi4xNjc5Njg3NSBDMjguNTc1NTYyOTYgMTgzLjQ5ODAxMzkxIDI4LjYxOTA1NDY3IDE4NC44MzI5MzI3OSAyOC42MzA4NzQ2MyAxODYuMTY2OTAwNjMgQzI4LjY0NTU1Nzg2IDE4Ny40MjA1MjY1IDI4LjY0NTU1Nzg2IDE4Ny40MjA1MjY1IDI4LjY2MDUzNzcyIDE4OC42OTk0NzgxNSBDMjguNjY2MjkzMTggMTg5LjYxODAxMDcxIDI4LjY3MjA0ODY1IDE5MC41MzY1NDMyNyAyOC42Nzc5Nzg1MiAxOTEuNDgyOTEwMTYgQzI4LjY4Nzg3ODExIDE5Mi40NDg4MDU2OSAyOC42OTc3Nzc3MSAxOTMuNDE0NzAxMjMgMjguNzA3OTc3MjkgMTk0LjQwOTg2NjMzIEMyOC43Mzk2NDg0MSAxOTcuNjEzMDYyNzYgMjguNzY0MzcxOSAyMDAuODE2Mjc0MDMgMjguNzg5MDYyNSAyMDQuMDE5NTMxMjUgQzI4LjgwOTYyNzE4IDIwNi4yMzYyODEyNiAyOC44MzA2MjM1MiAyMDguNDUzMDI3MyAyOC44NTIwMzU1MiAyMTAuNjY5NzY5MjkgQzI4LjkwNzMwNjM3IDIxNi41MTI0NTkyNiAyOC45NTY2OTM1MiAyMjIuMzU1MTg0OTEgMjkuMDA0ODgyODEgMjI4LjE5NzkzNzAxIEMyOS4wNTUwNjEyNyAyMzQuMTU2NzMgMjkuMTEwNzY2MzkgMjQwLjExNTQ3MSAyOS4xNjYwMTU2MiAyNDYuMDc0MjE4NzUgQzI5LjI3MzY1ODUxIDI1Ny43NzIwOTEwMyAyOS4zNzUwODk4NCAyNjkuNDcwMDA4NCAyOS40NzI2NTYyNSAyODEuMTY3OTY4NzUgQzMwLjc0ODg0NDc0IDI4MC43MTM0NDc4MiAzMi4wMjI4NDE4OSAyODAuMjUyNzcxNDIgMzMuMjk1ODk4NDQgMjc5Ljc4OTU1MDc4IEMzNC4wMDU1ODc3NyAyNzkuNTMzNjgxOTUgMzQuNzE1Mjc3MSAyNzkuMjc3ODEzMTEgMzUuNDQ2NDcyMTcgMjc5LjAxNDE5MDY3IEM0MS44Mzg3ODAwNyAyNzYuMzQ0NDg3IDQ3LjIwMTM5ODMgMjcwLjU4OTczNjI1IDUwLjAzNTE1NjI1IDI2NC4zNTU0Njg3NSBDNTIuMTU4MDI5ODkgMjU4Ljc3OTExNjQ2IDUyLjYxMzI3MDIxIDI1My43Njk5NDM1NiA1Mi41ODYxODE2NCAyNDcuODE5MzM1OTQgQzUyLjU4NjQwMDY4IDI0Ni41NjAyNDkxOCA1Mi41ODY0MDA2OCAyNDYuNTYwMjQ5MTggNTIuNTg2NjI0MTUgMjQ1LjI3NTcyNjMyIEM1Mi41ODU5MjgzMiAyNDIuNTA1NDA1NzEgNTIuNTc4MTUxMzIgMjM5LjczNTE1MjYgNTIuNTcwMzEyNSAyMzYuOTY0ODQzNzUgQzUyLjU2ODQ0NzE1IDIzNS4wNDI0MTk4MSA1Mi41NjcwMjM4IDIzMy4xMTk5OTUzOSA1Mi41NjYwMjQ3OCAyMzEuMTk3NTcwOCBDNTIuNTYyMjA4ODIgMjI2LjE0MDY5MyA1Mi41NTIzODYzNyAyMjEuMDgzODQzOTggNTIuNTQxMzIwOCAyMTYuMDI2OTc3NTQgQzUyLjUzMTA4NjkgMjEwLjg2NTY0NTI0IDUyLjUyNjUyMjkyIDIwNS43MDQzMDgyOCA1Mi41MjE0ODQzOCAyMDAuNTQyOTY4NzUgQzUyLjUxMDc2MzMgMTkwLjQxNzk1NjEyIDUyLjQ5MzY5NzkgMTgwLjI5Mjk2NDgzIDUyLjQ3MjY1NjI1IDE3MC4xNjc5Njg3NSBDNTEuNzIxNjk2NzggMTcwLjE1ODYyMzA1IDUwLjk3MDczNzMgMTcwLjE0OTI3NzM0IDUwLjE5NzAyMTQ4IDE3MC4xMzk2NDg0NCBDNDYuNzY3NDE5ODEgMTcwLjA4NTY5MzExIDQzLjMzOTE0NTE3IDE3MC4wMDIwOTMyOCAzOS45MTAxNTYyNSAxNjkuOTE3OTY4NzUgQzM4LjcyODczMDQ3IDE2OS45MDM3ODkwNiAzNy41NDczMDQ2OSAxNjkuODg5NjA5MzcgMzYuMzMwMDc4MTIgMTY5Ljg3NSBDMjguNTQ0MjAzMDMgMTY5LjY1NjkwODI2IDIzLjQ5NTM1NSAxNjguOTc4NDgxMTkgMTcuNjk1MzEyNSAxNjMuNDg0Mzc1IEMxMy42Njc2NDgyOSAxNTcuMzk1NDE0NjMgMTMuMzg3NjQ5OTcgMTUxLjI5MTY1NzU0IDE0LjQ3MjY1NjI1IDE0NC4xNjc5Njg3NSBDMTYuMDQ5MjA4NTkgMTM5LjU5MDE4MTQ2IDE4LjYzMjk3ODQ2IDEzNi4zMjc5NjY4MSAyMi43MjI2NTYyNSAxMzMuNzMwNDY4NzUgQzI5LjMzOTY5NjYgMTMwLjgxOTQ4Mzk1IDM3LjM2NjUwMDM4IDEzMS4zMjk0NzIyOSA0NC40NzI2NTYyNSAxMzEuMTY3OTY4NzUgQzM0LjY3NDkzMzU0IDEyMC42NDExOTU5IDIwLjA0NzY5MTY2IDExNy45ODc3NTQ3NyA2LjQ3MjY1NjI1IDExNS4xNjc5Njg3NSBDNS43MDA4MzAwOCAxMTUuMDAxMzU3NDIgNC45MjkwMDM5MSAxMTQuODM0NzQ2MDkgNC4xMzM3ODkwNiAxMTQuNjYzMDg1OTQgQy0yMi4wODM2MzA5NSAxMDkuMjM1MzA0NiAtNTEuNTI5NDQ1MjggMTEwLjQxMjc0NzcgLTc3LjUyNzM0Mzc1IDExNi4xNjc5Njg3NSBaIE0zMS40NzI2NTYyNSAxNDguMTY3OTY4NzUgQzMxLjE0MjY1NjI1IDE0OS44MTc5Njg3NSAzMC44MTI2NTYyNSAxNTEuNDY3OTY4NzUgMzAuNDcyNjU2MjUgMTUzLjE2Nzk2ODc1IEMzMy44OTIyMDE5MiAxNTQuMzA3ODE3MzEgMzYuNTgyNDk3MDEgMTU0LjMxMDU0MDY4IDQwLjE4NzUgMTU0LjM0Mzc1IEM0MS41MjY3MDg1MSAxNTQuMzY2OTQzMzggNDIuODY1OTAxMjggMTU0LjM5MTA2MDUzIDQ0LjIwNTA3ODEyIDE1NC40MTYwMTU2MiBDNDYuMzA5NTk3MDQgMTU0LjQ1MTE0NDE3IDQ4LjQxMzUzMzg4IDE1NC40ODA0OTAyNiA1MC41MTgzMTA1NSAxNTQuNDkzODk2NDggQzUyLjU1NDU4Mjg2IDE1NC41MDkzOTMyMyA1NC41ODkxNzM1NSAxNTQuNTQ5NTk2OTggNTYuNjI1IDE1NC41OTM3NSBDNTcuODQxNzk0NDMgMTU0LjYwODMzMjUyIDU5LjA1ODU4ODg3IDE1NC42MjI5MTUwNCA2MC4zMTIyNTU4NiAxNTQuNjM3OTM5NDUgQzY0LjE2MTg4NjcxIDE1NS4yODM1NTkyNyA2NS4wMjUyNTA5NiAxNTYuMTkyNDUzNzcgNjcuNDcyNjU2MjUgMTU5LjE2Nzk2ODc1IEM2OC41NTk3NTM0MiAxNjEuODg1NTU5MDggNjguNTU5NzUzNDIgMTYxLjg4NTU1OTA4IDY5LjQwNTI3MzQ0IDE2NS4xMTAzNTE1NiBDNjkuNzM2NjgzMzUgMTY2LjM2MTkxMDQgNzAuMDY4MDkzMjYgMTY3LjYxMzQ2OTI0IDcwLjQwOTU0NTkgMTY4LjkwMjk1NDEgQzcwLjc2NjI0NTEyIDE3MC4zMjQwNDMwNiA3MS4xMjA1MDE4MyAxNzEuNzQ1NzQ2NzQgNzEuNDcyNjU2MjUgMTczLjE2Nzk2ODc1IEM3MS42NjEwMjU1NCAxNzMuOTIxMjU5NjEgNzEuODQ5Mzk0ODQgMTc0LjY3NDU1MDQ4IDcyLjA0MzQ3MjI5IDE3NS40NTA2NjgzMyBDNzMuNTg3NjE2MjYgMTgxLjY1MzgzMTA3IDc1LjA3MDc4NDAyIDE4Ny44NzExMjcwMSA3Ni41NTA3ODEyNSAxOTQuMDg5ODQzNzUgQzc3LjAzOTc2Mjg0IDE5Ni4xMzM4NjAwMyA3Ny41MjkwNDg0MiAxOTguMTc3ODAzNjEgNzguMDE4NjE1NzIgMjAwLjIyMTY3OTY5IEM3OS4zMjE0NTgyIDIwNS42NjM5MTIyIDgwLjYyMDc2ODkyIDIxMS4xMDY5ODE0NSA4MS45MTkxNTg5NCAyMTYuNTUwMjc3NzEgQzg0LjA3NDc0MDE3IDIyNS41ODQ5NDU4OSA4Ni4yMzUxMDU4IDIzNC42MTg0NzIwOCA4OC4zOTU5MDQ1NCAyNDMuNjUxODkzNjIgQzg4LjkzNzExMDU5IDI0NS45MTQ1MTIyMSA4OS40NzgxODcwMyAyNDguMTc3MTYxOCA5MC4wMTkxMzQ1MiAyNTAuNDM5ODQyMjIgQzkzLjMxNDU5NTgxIDI2NC4yMjEyMjEwOCA5Ni42MzYzOTM0NyAyNzcuOTk1NTMzOTggMTAwLjAyMDEzMzk3IDI5MS43NTU1MTYwNSBDMTAwLjYwMjgzNDM0IDI5NC4xMjU0Nzg5OSAxMDEuMTg0NDM2NTggMjk2LjQ5NTcwODY4IDEwMS43NjU2ODYwNCAyOTguODY2MDI3ODMgQzEwMy4zMzc5NzkyNyAzMDUuMjc1NTUyODggMTA0LjkxMjg1OTU5IDMxMS42ODQyOTg5NCAxMDYuNTA4NzA4OTUgMzE4LjA4ODAwNTA3IEMxMDcuMjg0ODU0NjMgMzIxLjIxMTkxODUgMTA4LjA0OTYwMTI5IDMyNC4zMzg2MjY2MiAxMDguODE2NDA2MjUgMzI3LjQ2NDg0Mzc1IEMxMDkuMjI3MDgzNDQgMzI5LjA5MjIwNDU5IDEwOS4yMjcwODM0NCAzMjkuMDkyMjA0NTkgMTA5LjY0NjA1NzEzIDMzMC43NTI0NDE0MSBDMTExLjAxNDA0MDc1IDMzNi4zNzQwMjU2IDExMS45MDEwNTAyMSAzNDEuMzc4MDA4NDcgMTExLjQ3MjY1NjI1IDM0Ny4xNjc5Njg3NSBDMTA5LjMwMjI3OTcyIDM1MC42MjA4NDA1MSAxMDYuMjQwMzg2NjkgMzUxLjc5MTE2NjcyIDEwMi42NjAxNTYyNSAzNTMuNDgwNDY4NzUgQzkzLjgzNjA3NDEgMzU3Ljc2Mjc0MzkxIDg4LjkyMDk2NjA3IDM2NC4wMzkzMDM2IDg1LjQ3MjY1NjI1IDM3My4xNjc5Njg3NSBDODIuNzA1NTA4NTkgMzgyLjI3MzIwMjI1IDgzLjI0NDE0NjY1IDM5MC43NDIxNDMxOCA4Ny4yMjI2NTYyNSAzOTkuNDE3OTY4NzUgQzkxLjU3MjUxNjAzIDQwNy4xOTY5MTUwOCA5Ny4yODIyMzAyMyA0MTIuNDc4MjIyMzcgMTA1LjQ3MjY1NjI1IDQxNi4xNjc5Njg3NSBDMTA2Ljc5MjY1NjI1IDQxNi4xNjc5Njg3NSAxMDguMTEyNjU2MjUgNDE2LjE2Nzk2ODc1IDEwOS40NzI2NTYyNSA0MTYuMTY3OTY4NzUgQzEwOS44MDI2NTYyNSA0MTQuNTE3OTY4NzUgMTEwLjEzMjY1NjI1IDQxMi44Njc5Njg3NSAxMTAuNDcyNjU2MjUgNDExLjE2Nzk2ODc1IEMxMDkuNzQ4MjAzMTMgNDEwLjgyNzY1NjI1IDEwOS4wMjM3NSA0MTAuNDg3MzQzNzUgMTA4LjI3NzM0Mzc1IDQxMC4xMzY3MTg3NSBDMTAwLjY0ODc0NzIgNDA2LjMxMjI0OTAxIDk1LjczOTkxNTYgNDAyLjY4MDM1MTIyIDkyLjQ0OTIxODc1IDM5NC42Nzk2ODc1IEM4OS42MjE1ODM3IDM4Ni4xMzE5MjgzMiA4OS43MjQ0NjI3MSAzNzguNDE5MDI1NjggOTMuNDcyNjU2MjUgMzcwLjE2Nzk2ODc1IEM5Ny43OTY5OTkyNyAzNjMuNjcxMzAzMTggMTAyLjg5NjU1MDQgMzU5LjI2NDgxNTE4IDExMC40NzI2NTYyNSAzNTcuMTY3OTY4NzUgQzExNS40NDMyMDkyIDM1Ni4zMzYzMDM3MyAxMjAuMzA1ODI2MzkgMzU2LjAwNDMwOTYyIDEyNS4zMzU2OTMzNiAzNTUuOTYyNjQ2NDggQzEyNi4wODc3NDA0OCAzNTUuOTUyNzQ2ODkgMTI2LjgzOTc4NzYgMzU1Ljk0Mjg0NzI5IDEyNy42MTQ2MjQwMiAzNTUuOTMyNjQ3NzEgQzEzMC4wNzYzODUwNiAzNTUuOTAxMzA1MiAxMzIuNTM4MTY1MzMgMzU1Ljg3NjM4NDI1IDEzNSAzNTUuODUxNTYyNSBDMTM2LjcxNjM1OTE5IDM1NS44MzA5NjkzNyAxMzguNDMyNzEzNTggMzU1LjgwOTk3MjMxIDE0MC4xNDkwNjMxMSAzNTUuNzg4NTg5NDggQzE0NC42NDg1Mjk5NyAzNTUuNzMzNjEyMjUgMTQ5LjE0ODA0MDc1IDM1NS42ODQwOTY0MyAxNTMuNjQ3NTgzMDEgMzU1LjYzNTc0MjE5IEMxNTguMjQ2MjE0NDkgMzU1LjU4NTM0ODQ1IDE2Mi44NDQ3ODI4NiAzNTUuNTI5NzU2MDMgMTY3LjQ0MzM1OTM4IDM1NS40NzQ2MDkzOCBDMTc2LjQ1MzA3MDk4IDM1NS4zNjczMjYgMTg1LjQ2MjgzNzU3IDM1NS4yNjU4MTU4MyAxOTQuNDcyNjU2MjUgMzU1LjE2Nzk2ODc1IEMxOTQuODAyNjU2MjUgMzU0LjE3Nzk2ODc1IDE5NS4xMzI2NTYyNSAzNTMuMTg3OTY4NzUgMTk1LjQ3MjY1NjI1IDM1Mi4xNjc5Njg3NSBDMTk1LjE0MjY1NjI1IDM1MS41MDc5Njg3NSAxOTQuODEyNjU2MjUgMzUwLjg0Nzk2ODc1IDE5NC40NzI2NTYyNSAzNTAuMTY3OTY4NzUgQzE5My42MTkzMjIwNSAzNTAuMTYyMTAyNTEgMTkyLjc2NTk4Nzg1IDM1MC4xNTYyMzYyNyAxOTEuODg2Nzk1MDQgMzUwLjE1MDE5MjI2IEMxODMuODM4NDM3NDQgMzUwLjA5MjI0ODk5IDE3NS43OTAzNTY4NiAzNTAuMDIwMTYyOTEgMTY3Ljc0MjI2ODU2IDM0OS45MzIyNTM4NCBDMTYzLjYwNDgxMDI0IDM0OS44ODc1NTc2NCAxNTkuNDY3NDUwMjIgMzQ5Ljg0ODMgMTU1LjMyOTgzMzk4IDM0OS44MjE1MzMyIEMxNTEuMzM1NTUyMDIgMzQ5Ljc5NTQ5MjUxIDE0Ny4zNDE2NDg0NiAzNDkuNzU1MDg1MDcgMTQzLjM0NzYwMDk0IDM0OS43MDQ3ODI0OSBDMTQxLjgyNTA1Njk3IDM0OS42ODgxMTg4NyAxNDAuMzAyNDQ3NTUgMzQ5LjY3NjYwMTQyIDEzOC43Nzk4MjUyMSAzNDkuNjcwMzU0ODQgQzEzNi42NDQyMzczOSAzNDkuNjYwNzA3ODcgMTM0LjUwOTYxNjUgMzQ5LjYzMjY0MzgyIDEzMi4zNzQyNjc1OCAzNDkuNjAwMzQxOCBDMTMwLjU1MjI1NTc4IDM0OS41ODM2ODcyMSAxMzAuNTUyMjU1NzggMzQ5LjU4MzY4NzIxIDEyOC42OTM0MzU2NyAzNDkuNTY2Njk2MTcgQzEyNS4wMjYyMjAyMyAzNDkuMTEyNzAwNjcgMTIzLjI1NTQyOTA0IDM0OC42MDk2MTI1MiAxMjAuNDcyNjU2MjUgMzQ2LjE2Nzk2ODc1IEMxMTkuNDAzOTUwNzggMzQzLjU1MzAxOTgzIDExOC42ODU2Nzc1MSAzNDEuMjg2NzA3NDMgMTE4LjA0NzExOTE0IDMzOC41NjY0MDYyNSBDMTE3Ljc0NDYwNjYgMzM3LjM4MzMzMzg5IDExNy43NDQ2MDY2IDMzNy4zODMzMzM4OSAxMTcuNDM1OTgyNyAzMzYuMTc2MzYxMDggQzExNi43NjEwNjIxNSAzMzMuNTExNTcyNzcgMTE2LjExNjQzMjE4IDMzMC44NDA0Mzk4MiAxMTUuNDcyNjU2MjUgMzI4LjE2Nzk2ODc1IEMxMTQuOTk2NDcxODQgMzI2LjI0ODc0NTAzIDExNC41MTkxMzM5NiAzMjQuMzI5ODA3MiAxMTQuMDQwNzQwOTcgMzIyLjQxMTEzMjgxIEMxMTIuNDIyNjIyNjcgMzE1Ljg3OTI5NDEyIDExMC44NTE0NjEyNyAzMDkuMzM2NDU3NzYgMTA5LjI4MTI1IDMwMi43OTI5Njg3NSBDMTA4LjY4OTY0MjY3IDMwMC4zMzc2NjM3OSAxMDguMDk3NzYzMjIgMjk3Ljg4MjQyNDM5IDEwNy41MDU2MzA0OSAyOTUuNDI3MjQ2MDkgQzEwNi4xMDgyMTk1MyAyODkuNjMwMTY2MDggMTA0LjcxMzU5Mjg5IDI4My44MzI0MjA5IDEwMy4zMjAzNTA3MSAyNzguMDM0MzM4IEMxMDEuOTMyNDQyMzEgMjcyLjI1OTA4NzkzIDEwMC41NDE1NTM5NSAyNjYuNDg0NTU3NzIgOTkuMTUwMTA2NDMgMjYwLjcxMDE1OTMgQzk3LjkzMzI1MTg4IDI1NS42NjAxOTg4MiA5Ni43MTcxODk0NCAyNTAuNjEwMDQ3NyA5NS41MDEwODcxOSAyNDUuNTU5OTA2MDEgQzk0Ljg5Njk0NTYxIDI0My4wNTE3Mjc3NSA5NC4yOTI1NTMyMyAyNDAuNTQzNjA5OSA5My42ODc5MDgxNyAyMzguMDM1NTUyOTggQzkwLjcyNzA0NDAyIDIyNS43NTM4MTY3OSA4Ny43NzI0NDYyNiAyMTMuNDcwOTQzNjEgODQuODc5NjI2MjcgMjAxLjE3Mjk3MzYzIEM4My43ODg0NjkyOCAxOTYuNTM1NDA5MzggODIuNjkxNDEyMjggMTkxLjg5OTI0ODggODEuNTk0MTYzODkgMTg3LjI2MzEyMjU2IEM4MS4wODQ4ODk4NSAxODUuMTAyNzk3NzMgODAuNTc4Nzk0MzkgMTgyLjk0MTcyMDcxIDgwLjA3NjEzOTQ1IDE4MC43Nzk4NDYxOSBDNzkuMzg1NTA2NjMgMTc3LjgwOTY1NjA0IDc4LjY4NDIwNjgzIDE3NC44NDIxNjU5NiA3Ny45ODA3MTI4OSAxNzEuODc1IEM3Ny43ODQ3NTMzNiAxNzEuMDE4NDMzMDcgNzcuNTg4NzkzODMgMTcwLjE2MTg2NjE1IDc3LjM4Njg5NjEzIDE2OS4yNzkzNDI2NSBDNzUuNTM4MzcyNjUgMTYxLjU2NjkxOTQ1IDczLjU3MzA3OTA5IDE1My41Mzc0NTk3MyA2Ni40NzI2NTYyNSAxNDkuMTY3OTY4NzUgQzYyLjk2NjQxMTk1IDE0Ny45OTkyMjA2NSA1OS44MjQ4Njk2NSAxNDguMDQyODI2MDggNTYuMTc5Njg3NSAxNDguMDcwMzEyNSBDNTUuNDczNjU4OTEgMTQ4LjA3MTcyNzQ1IDU0Ljc2NzYzMDMxIDE0OC4wNzMxNDI0IDU0LjA0MDIwNjkxIDE0OC4wNzQ2MDAyMiBDNTEuNzg4NDc5OTkgMTQ4LjA4MDE5MTExIDQ5LjUzNjg1MzA0IDE0OC4wOTI3NDE4NyA0Ny4yODUxNTYyNSAxNDguMTA1NDY4NzUgQzQ1Ljc1NzE2MjkgMTQ4LjExMDQ4NDkzIDQ0LjIyOTE2Nzk4IDE0OC4xMTUwNDc2MyA0Mi43MDExNzE4OCAxNDguMTE5MTQwNjIgQzM4Ljk1ODI5NDkgMTQ4LjEzMDE1NzU1IDM1LjIxNTQ5MjUyIDE0OC4xNDc0MTU4OCAzMS40NzI2NTYyNSAxNDguMTY3OTY4NzUgWiBNMTA2LjQ3MjY1NjI1IDIxOC4xNjc5Njg3NSBDMTA3LjI4MjM5MjUyIDIyNC44MTg5MzUxNyAxMDcuMjgyMzkyNTIgMjI0LjgxODkzNTE3IDEwOC42Mjg5MDYyNSAyMzEuMjUzOTA2MjUgQzEwOC44NDY3NTc4MSAyMzIuMTIxNDQ1MzEgMTA5LjA2NDYwOTM4IDIzMi45ODg5ODQzNyAxMDkuMjg5MDYyNSAyMzMuODgyODEyNSBDMTA5LjUxNDY0ODQ0IDIzNC43NjA2NjQwNiAxMDkuNzQwMjM0MzggMjM1LjYzODUxNTYyIDEwOS45NzI2NTYyNSAyMzYuNTQyOTY4NzUgQzExMC4xOTgyNDIxOSAyMzcuNDQ0MDIzNDQgMTEwLjQyMzgyODEyIDIzOC4zNDUwNzgxMiAxMTAuNjU2MjUgMjM5LjI3MzQzNzUgQzExMS43NDMwMjQ1OCAyNDMuODM2Mjk4NzkgMTExLjc0MzAyNDU4IDI0My44MzYyOTg3OSAxMTMuNDcyNjU2MjUgMjQ4LjE2Nzk2ODc1IEMxMjkuNjQyNjU2MjUgMjQ4LjE2Nzk2ODc1IDE0NS44MTI2NTYyNSAyNDguMTY3OTY4NzUgMTYyLjQ3MjY1NjI1IDI0OC4xNjc5Njg3NSBDMTYyLjQ3MjY1NjI1IDIzOC4yNjc5Njg3NSAxNjIuNDcyNjU2MjUgMjI4LjM2Nzk2ODc1IDE2Mi40NzI2NTYyNSAyMTguMTY3OTY4NzUgQzE0My45OTI2NTYyNSAyMTguMTY3OTY4NzUgMTI1LjUxMjY1NjI1IDIxOC4xNjc5Njg3NSAxMDYuNDcyNjU2MjUgMjE4LjE2Nzk2ODc1IFogTTE3OS40NzI2NTYyNSAyMTguMTY3OTY4NzUgQzE3OS40NzI2NTYyNSAyMjguMDY3OTY4NzUgMTc5LjQ3MjY1NjI1IDIzNy45Njc5Njg3NSAxNzkuNDcyNjU2MjUgMjQ4LjE2Nzk2ODc1IEMxOTMuOTkyNjU2MjUgMjQ4LjE2Nzk2ODc1IDIwOC41MTI2NTYyNSAyNDguMTY3OTY4NzUgMjIzLjQ3MjY1NjI1IDI0OC4xNjc5Njg3NSBDMjIzLjQ3MjY1NjI1IDIzOC4yNjc5Njg3NSAyMjMuNDcyNjU2MjUgMjI4LjM2Nzk2ODc1IDIyMy40NzI2NTYyNSAyMTguMTY3OTY4NzUgQzIwOC45NTI2NTYyNSAyMTguMTY3OTY4NzUgMTk0LjQzMjY1NjI1IDIxOC4xNjc5Njg3NSAxNzkuNDcyNjU2MjUgMjE4LjE2Nzk2ODc1IFogTTI0MC40NzI2NTYyNSAyMTguMTY3OTY4NzUgQzI0MC40NzI2NTYyNSAyMjguMDY3OTY4NzUgMjQwLjQ3MjY1NjI1IDIzNy45Njc5Njg3NSAyNDAuNDcyNjU2MjUgMjQ4LjE2Nzk2ODc1IEMyNTQuOTkyNjU2MjUgMjQ4LjE2Nzk2ODc1IDI2OS41MTI2NTYyNSAyNDguMTY3OTY4NzUgMjg0LjQ3MjY1NjI1IDI0OC4xNjc5Njg3NSBDMjg0LjQ3MjY1NjI1IDIzOC4yNjc5Njg3NSAyODQuNDcyNjU2MjUgMjI4LjM2Nzk2ODc1IDI4NC40NzI2NTYyNSAyMTguMTY3OTY4NzUgQzI2OS45NTI2NTYyNSAyMTguMTY3OTY4NzUgMjU1LjQzMjY1NjI1IDIxOC4xNjc5Njg3NSAyNDAuNDcyNjU2MjUgMjE4LjE2Nzk2ODc1IFogTTMwMS40NzI2NTYyNSAyMTguMTY3OTY4NzUgQzMwMS40NzI2NTYyNSAyMjguMDY3OTY4NzUgMzAxLjQ3MjY1NjI1IDIzNy45Njc5Njg3NSAzMDEuNDcyNjU2MjUgMjQ4LjE2Nzk2ODc1IEMzMTguMzAyNjU2MjUgMjQ4LjE2Nzk2ODc1IDMzNS4xMzI2NTYyNSAyNDguMTY3OTY4NzUgMzUyLjQ3MjY1NjI1IDI0OC4xNjc5Njg3NSBDMzU0LjQ5NTI2MDU5IDI0Mi43NzQzNTcxNyAzNTYuNDI1MjExNjEgMjM3LjQ1Nzg2MTk2IDM1OC4xNjAxNTYyNSAyMzEuOTgwNDY4NzUgQzM1OC4zODUwOTc2NiAyMzEuMjk1MzMyMDMgMzU4LjYxMDAzOTA2IDIzMC42MTAxOTUzMSAzNTguODQxNzk2ODggMjI5LjkwNDI5Njg4IEMzNjAuMDAxNTA4NyAyMjYuMjQxODYzNDggMzYwLjg1NzAwMjg0IDIyMy4wMTg2ODY0MyAzNjAuNDcyNjU2MjUgMjE5LjE2Nzk2ODc1IEMzNTkuNDM0MDA3MzUgMjE3LjkwNjEyMjY2IDM1OS40MzQwMDczNSAyMTcuOTA2MTIyNjYgMzU3LjE1MDQ5NzQ0IDIxOC4wNDc3MTQyMyBDMzU1LjYwODI4MjcgMjE4LjA1MTA0NTE1IDM1NS42MDgyODI3IDIxOC4wNTEwNDUxNSAzNTQuMDM0OTEyMTEgMjE4LjA1NDQ0MzM2IEMzNTIuODczNzg0MDMgMjE4LjA1NDUxODg5IDM1MS43MTI2NTU5NCAyMTguMDU0NTk0NDIgMzUwLjUxNjM0MjE2IDIxOC4wNTQ2NzIyNCBDMzQ5LjI1MjgyNDI1IDIxOC4wNTk4MzM1MyAzNDcuOTg5MzA2MzQgMjE4LjA2NDk5NDgxIDM0Ni42ODc1IDIxOC4wNzAzMTI1IEMzNDQuNzU4NTY2NTEgMjE4LjA3MjQzNDkyIDM0NC43NTg1NjY1MSAyMTguMDcyNDM0OTIgMzQyLjc5MDY2NDY3IDIxOC4wNzQ2MDAyMiBDMzM5LjM2NjIyMTgyIDIxOC4wNzg0MjQ1NyAzMzUuOTQxODIxMTYgMjE4LjA4ODI1NDEzIDMzMi41MTczOTUwMiAyMTguMDk5MzA0MiBDMzI5LjAyNTI3NDQ3IDIxOC4xMDk1MjAxMSAzMjUuNTMzMTQ2OTIgMjE4LjExNDE1MjkzIDMyMi4wNDEwMTU2MiAyMTguMTE5MTQwNjIgQzMxNS4xODQ4NTg1MyAyMTguMTI5MzQ2MjggMzA4LjMyODgxNzQgMjE4LjE0ODkxNzk4IDMwMS40NzI2NTYyNSAyMTguMTY3OTY4NzUgWiBNMTE3LjQ3MjY1NjI1IDI2NS4xNjc5Njg3NSBDMTE5LjY1NTAyODA5IDI3NS41MzQyMzQ5NyAxMjEuOTAzMzU1MzQgMjg1Ljg5MDc2NTA5IDEyNC40NzI2NTYyNSAyOTYuMTY3OTY4NzUgQzEzNy4wMTI2NTYyNSAyOTYuMTY3OTY4NzUgMTQ5LjU1MjY1NjI1IDI5Ni4xNjc5Njg3NSAxNjIuNDcyNjU2MjUgMjk2LjE2Nzk2ODc1IEMxNjIuNDcyNjU2MjUgMjg1LjkzNzk2ODc1IDE2Mi40NzI2NTYyNSAyNzUuNzA3OTY4NzUgMTYyLjQ3MjY1NjI1IDI2NS4xNjc5Njg3NSBDMTQ3LjYyMjY1NjI1IDI2NS4xNjc5Njg3NSAxMzIuNzcyNjU2MjUgMjY1LjE2Nzk2ODc1IDExNy40NzI2NTYyNSAyNjUuMTY3OTY4NzUgWiBNMTc5LjQ3MjY1NjI1IDI2NS4xNjc5Njg3NSBDMTc5LjQ3MjY1NjI1IDI3NS4zOTc5Njg3NSAxNzkuNDcyNjU2MjUgMjg1LjYyNzk2ODc1IDE3OS40NzI2NTYyNSAyOTYuMTY3OTY4NzUgQzE5My45OTI2NTYyNSAyOTYuMTY3OTY4NzUgMjA4LjUxMjY1NjI1IDI5Ni4xNjc5Njg3NSAyMjMuNDcyNjU2MjUgMjk2LjE2Nzk2ODc1IEMyMjMuNDcyNjU2MjUgMjg1LjkzNzk2ODc1IDIyMy40NzI2NTYyNSAyNzUuNzA3OTY4NzUgMjIzLjQ3MjY1NjI1IDI2NS4xNjc5Njg3NSBDMjA4Ljk1MjY1NjI1IDI2NS4xNjc5Njg3NSAxOTQuNDMyNjU2MjUgMjY1LjE2Nzk2ODc1IDE3OS40NzI2NTYyNSAyNjUuMTY3OTY4NzUgWiBNMjQwLjQ3MjY1NjI1IDI2NS4xNjc5Njg3NSBDMjQwLjQ3MjY1NjI1IDI3NS4zOTc5Njg3NSAyNDAuNDcyNjU2MjUgMjg1LjYyNzk2ODc1IDI0MC40NzI2NTYyNSAyOTYuMTY3OTY4NzUgQzI1NC45OTI2NTYyNSAyOTYuMTY3OTY4NzUgMjY5LjUxMjY1NjI1IDI5Ni4xNjc5Njg3NSAyODQuNDcyNjU2MjUgMjk2LjE2Nzk2ODc1IEMyODQuNDcyNjU2MjUgMjg1LjkzNzk2ODc1IDI4NC40NzI2NTYyNSAyNzUuNzA3OTY4NzUgMjg0LjQ3MjY1NjI1IDI2NS4xNjc5Njg3NSBDMjY5Ljk1MjY1NjI1IDI2NS4xNjc5Njg3NSAyNTUuNDMyNjU2MjUgMjY1LjE2Nzk2ODc1IDI0MC40NzI2NTYyNSAyNjUuMTY3OTY4NzUgWiBNMzAxLjQ3MjY1NjI1IDI2NS4xNjc5Njg3NSBDMzAxLjQ3MjY1NjI1IDI3NS4zOTc5Njg3NSAzMDEuNDcyNjU2MjUgMjg1LjYyNzk2ODc1IDMwMS40NzI2NTYyNSAyOTYuMTY3OTY4NzUgQzMxMy4zNTI2NTYyNSAyOTYuMTY3OTY4NzUgMzI1LjIzMjY1NjI1IDI5Ni4xNjc5Njg3NSAzMzcuNDcyNjU2MjUgMjk2LjE2Nzk2ODc1IEMzNDEuNTA1MDkxNzkgMjg2LjA4Njg3OTkgMzQ0LjQ4OTgyNjI4IDI3NS42MDc4NzM2NSAzNDcuNDcyNjU2MjUgMjY1LjE2Nzk2ODc1IEMzMzIuMjkyNjU2MjUgMjY1LjE2Nzk2ODc1IDMxNy4xMTI2NTYyNSAyNjUuMTY3OTY4NzUgMzAxLjQ3MjY1NjI1IDI2NS4xNjc5Njg3NSBaIE0xMjkuNDcyNjU2MjUgMzEzLjE2Nzk2ODc1IEMxMzAuNDAyNDYyOTUgMzIxLjkxMDAxMjE4IDEzMC40MDI0NjI5NSAzMjEuOTEwMDEyMTggMTMzLjQ3MjY1NjI1IDMzMy4xNjc5Njg3NSBDMTQzLjA0MjY1NjI1IDMzMy4xNjc5Njg3NSAxNTIuNjEyNjU2MjUgMzMzLjE2Nzk2ODc1IDE2Mi40NzI2NTYyNSAzMzMuMTY3OTY4NzUgQzE2Mi40NzI2NTYyNSAzMjYuNTY3OTY4NzUgMTYyLjQ3MjY1NjI1IDMxOS45Njc5Njg3NSAxNjIuNDcyNjU2MjUgMzEzLjE2Nzk2ODc1IEMxNTEuNTgyNjU2MjUgMzEzLjE2Nzk2ODc1IDE0MC42OTI2NTYyNSAzMTMuMTY3OTY4NzUgMTI5LjQ3MjY1NjI1IDMxMy4xNjc5Njg3NSBaIE0xNzkuNDcyNjU2MjUgMzEzLjE2Nzk2ODc1IEMxNzkuNDcyNjU2MjUgMzE5Ljc2Nzk2ODc1IDE3OS40NzI2NTYyNSAzMjYuMzY3OTY4NzUgMTc5LjQ3MjY1NjI1IDMzMy4xNjc5Njg3NSBDMTg1LjQwOTgxMTg3IDMzMy4zMzc4MTI5NSAxODUuNDA5ODExODcgMzMzLjMzNzgxMjk1IDE5MS4zNDc5MDAzOSAzMzMuNDY1ODIwMzEgQzE5Ny4xNTM3NTAxNiAzMzMuNzAxNTUzMDcgMjAwLjcyNTE2MDY3IDMzNC43Njg5ODM1OSAyMDUuNDcyNjU2MjUgMzM4LjE2Nzk2ODc1IEMyMDYuMTczOTA2MjUgMzM5LjI0MDQ2ODc1IDIwNi44NzUxNTYyNSAzNDAuMzEyOTY4NzUgMjA3LjU5NzY1NjI1IDM0MS40MTc5Njg3NSBDMjExLjM3NTMwNCAzNDUuNjY1NjE3ODIgMjExLjM3NTMwNCAzNDUuNjY1NjE3ODIgMjIzLjQ3MjY1NjI1IDM0NC4xNjc5Njg3NSBDMjIzLjQ3MjY1NjI1IDMzMy45Mzc5Njg3NSAyMjMuNDcyNjU2MjUgMzIzLjcwNzk2ODc1IDIyMy40NzI2NTYyNSAzMTMuMTY3OTY4NzUgQzIwOC45NTI2NTYyNSAzMTMuMTY3OTY4NzUgMTk0LjQzMjY1NjI1IDMxMy4xNjc5Njg3NSAxNzkuNDcyNjU2MjUgMzEzLjE2Nzk2ODc1IFogTTI0MC40NzI2NTYyNSAzMTMuMTY3OTY4NzUgQzI0MC40NzI2NTYyNSAzMjMuMzk3OTY4NzUgMjQwLjQ3MjY1NjI1IDMzMy42Mjc5Njg3NSAyNDAuNDcyNjU2MjUgMzQ0LjE2Nzk2ODc1IEMyNTQuOTkyNjU2MjUgMzQ0LjE2Nzk2ODc1IDI2OS41MTI2NTYyNSAzNDQuMTY3OTY4NzUgMjg0LjQ3MjY1NjI1IDM0NC4xNjc5Njg3NSBDMjg0LjQ3MjY1NjI1IDMzMy45Mzc5Njg3NSAyODQuNDcyNjU2MjUgMzIzLjcwNzk2ODc1IDI4NC40NzI2NTYyNSAzMTMuMTY3OTY4NzUgQzI2OS45NTI2NTYyNSAzMTMuMTY3OTY4NzUgMjU1LjQzMjY1NjI1IDMxMy4xNjc5Njg3NSAyNDAuNDcyNjU2MjUgMzEzLjE2Nzk2ODc1IFogTTMwMS40NzI2NTYyNSAzMTMuMTY3OTY4NzUgQzMwMS40NzI2NTYyNSAzMjMuMDY3OTY4NzUgMzAxLjQ3MjY1NjI1IDMzMi45Njc5Njg3NSAzMDEuNDcyNjU2MjUgMzQzLjE2Nzk2ODc1IEMzMTEuNjAzNzI1MzYgMzQxLjkwMTU4NTExIDMxNy42NjQzMzAyOSAzMzguODYzODAyNjUgMzI0LjY3OTY4NzUgMzMxLjQ4NDM3NSBDMzI4LjkzMTU1Njk4IDMyNS45OTEyMTkgMzMxLjEyMjg5NjI4IDMxOS45MTY3Njg1OSAzMzIuNDcyNjU2MjUgMzEzLjE2Nzk2ODc1IEMzMjIuMjQyNjU2MjUgMzEzLjE2Nzk2ODc1IDMxMi4wMTI2NTYyNSAzMTMuMTY3OTY4NzUgMzAxLjQ3MjY1NjI1IDMxMy4xNjc5Njg3NSBaIE0xMzIuNDcyNjU2MjUgNDA4LjE2Nzk2ODc1IEMxMjYuMTc0NDg1MjIgNDE1Ljk3NzcwMDgzIDEyMy41NTk2NzkyMiA0MjMuMTQwNDM3NjUgMTI0LjQ3MjY1NjI1IDQzMy4xNjc5Njg3NSBDMTI1Ljc0MjIyMDIzIDQ0MS4yNjgzMzg5MSAxMzAuNDkzOTEyNiA0NDYuNzg5MDM0MzMgMTM2LjQ3MjY1NjI1IDQ1Mi4xNjc5Njg3NSBDMTQzLjM0MTc3Nzc0IDQ1Ni43NDczODMwOCAxNTAuMzcxMTQ2NzYgNDU3Ljk4Mjc3NTc0IDE1OC40NzI2NTYyNSA0NTcuMTY3OTY4NzUgQzE2Ni42NDIxODI5NiA0NTUuMTI1NTg3MDcgMTczLjI2Mjc4ODIyIDQ1MC44NDcwMzAxMSAxNzguMDQyOTY4NzUgNDQzLjg3ODkwNjI1IEMxODIuMjY2ODgxNjkgNDM2LjI3NTg2Mjk3IDE4My41NzQ5NDgzOCA0MjguNTMwOTczMjQgMTgxLjQ3MjY1NjI1IDQyMC4wNDI5Njg3NSBDMTc4Ljc0NDEwMTY4IDQxMi4yNzcwODI2NiAxNzMuNjk2MTI3ODkgNDA2LjEyNTQwNDQ5IDE2Ni41MTU2MjUgNDAyLjA5NzY1NjI1IEMxNTQuNjMyMDg5MjIgMzk2LjY4OTg1MjIgMTQxLjc0MDMzNTM1IDM5OC45Nzk4NDA1NCAxMzIuNDcyNjU2MjUgNDA4LjE2Nzk2ODc1IFogTTI2OS40NzI2NTYyNSA0MDkuMTY3OTY4NzUgQzI2NC42NTMwNjU0OCA0MTUuMDQ1NTE4NDcgMjYyLjk0NjIzNzY4IDQyMC45ODQ2NjYxMyAyNjIuMDk3NjU2MjUgNDI4LjQ4MDQ2ODc1IEMyNjMuMDE4NjMzNzYgNDM3LjUzNjc0NzU1IDI2Ni41Mzg3ODc4OSA0NDUuMTk1NjMyOTIgMjczLjQ3MjY1NjI1IDQ1MS4xNjc5Njg3NSBDMjgxLjYxODMzODIzIDQ1Ni42ODU1Njc1MiAyODkuMDEzNTYzNDcgNDU4LjMyMDM5MjI1IDI5OC43NzM0Mzc1IDQ1Ni44MTI1IEMzMDYuMzYzNjAzMTMgNDU0LjgwMzczNTAzIDMxMi41OTUyOTcxNSA0NDkuNDE1ODU5NDIgMzE2Ljk1NzAzMTI1IDQ0Mi45NzY1NjI1IEMzMjAuNTE2MjU2NTggNDM2LjE4MDUwNTQ0IDMyMS42NDAxMTAxMyA0MjguOTkyNTA3MDYgMzE5LjgyNDIxODc1IDQyMS40ODgyODEyNSBDMzE3LjAxMTczMTUzIDQxMi44MTA0MzYwOCAzMTIuNzY2NTk4MyA0MDYuNzEyMDkzNjEgMzA0LjcyMjY1NjI1IDQwMi4yMzA0Njg3NSBDMjkxLjc1NzU0NzEgMzk2LjQzNTQ1Nzg0IDI3OS40MzQ1NjYzOSAzOTkuMzI0MTg0MDMgMjY5LjQ3MjY1NjI1IDQwOS4xNjc5Njg3NSBaIE0xOTYuNDcyNjU2MjUgNDEyLjE2Nzk2ODc1IEMxOTcuMTMyNjU2MjUgNDE0LjE0Nzk2ODc1IDE5Ny43OTI2NTYyNSA0MTYuMTI3OTY4NzUgMTk4LjQ3MjY1NjI1IDQxOC4xNjc5Njg3NSBDMjE0LjMxMjY1NjI1IDQxOC4xNjc5Njg3NSAyMzAuMTUyNjU2MjUgNDE4LjE2Nzk2ODc1IDI0Ni40NzI2NTYyNSA0MTguMTY3OTY4NzUgQzI0Ny4xMzI2NTYyNSA0MTYuMTg3OTY4NzUgMjQ3Ljc5MjY1NjI1IDQxNC4yMDc5Njg3NSAyNDguNDcyNjU2MjUgNDEyLjE2Nzk2ODc1IEMyMzEuMzEyNjU2MjUgNDEyLjE2Nzk2ODc1IDIxNC4xNTI2NTYyNSA0MTIuMTY3OTY4NzUgMTk2LjQ3MjY1NjI1IDQxMi4xNjc5Njg3NSBaICIgZmlsbD0iIzAwMDAwMCIgY2xhc3M9InBhdGgxIiB0cmFuc2Zvcm09InRyYW5zbGF0ZSgxMzQuNTI3MzQzNzUsMjMuODMyMDMxMjUpIi8+JiN4YTs8cGF0aCBkPSJNMCAwIEM2LjU1OTU4MTQ0IDQuMDMxMjYzMTEgMTAuMjA4ODM5OTQgOS40MDE1NzQ5OCAxMi4wODk4NDM3NSAxNi44MjQyMTg3NSBDMTMuMjA5MDcxMDEgMjMuOTU1Mjk1MjYgMTIuMTE5MTkxMSAyOS43NzI1MTc3NiA3Ljk0NTMxMjUgMzUuNjg3NSBDMy42OTEzMDQwMSA0MC44MzgyOTk0NyAtMS4wNzYyNjY4IDQzLjg3MTAzMTk4IC03LjUgNDUuNDM3NSBDLTE0LjM2NTc0ODkyIDQ2LjA5MTM4MDg1IC0yMC45MTE0NjI4OCA0NS4xODYxNjY3MyAtMjYuNTE5NTMxMjUgNDAuODkwNjI1IEMtMzIuMjg5MzQ1MDIgMzUuNDAwMTkxNjggLTM1LjEzMjI1MDEgMjkuNzAzMzk4NzkgLTM1LjgxMjUgMjEuODEyNSBDLTM1LjY4NTk2NTc3IDE1LjYzNTMyOTE0IC0zMy43MzUwNjczMyA5Ljk3MTE5ODQ1IC0yOS42Mjg5MDYyNSA1LjMxNjQwNjI1IEMtMjEuNTYwNTU1MzYgLTIuMDE5ODQ0NzUgLTEwLjM2ODY3MjA0IC00LjY3MjkyMTgzIDAgMCBaIE0tMTcuNSAxNy40Mzc1IEMtMTguNjc3OTczODkgMjAuMjUzMDUzNDcgLTE4LjY3Nzk3Mzg5IDIwLjI1MzA1MzQ3IC0xOC41IDIzLjQzNzUgQy0xNi41ODMzMzMzMyAyNi41MjA4MzMzMyAtMTYuNTgzMzMzMzMgMjYuNTIwODMzMzMgLTEzLjUgMjguNDM3NSBDLTEwLjM0NjI3NTkxIDI4Ljc3MzAwODQ3IC0xMC4zNDYyNzU5MSAyOC43NzMwMDg0NyAtNy41IDI3LjQzNzUgQy01LjM0NzQ1NjM0IDI1LjI5NDUxNzA3IC01LjM0NzQ1NjM0IDI1LjI5NDUxNzA3IC00LjUgMjIuNDM3NSBDLTUuMzEyMDQ0MTMgMTkuMjYzMTQ1NjYgLTYuMTgxODA1NzUgMTcuNzU1Njk0MjUgLTguNSAxNS40Mzc1IEMtMTIuNTUyNjEyODcgMTUuMDkyNTk2NzggLTE0LjA0NzU0MTc2IDE1LjEzNTg2MTE4IC0xNy41IDE3LjQzNzUgWiAiIGZpbGw9IiMwMDAwMDAiIGNsYXNzPSJwYXRoMSIgdHJhbnNmb3JtPSJ0cmFuc2xhdGUoMjk5LjUsNDMwLjU2MjUpIi8+JiN4YTs8cGF0aCBkPSJNMCAwIEM2LjMzMTA2MjE0IDMuODc3MjY3MTggMTAuMDI5MTE1MjEgOS4xNTg0MDAxMiAxMi4wMjczNDM3NSAxNi4yNTM5MDYyNSBDMTMuNTYxMzM2MTUgMjMuMzQwNjk3NTggMTIuMTA4OTk4NzggMjkuMjUyMDIzNDggOC41IDM1LjQzNzUgQzIuNzIyMDQ4OTUgNDIuMTQxMjYxNzQgLTIuNTkxMjA2MTcgNDUuMDQ3OTEzMTkgLTExLjQzNzUgNDUuNzUgQy0xOS44ODA0OTkzOCA0NS40NTcxNzkyMSAtMjUuODIzOTgzMDIgNDEuNDkyNzkgLTMxLjUgMzUuNDM3NSBDLTM1LjQ0NTY4MjE0IDI5LjgzNzE3Njk2IC0zNi4xODkyMzM2MiAyMi42NTk4OTIzNyAtMzUuMDk3NjU2MjUgMTUuOTcyNjU2MjUgQy0zMy4xMDI1NDM4OSA5LjA2NjQ5ODA5IC0yOS4xNDcxNDg2OSAzLjc2NDYzNDk2IC0yMyAwIEMtMTYuMTMxNjQzIC0zLjA1MTEzNTUxIC02Ljg2ODM1NyAtMy4wNTExMzU1MSAwIDAgWiBNLTE2LjMxMjUgMTYuNjg3NSBDLTE3LjcxMjA1IDE4Ljc0OTk5NDc0IC0xOC4zNTI2NDQ4NCAxOS45MzI0NjIyOSAtMTguNSAyMi40Mzc1IEMtMTcuNTYxOTYyMTggMjUuMjIzNDAxMSAtMTcuNTYxOTYyMTggMjUuMjIzNDAxMSAtMTUuNSAyNy40Mzc1IEMtMTIuNjUzNzI0MDkgMjguNzczMDA4NDcgLTEyLjY1MzcyNDA5IDI4Ljc3MzAwODQ3IC05LjUgMjguNDM3NSBDLTYuNDM2OTIzNjkgMjYuNDU3ODM3MzcgLTYuNDM2OTIzNjkgMjYuNDU3ODM3MzcgLTQuNSAyMy40Mzc1IEMtNC41IDIwLjQ5NjExMDMyIC01LjA5MTE3OTQzIDE5LjA2MTQ4OTI5IC02LjY4NzUgMTYuNjI1IEMtOS44NjY5ODgyOCAxNC41NDE4ODY5OSAtMTMuMTc4MjUxMDYgMTQuNTI1OTQ5MDEgLTE2LjMxMjUgMTYuNjg3NSBaICIgZmlsbD0iIzAwMDAwMCIgY2xhc3M9InBhdGgxIiB0cmFuc2Zvcm09InRyYW5zbGF0ZSg0MzcuNSw0MzAuNTYyNSkiLz4mI3hhOzwvc3ZnPg==;" vertex="1" parent="1">
          <mxGeometry x="829" y="1290" width="58" height="58" as="geometry" />
        </mxCell>
        <mxCell id="w3d3HwJF83mIlRjUdbyV-48" value="" style="rounded=1;whiteSpace=wrap;html=1;strokeColor=none;fillColor=#A5F3FC;" vertex="1" parent="1">
          <mxGeometry x="360" y="1360" width="40" height="120" as="geometry" />
        </mxCell>
        <mxCell id="w3d3HwJF83mIlRjUdbyV-49" value="" style="rounded=1;whiteSpace=wrap;html=1;strokeColor=none;fillColor=#A5F3FC;" vertex="1" parent="1">
          <mxGeometry x="420" y="1360" width="40" height="120" as="geometry" />
        </mxCell>
        <mxCell id="w3d3HwJF83mIlRjUdbyV-50" value="" style="rounded=1;whiteSpace=wrap;html=1;strokeColor=none;fillColor=#A5F3FC;" vertex="1" parent="1">
          <mxGeometry x="480" y="1360" width="40" height="120" as="geometry" />
        </mxCell>
        <mxCell id="w3d3HwJF83mIlRjUdbyV-51" value="" style="rounded=1;whiteSpace=wrap;html=1;strokeColor=none;fillColor=#A5F3FC;" vertex="1" parent="1">
          <mxGeometry x="540" y="1360" width="40" height="120" as="geometry" />
        </mxCell>
        <mxCell id="w3d3HwJF83mIlRjUdbyV-52" value="" style="rounded=1;whiteSpace=wrap;html=1;strokeColor=none;fillColor=#A5F3FC;" vertex="1" parent="1">
          <mxGeometry x="600" y="1360" width="40" height="120" as="geometry" />
        </mxCell>
        <mxCell id="w3d3HwJF83mIlRjUdbyV-53" value="" style="rounded=1;whiteSpace=wrap;html=1;strokeColor=none;fillColor=#A5F3FC;" vertex="1" parent="1">
          <mxGeometry x="300" y="1360" width="40" height="120" as="geometry" />
        </mxCell>
        <mxCell id="w3d3HwJF83mIlRjUdbyV-55" value="" style="rounded=1;whiteSpace=wrap;html=1;strokeColor=none;fillColor=#A5F3FC;" vertex="1" parent="1">
          <mxGeometry x="660" y="1360" width="40" height="120" as="geometry" />
        </mxCell>
        <mxCell id="w3d3HwJF83mIlRjUdbyV-56" value="" style="endArrow=classic;html=1;rounded=0;entryX=-0.1;entryY=0.392;entryDx=0;entryDy=0;entryPerimeter=0;exitX=1;exitY=0.5;exitDx=0;exitDy=0;strokeWidth=3;strokeColor=#EF4444;dashed=1;dashPattern=1 1;flowAnimation=1;" edge="1" parent="1" source="w3d3HwJF83mIlRjUdbyV-41" target="w3d3HwJF83mIlRjUdbyV-53">
          <mxGeometry width="50" height="50" relative="1" as="geometry">
            <mxPoint x="190" y="1200" as="sourcePoint" />
            <mxPoint x="240" y="1150" as="targetPoint" />
          </mxGeometry>
        </mxCell>
        <mxCell id="w3d3HwJF83mIlRjUdbyV-57" value="" style="endArrow=classic;html=1;rounded=0;entryX=0.026;entryY=0.591;entryDx=0;entryDy=0;entryPerimeter=0;exitX=0.994;exitY=0.419;exitDx=0;exitDy=0;strokeWidth=3;strokeColor=#84CC16;dashed=1;exitPerimeter=0;dashPattern=1 1;flowAnimation=1;" edge="1" parent="1" source="w3d3HwJF83mIlRjUdbyV-55" target="w3d3HwJF83mIlRjUdbyV-42">
          <mxGeometry width="50" height="50" relative="1" as="geometry">
            <mxPoint x="230" y="1416" as="sourcePoint" />
            <mxPoint x="306" y="1417" as="targetPoint" />
          </mxGeometry>
        </mxCell>
        <mxCell id="w3d3HwJF83mIlRjUdbyV-58" value="" style="rounded=1;whiteSpace=wrap;html=1;arcSize=0;fillColor=none;strokeColor=none;" vertex="1" parent="1">
          <mxGeometry y="1200" width="1000" height="360" as="geometry" />
        </mxCell>
      </root>
    </mxGraphModel>
  </diagram>
</mxfile>
